<svg id="Capa_1" data-name="Capa 1" xmlns="http://www.w3.org/2000/svg" xmlns:xlink="http://www.w3.org/1999/xlink" viewBox="0 0 4138.58 2409.45"><defs><style>.cls-1{fill:#dee597;}.cls-2{fill:#90bf21;}.cls-3{fill:url(#linear-gradient);}.cls-4{fill:url(#linear-gradient-2);}.cls-5{fill:#1397d5;}.cls-6{fill:url(#linear-gradient-3);}.cls-7{fill:url(#linear-gradient-4);}.cls-8{fill:url(#linear-gradient-5);}.cls-9{fill:#91bf20;}</style><linearGradient id="linear-gradient" x1="1972.75" y1="700.57" x2="2650.01" y2="1162.34" gradientUnits="userSpaceOnUse"><stop offset="0" stop-color="#fff" stop-opacity="0.4"/><stop offset="1" stop-color="#fff" stop-opacity="0"/></linearGradient><linearGradient id="linear-gradient-2" x1="2037.58" y1="744.77" x2="2649.18" y2="1161.78" xlink:href="#linear-gradient"/><linearGradient id="linear-gradient-3" x1="1927.86" y1="1181.95" x2="1655.94" y2="745.84" xlink:href="#linear-gradient"/><linearGradient id="linear-gradient-4" x1="1799.04" y1="1262.28" x2="1527.11" y2="826.17" xlink:href="#linear-gradient"/><linearGradient id="linear-gradient-5" x1="2167.62" y1="310.78" x2="1945.7" y2="400.57" xlink:href="#linear-gradient"/></defs><title>MAPA IMPOSUR</title><path class="cls-1" d="M1301.88,1756v269.67h-48.56V1756Z"/><path class="cls-1" d="M1430.5,1756l56,138.82a417.74,417.74,0,0,1,19.64,60.42q3.9-16.12,7.23-26,3.35-10,13.53-35.4L1582.29,1756h69v269.67h-46.52V1864.37q0-28.72,2.78-66.16h-1.85a529.53,529.53,0,0,1-20.57,65.79l-62.83,161.62h-34.11l-64.49-165.32a376.87,376.87,0,0,1-17.8-61.91h-1.66q2.6,30.58,2.59,68.39v158.84H1361V1756Z"/><path class="cls-1" d="M1711.66,1756h87.11q33.36,0,50.78,5.56a75.13,75.13,0,0,1,37.35,26q14.36,18.62,14.36,47.17,0,25.76-12.88,44.94a70.35,70.35,0,0,1-35.12,27.34q-17.05,6.3-54.49,6.3H1760v112.32h-48.37ZM1760,1871.78h33.55q13,0,17.79-.55a73.83,73.83,0,0,0,17.43-3.43,35.52,35.52,0,0,0,12.5-7.32,32,32,0,0,0,8.07-11.49,36.78,36.78,0,0,0,2.78-14.27q0-12.79-7-22t-20.85-13.07q-9.64-2.79-32.44-2.78H1760Z"/><path class="cls-1" d="M2215,1893.28a139.24,139.24,0,0,1-13.91,61.17q-17.6,37.24-49.85,57.64t-77.84,20.38q-74.68,0-113.8-50-30.57-39.11-30.58-91,0-37.26,16.13-68.76a132.29,132.29,0,0,1,75.43-65.42q23-7.61,51.9-7.6,35,0,60.33,10.93a130.36,130.36,0,0,1,43.27,29.84,142.63,142.63,0,0,1,28.45,44.3Q2215,1860.12,2215,1893.28Zm-50.05-.74q0-28.35-12-51.24a82.69,82.69,0,0,0-34.47-35,97.93,97.93,0,0,0-47.26-12.14,93.56,93.56,0,0,0-46.34,12.23,85.17,85.17,0,0,0-33.82,34.1q-12,21.87-12,49.67,0,28.55,11.67,50.69a86.38,86.38,0,0,0,32.62,34.66q20.94,12.52,47.82,12.51,40.4,0,67.09-27.06T2165,1892.54Z"/><path class="cls-1" d="M2426.32,1778l-34.66,35.21a47.77,47.77,0,0,0-19.82-16,64.91,64.91,0,0,0-26.33-5.29q-22.23,0-34.28,10.39t-12.05,25a28.62,28.62,0,0,0,5.1,16.77q5.1,7.32,16,12.7,8.34,3.88,35,12.5t37.25,14.74a73.73,73.73,0,0,1,26.32,25.2q9.63,15.58,9.64,37.81,0,36.88-26.14,60.89t-73.95,24q-28.73,0-50.69-9.73t-36.42-26l36-34.85a64.42,64.42,0,0,0,23.91,21,66.3,66.3,0,0,0,30,7q21.67,0,34.38-11.12t12.69-26a31.53,31.53,0,0,0-5.19-18.07,35.89,35.89,0,0,0-14.27-12.14q-5.57-2.58-31.69-11.49t-34.47-12.79q-15-7.21-24.19-16.59a66.28,66.28,0,0,1-14.27-22.05,73.14,73.14,0,0,1-5.1-27.52q0-31.32,21.13-53.56,27.24-28.92,77.65-28.92,25.59,0,44.58,7.51A105.78,105.78,0,0,1,2426.32,1778Z"/><path class="cls-1" d="M2525.3,1756v152q0,21.67,1.66,30.58a63.42,63.42,0,0,0,10.29,24.65,52.92,52.92,0,0,0,21.12,17.88,63.1,63.1,0,0,0,27.71,6.4,62.15,62.15,0,0,0,26.6-5.84,53.2,53.2,0,0,0,20.57-16.68,60.92,60.92,0,0,0,10.84-23.26q2.23-9.63,2.23-32.25V1756h47.44v143.64q0,27.79-1.66,40-2.61,21.87-11,38.73a95.26,95.26,0,0,1-53.84,47.55q-17.61,6.19-42.81,6.21-26,0-47.17-8.9a89.48,89.48,0,0,1-35.22-26,102.25,102.25,0,0,1-19.74-37.62q-5.73-20.58-5.74-57.27V1756Z"/><path class="cls-1" d="M2800.89,1911.82v113.8h-48.38V1756H2840q28.17,0,44.67,3.15a82.34,82.34,0,0,1,31,12.79,64.75,64.75,0,0,1,22.05,25.39q7.78,15.77,7.78,36.14,0,20.76-8.06,37a63.9,63.9,0,0,1-23.63,26q-11.31,7.23-29.65,10.56l71.72,118.62H2898l-62.09-113.8Zm0-41.52h30.76q28.17,0,36.7-2.22,13.16-3.7,20.3-12.69t7.13-22q0-12.4-6.85-21.32t-19.1-12.41q-8.89-2.6-29.65-2.59h-39.29Z"/><path class="cls-2" d="M1897.45,624c249.81-12.77,359.17-219.35,496.44-257.75,147.85-41.38,270.88,96.45,313,222.14,140.11,418.4-174.12,960.75-640.08,943.75,361-123.65,632.06-537.83,496.78-923.16-34.49-95-100.39-154.65-189.55-107.62C2222.92,582,2076.11,673.92,1897.45,624Z"/><path class="cls-3" d="M2153.35,1513.21c164.9-79.12,306.09-218.61,387.29-386,82.73-170.58,96-356.42,37.42-523.31-31.44-86.67-82.57-134.34-144.06-134.34-21.7,0-44.29,6.13-67.18,18.22q-18,9.6-35.8,19.28c-109.86,59.39-213.64,115.51-330.79,115.73,103.72-29.27,179.68-90.94,248.59-146.88,53.52-43.45,99.75-81,149.22-94.83a183.77,183.77,0,0,1,49.42-6.91c112.51,0,208.34,110.24,244.82,219.13,70.07,209.27,26.48,460.37-113.83,655.29C2469.88,1399.45,2317.64,1493.43,2153.35,1513.21Z"/><path class="cls-4" d="M2692.28,593.28C2655.8,484.39,2560,374.15,2447.46,374.15a183.77,183.77,0,0,0-49.42,6.91c-49.47,13.86-95.7,51.38-149.22,94.83-32.72,26.54-67.05,54.34-105.15,79.42,33.6-16.46,65.12-34.68,95.36-52.23,59.66-34.57,111.16-64.44,162.19-70.39a183.57,183.57,0,0,1,49.89.87c111.17,17.55,188.6,141.37,207.65,254.62,36.61,217.64-45.63,458.85-214.58,629.53-56.82,57.4-120.1,102.86-187.06,135.47a802.37,802.37,0,0,1-103.77,60c164.29-19.78,316.53-113.76,425.1-264.64C2718.76,1053.65,2762.35,802.55,2692.28,593.28Z"/><path class="cls-5" d="M2205.32,635.54c-60.06,50-129.76,91.92-207,108.09-112.67,22.22-194.81-32.92-289.46-83.41-217.28-115.9-197.69,234.5-169.49,353.48,45.2,190.62,145.3,394.19,313.93,504.05,173.15,112.84,366.91,67,540.77-16.4-158.4,151.19-382.48,217.82-587.33,119-234-112.92-377.75-378.5-420.07-626.07-30.36-177.65-5-492.61,245.8-477.2,117.5,8.67,176.73,112.78,279.57,152.33C2008,706.29,2114,668.57,2205.32,635.54Z"/><path class="cls-6" d="M2009.24,1651.65c-67.77,0-133.65-15.18-195.78-45.16-246.29-118.85-374.11-395.52-411.58-614.82-22.35-130.74-10.64-303.29,65.9-394,36.8-43.61,86.32-65.72,147.23-65.72,5.41,0,11,.16,16.54.5,64.31,4.74,110.37,40.64,159.13,78.62,35.11,27.34,71.4,55.62,115.86,72.71,28,10.78,58.89,16.25,91.77,16.25h0c37.94,0,76.49-7.27,113.35-17.33-39.06,22.48-78,37.84-116.47,45.89a249.06,249.06,0,0,1-47.69,4.74c-72.59,0-134.81-34-200.69-70q-15.18-8.32-30.67-16.65c-31.09-16.57-59.53-25-84.57-25-31.81,0-58.22,13-78.53,38.73-65.17,82.44-47,279.58-28.61,356.87,54.28,228.92,171.09,416.05,320.49,513.4,70.95,46.24,150.61,69.67,236.78,69.67,67.38,0,139.33-13.93,217.92-42.33-90.1,60.9-190.42,93.65-290.34,93.66Z"/><path class="cls-7" d="M2025.2,1624.9h0c-67.75-2.64-133-20.4-193.88-52.79C1589.81,1443.74,1472.91,1162.3,1444,941.72c-17.08-130.45,1-300.63,79.32-389a181.44,181.44,0,0,0-55.56,44.88c-76.54,90.74-88.25,263.29-65.9,394,37.47,219.3,165.29,496,411.58,614.82,62.13,30,128,45.16,195.78,45.16h0c99.92,0,200.24-32.76,290.34-93.66-6.43,2.31-12.72,4.38-19,6.52C2198.82,1607.21,2111.4,1628.26,2025.2,1624.9Z"/><path class="cls-2" d="M2175.76,302.76c-.24-2.73-1-22.61-2.54-22.75-10-.91-20-1.89-30-2.72-47.66-3.94-96-3.37-143.28,4.31-46,7.42-92.9,21.89-130.24,50.69s-59.18,71.13-57.13,118.62c2,46.58,25.6,90.9,54.51,126.41-10.86-36.9-21.74-75.78-18.63-114.65,2.8-35.22,19.47-64.62,49.11-84.13,31.57-20.78,70.29-29.94,107.15-35.73,37.75-5.91,76-7.88,114.2-8.22-5,21.65-23.65,36.92-40.67,49.56-20.43,15.16-42.43,28.15-63.14,42.93-39.34,28.08-76,64.28-84.4,113.93,30-55.76,88.49-78.63,142.84-104,27.27-12.72,55.05-27.09,75.46-49.77C2170,364,2178.59,333.7,2175.76,302.76Z"/><path class="cls-8" d="M1848.1,536.82c-14.47-24.57-26.46-54.22-27.84-86.24-1.86-43.32,17.86-84.21,54.14-112.21,31.65-24.43,73.13-40.51,126.78-49.19a540.76,540.76,0,0,1,85.77-6.6c17.9,0,36.62.79,55.63,2.38,7,.58,14,1.23,21,1.88l3.35.31c.4,4.23.75,10.24.92,12.72.08,1.72.16,3,.22,3.58,2.74,29.94-6.09,57.85-24.83,78.66-19.94,22.12-48.12,36.36-73,47.95q-7.08,3.29-14.27,6.57c-35.11,16.13-71.08,32.64-99.34,58.78,13.59-21.29,34.29-41.65,62.89-62.07,9.25-6.58,18.94-12.95,28.34-19.12,11.58-7.6,23.53-15.45,34.91-23.9,18.18-13.49,38-29.9,43.6-54l2.19-9.51-9.75.11c-45.12.4-81.77,3-115.33,8.32-33.1,5.19-75.51,14.07-110.2,36.88-31.32,20.63-49.49,51.73-52.56,89.95C1838.79,487.05,1842.18,511.5,1848.1,536.82Z"/><path class="cls-9" d="M1317.56,1759.66v269.66H1269V1759.66Z"/><path class="cls-9" d="M1446.18,1759.66l56,138.81a417,417,0,0,1,19.65,60.42q3.89-16.12,7.23-25.94,3.33-10,13.53-35.4L1598,1759.66h69v269.66H1620.4V1868.08q0-28.72,2.78-66.17h-1.85a529.23,529.23,0,0,1-20.58,65.8l-62.83,161.61h-34.1L1439.32,1864a375.5,375.5,0,0,1-17.79-61.9h-1.67q2.6,30.57,2.6,68.38v158.84h-45.78V1759.66Z"/><path class="cls-9" d="M1727.34,1759.66h87.11q33.36,0,50.78,5.55a75.21,75.21,0,0,1,37.35,26q14.36,18.62,14.36,47.16,0,25.77-12.88,44.95a70.32,70.32,0,0,1-35.12,27.33q-17.06,6.32-54.49,6.31h-38.74v112.31h-48.37Zm48.37,115.83h33.55q13,0,17.79-.55a74.31,74.31,0,0,0,17.42-3.44,35.33,35.33,0,0,0,12.51-7.32,31.88,31.88,0,0,0,8.06-11.49,36.56,36.56,0,0,0,2.78-14.27q0-12.78-7-22T1840,1803.4q-9.63-2.79-32.43-2.79h-31.88Z"/><path class="cls-9" d="M2230.72,1897a139.2,139.2,0,0,1-13.91,61.16q-17.59,37.24-49.85,57.64t-77.84,20.39q-74.7,0-113.8-50-30.58-39.11-30.58-91,0-37.26,16.13-68.76A132.26,132.26,0,0,1,2036.3,1761q23-7.6,51.9-7.6,35,0,60.32,10.94a130.3,130.3,0,0,1,43.28,29.84,142.46,142.46,0,0,1,28.45,44.29Q2230.72,1863.81,2230.72,1897Zm-50-.74q0-28.35-12.05-51.25a82.72,82.72,0,0,0-34.46-35,98,98,0,0,0-47.27-12.14,93.46,93.46,0,0,0-46.33,12.24,85.11,85.11,0,0,0-33.82,34.1q-12,21.87-12,49.67,0,28.54,11.68,50.69a86.35,86.35,0,0,0,32.62,34.65q20.94,12.52,47.81,12.52,40.41,0,67.09-27.06T2180.67,1896.25Z"/><path class="cls-9" d="M2442,1781.71l-34.66,35.22a47.76,47.76,0,0,0-19.83-16,64.83,64.83,0,0,0-26.32-5.28q-22.23,0-34.28,10.38t-12,25a28.59,28.59,0,0,0,5.09,16.77q5.1,7.34,16,12.7,8.33,3.88,35,12.51t37.25,14.73a73.75,73.75,0,0,1,26.32,25.21q9.63,15.57,9.64,37.81,0,36.88-26.14,60.88t-74,24q-28.72,0-50.69-9.73t-36.42-26l36-34.84A64.39,64.39,0,0,0,2316.9,1986a66.16,66.16,0,0,0,30,7q21.69,0,34.38-11.12t12.7-25.94a31.53,31.53,0,0,0-5.19-18.07,35.73,35.73,0,0,0-14.27-12.14q-5.57-2.6-31.7-11.49t-34.47-12.79q-15-7.23-24.18-16.59a66.38,66.38,0,0,1-14.27-22,73.16,73.16,0,0,1-5.1-27.53q0-31.32,21.12-53.56,27.26-28.9,77.66-28.91,25.58,0,44.57,7.5A105.89,105.89,0,0,1,2442,1781.71Z"/><path class="cls-9" d="M2541,1759.66v152q0,21.69,1.67,30.58a63.15,63.15,0,0,0,10.29,24.65,53,53,0,0,0,21.12,17.89,63.05,63.05,0,0,0,27.71,6.39,62.1,62.1,0,0,0,26.59-5.84,53.15,53.15,0,0,0,20.58-16.68,61.07,61.07,0,0,0,10.84-23.26q2.22-9.63,2.23-32.25V1759.66h47.44v143.63q0,27.81-1.66,40-2.61,21.89-11,38.74a95.26,95.26,0,0,1-53.85,47.54q-17.59,6.21-42.81,6.21-26,0-47.16-8.9a89.41,89.41,0,0,1-35.22-26,102,102,0,0,1-19.74-37.62q-5.74-20.56-5.74-57.27V1759.66Z"/><path class="cls-9" d="M2816.56,1915.52v113.8h-48.37V1759.66h87.48q28.17,0,44.67,3.14a82.09,82.09,0,0,1,30.95,12.8,64.46,64.46,0,0,1,22.05,25.39q7.78,15.75,7.79,36.14,0,20.76-8.06,37a64,64,0,0,1-23.63,26q-11.31,7.23-29.66,10.56l71.73,118.62h-57.83l-62.09-113.8Zm0-41.51h30.77q28.17,0,36.7-2.23,13.16-3.69,20.29-12.69t7.14-22q0-12.42-6.86-21.32t-19.09-12.41q-8.9-2.6-29.65-2.6h-39.3Z"/></svg>