<svg id="Capa_1" data-name="Capa 1" xmlns="http://www.w3.org/2000/svg" xmlns:xlink="http://www.w3.org/1999/xlink" viewBox="0 0 4138.58 2409.45"><defs><style>.cls-1{fill:#1397d5;}.cls-2{font-size:432.85px;fill:#1d1d1b;font-family:MyriadPro-Regular, Myriad Pro;}.cls-3{fill:#90bf21;}.cls-4{fill:url(#linear-gradient);}.cls-5{fill:url(#linear-gradient-2);}.cls-6{fill:url(#linear-gradient-3);}.cls-7{fill:url(#linear-gradient-4);}.cls-8{fill:url(#linear-gradient-5);}</style><linearGradient id="linear-gradient" x1="1829.25" y1="681.69" x2="2359.43" y2="1043.17" gradientUnits="userSpaceOnUse"><stop offset="0" stop-color="#fff" stop-opacity="0.4"/><stop offset="1" stop-color="#fff" stop-opacity="0"/></linearGradient><linearGradient id="linear-gradient-2" x1="1880" y1="716.29" x2="2358.79" y2="1042.73" xlink:href="#linear-gradient"/><linearGradient id="linear-gradient-3" x1="1794.11" y1="1058.53" x2="1581.24" y2="717.13" xlink:href="#linear-gradient"/><linearGradient id="linear-gradient-4" x1="1693.26" y1="1121.41" x2="1480.39" y2="780.01" xlink:href="#linear-gradient"/><linearGradient id="linear-gradient-5" x1="1981.8" y1="376.55" x2="1808.08" y2="446.84" xlink:href="#linear-gradient"/></defs><title>MAPA IMPOSUR</title><circle class="cls-1" cx="1896.37" cy="1633.5" r="137.61"/><text class="cls-2" transform="translate(939.28 2161.26)">Barranquilla</text><path class="cls-3" d="M1770.31,621.74c195.56-10,281.17-171.71,388.62-201.77,115.74-32.4,212.06,75.5,245,173.9,109.68,327.54-136.31,752.11-501.08,738.8,282.61-96.8,494.8-421,388.9-722.68-27-74.4-78.6-121.07-148.39-84.25C2025.1,588.86,1910.16,660.83,1770.31,621.74Z"/><path class="cls-4" d="M1970.63,1317.85c129.09-61.94,239.62-171.14,303.19-302.19,64.76-133.54,75.17-279,29.29-409.66-24.61-67.85-64.64-105.17-112.78-105.17-17,0-34.67,4.8-52.59,14.26q-14.07,7.51-28,15.1c-86,46.49-167.25,90.42-258.95,90.59,81.19-22.91,140.66-71.19,194.6-115,41.9-34,78.08-63.39,116.81-74.24a144.08,144.08,0,0,1,38.69-5.41c88.08,0,163.1,86.3,191.65,171.55,54.86,163.82,20.73,360.39-89.11,513C2218.42,1228.79,2099.24,1302.36,1970.63,1317.85Z"/><path class="cls-5" d="M2392.52,597.7C2364,512.45,2289,426.15,2200.87,426.15a144.08,144.08,0,0,0-38.69,5.41c-38.73,10.85-74.91,40.22-116.81,74.24-25.61,20.78-52.49,42.54-82.32,62.17,26.31-12.89,51-27.15,74.66-40.88,46.7-27.07,87-50.45,127-55.11a144,144,0,0,1,39.06.68c87,13.74,147.64,110.67,162.55,199.33,28.66,170.37-35.71,359.2-168,492.81-44.47,44.94-94,80.53-146.43,106.06a628.8,628.8,0,0,1-81.24,47c128.61-15.49,247.79-89.06,332.78-207.17C2413.25,958.09,2447.38,761.52,2392.52,597.7Z"/><path class="cls-1" d="M2011.31,630.78c-47,39.14-101.57,72-162,84.61-88.2,17.4-152.5-25.77-226.6-65.29C1452.6,559.37,1467.93,833.67,1490,926.82c35.39,149.22,113.75,308.58,245.75,394.58,135.56,88.34,287.24,52.43,423.34-12.84-124,118.36-299.42,170.52-459.79,93.15-183.19-88.4-295.71-296.31-328.84-490.12C1346.71,772.52,1366.53,526,1562.89,538c92,6.78,138.36,88.29,218.86,119.24C1856.84,686.17,1939.83,656.63,2011.31,630.78Z"/><path class="cls-6" d="M1857.81,1426.23a350,350,0,0,1-153.25-35.36c-192.81-93-292.87-309.63-322.21-481.3-17.49-102.35-8.32-237.43,51.59-308.46,28.81-34.14,67.57-51.45,115.26-51.45,4.23,0,8.58.12,13,.4,50.34,3.7,86.4,31.8,124.57,61.54,27.49,21.4,55.89,43.54,90.7,56.92,21.92,8.44,46.1,12.72,71.84,12.72h0c29.7,0,59.88-5.69,88.73-13.57-30.57,17.6-61.08,29.63-91.17,35.93a195.39,195.39,0,0,1-37.33,3.71c-56.83,0-105.54-26.64-157.12-54.82-7.92-4.34-15.9-8.7-24-13-24.33-13-46.6-19.56-66.19-19.56-24.91,0-45.58,10.21-61.48,30.32-51,64.54-36.75,218.87-22.4,279.37,42.49,179.21,133.94,325.7,250.89,401.91,55.54,36.2,117.9,54.54,185.36,54.54,52.75,0,109.07-10.9,170.6-33.14-70.54,47.68-149.07,73.32-227.29,73.33Z"/><path class="cls-7" d="M1870.31,1405.28h0A350.08,350.08,0,0,1,1718.5,1364c-189-100.49-280.54-320.81-303.16-493.49-13.37-102.12.75-235.35,62.1-304.5a142.09,142.09,0,0,0-43.5,35.14c-59.91,71-69.08,206.11-51.59,308.46,29.34,171.67,129.4,388.26,322.21,481.3a350,350,0,0,0,153.25,35.36h0c78.22,0,156.75-25.65,227.29-73.33-5,1.82-10,3.43-14.91,5.11C2006.22,1391.43,1937.79,1407.92,1870.31,1405.28Z"/><path class="cls-3" d="M1988.18,370.27c-.19-2.14-.78-17.7-2-17.81-7.81-.72-15.64-1.48-23.48-2.13-37.31-3.09-75.15-2.64-112.17,3.37-36,5.81-72.72,17.13-102,39.68s-46.33,55.69-44.72,92.86c1.57,36.47,20,71.17,42.67,99-8.5-28.89-17-59.32-14.59-89.75,2.2-27.57,15.25-50.59,38.45-65.86,24.71-16.27,55-23.43,83.88-28,29.55-4.62,59.53-6.17,89.4-6.44-3.89,16.95-18.51,28.9-31.83,38.8-16,11.87-33.22,22-49.44,33.61-30.79,22-59.51,50.32-66.07,89.19,23.45-43.66,69.28-61.56,111.82-81.4,21.35-10,43.1-21.21,59.08-39C1983.64,418.22,1990.39,394.48,1988.18,370.27Z"/><path class="cls-8" d="M1731.67,553.49c-11.33-19.22-20.71-42.44-21.8-67.51-1.45-33.91,14-65.92,42.39-87.84,24.78-19.12,57.25-31.71,99.25-38.5a422.36,422.36,0,0,1,67.14-5.17c14,0,28.67.62,43.55,1.86,5.49.45,11,1,16.47,1.47l2.62.25c.32,3.31.59,8,.72,9.95.07,1.35.13,2.36.17,2.81,2.15,23.44-4.76,45.29-19.44,61.57-15.6,17.32-37.67,28.47-57.14,37.54-3.69,1.72-7.42,3.43-11.16,5.15-27.49,12.62-55.65,25.55-77.77,46,10.64-16.67,26.85-32.6,49.23-48.59,7.24-5.16,14.83-10.14,22.19-15,9.06-5.95,18.42-12.1,27.32-18.71,14.24-10.56,29.79-23.41,34.14-42.28l1.71-7.46-7.63.09c-35.32.31-64,2.38-90.28,6.52-25.91,4.06-59.12,11-86.27,28.87-24.52,16.14-38.75,40.49-41.15,70.41C1724.39,514.54,1727,533.67,1731.67,553.49Z"/></svg>