<svg id="Capa_1" data-name="Capa 1" xmlns="http://www.w3.org/2000/svg" xmlns:xlink="http://www.w3.org/1999/xlink" viewBox="0 0 4138.58 2409.45"><defs><style>.cls-1{fill:#1397d5;}.cls-2{font-size:441.36px;fill:#1d1d1b;font-family:MyriadPro-Regular, Myriad Pro;}.cls-3{fill:#90bf21;}.cls-4{fill:url(#linear-gradient);}.cls-5{fill:url(#linear-gradient-2);}.cls-6{fill:url(#linear-gradient-3);}.cls-7{fill:url(#linear-gradient-4);}.cls-8{fill:url(#linear-gradient-5);}</style><linearGradient id="linear-gradient" x1="1857.66" y1="646.84" x2="2408.07" y2="1022.12" gradientUnits="userSpaceOnUse"><stop offset="0" stop-color="#fff" stop-opacity="0.4"/><stop offset="1" stop-color="#fff" stop-opacity="0"/></linearGradient><linearGradient id="linear-gradient-2" x1="1911.75" y1="683.72" x2="2407.38" y2="1021.65" xlink:href="#linear-gradient"/><linearGradient id="linear-gradient-3" x1="1815.43" y1="1036.62" x2="1596.21" y2="685.03" xlink:href="#linear-gradient"/><linearGradient id="linear-gradient-4" x1="1714.26" y1="1099.7" x2="1495.03" y2="748.12" xlink:href="#linear-gradient"/><linearGradient id="linear-gradient-5" x1="2013.34" y1="337.73" x2="1831.89" y2="411.15" xlink:href="#linear-gradient"/></defs><title>MAPA IMPOSUR</title><ellipse class="cls-1" cx="1924.5" cy="1607.07" rx="144.63" ry="140.32"/><text class="cls-2" transform="translate(731.1 2181.41) scale(1.03 1)">Bucaramanga</text><path class="cls-3" d="M1792,589.63c205.54-10.2,295.51-175.1,408.45-205.75,121.65-33,222.87,77,257.5,177.32,115.28,334-143.26,766.91-526.64,753.34,297-98.7,520.05-429.32,408.74-736.9-28.37-75.86-82.6-123.45-156-85.91C2059.79,556.09,1939,629.48,1792,589.63Z"/><path class="cls-4" d="M2002.55,1299.43c135.67-63.16,251.84-174.51,318.65-308.14,68.06-136.16,79-284.51,30.78-417.72-25.86-69.19-67.94-107.24-118.53-107.24-17.85,0-36.44,4.89-55.27,14.54q-14.79,7.67-29.45,15.4c-90.39,47.4-175.78,92.2-272.17,92.37,85.34-23.36,147.84-72.59,204.54-117.24,44-34.69,82.06-64.64,122.77-75.7a155.71,155.71,0,0,1,40.66-5.51c92.57,0,171.42,88,201.43,174.91,57.65,167,21.79,367.49-93.66,523.09C2263,1208.62,2137.72,1283.63,2002.55,1299.43Z"/><path class="cls-5" d="M2446,565.1c-30-86.92-108.86-174.91-201.43-174.91a155.71,155.71,0,0,0-40.66,5.51c-40.71,11.06-78.74,41-122.77,75.7-26.92,21.19-55.17,43.38-86.52,63.39,27.64-13.14,53.57-27.68,78.46-41.69,49.08-27.59,91.46-51.43,133.44-56.19a156.32,156.32,0,0,1,41.05.7c91.47,14,155.17,112.85,170.85,203.25,30.12,173.72-37.54,366.27-176.55,502.51-46.75,45.82-98.81,82.11-153.91,108.14a666.73,666.73,0,0,1-85.37,47.92c135.17-15.8,260.42-90.81,349.75-211.24C2467.75,932.59,2503.61,732.15,2446,565.1Z"/><path class="cls-1" d="M2045.3,598.84c-49.41,39.91-106.76,73.37-170.29,86.28-92.7,17.73-160.28-26.28-238.15-66.58C1458.09,526,1474.2,805.73,1497.4,900.7c37.2,152.16,119.55,314.66,258.29,402.35,142.47,90.08,301.89,53.46,444.94-13.09-130.33,120.68-314.7,173.87-483.25,95-192.53-90.14-310.79-302.13-345.61-499.75-25-141.81-4.14-393.22,202.23-380.92,96.68,6.92,145.41,90,230,121.59C1882.94,655.32,1970.17,625.2,2045.3,598.84Z"/><path class="cls-6" d="M1884,1409.94a377.32,377.32,0,0,1-161.08-36.06c-202.64-94.87-307.8-315.71-338.64-490.77-18.38-104.36-8.75-242.09,54.22-314.52,30.28-34.82,71-52.47,121.14-52.47,4.45,0,9,.13,13.61.41,52.92,3.78,90.81,32.43,130.93,62.75,28.89,21.83,58.74,44.4,95.32,58,23,8.61,48.45,13,75.51,13h0c31.22,0,62.93-5.8,93.26-13.84-32.13,18-64.2,30.22-95.83,36.64a211.19,211.19,0,0,1-39.23,3.79c-59.73,0-110.92-27.17-165.13-55.9q-12.48-6.65-25.23-13.29c-25.58-13.23-49-19.94-69.58-19.94-26.17,0-47.9,10.41-64.61,30.92-53.62,65.8-38.63,223.17-23.55,284.86,44.66,182.73,140.78,332.11,263.7,409.82,58.37,36.91,123.91,55.61,194.81,55.61,55.44,0,114.64-11.12,179.3-33.79-74.14,48.62-156.67,74.76-238.88,74.77Z"/><path class="cls-7" d="M1897.1,1388.58h0a376.82,376.82,0,0,1-159.52-42.13C1538.88,1244,1442.7,1019.32,1418.93,843.24c-14.06-104.13.78-240,65.26-310.48a148.54,148.54,0,0,0-45.72,35.83c-63,72.43-72.6,210.16-54.22,314.52,30.84,175.06,136,395.9,338.64,490.77A377.32,377.32,0,0,0,1884,1409.94h0c82.21,0,164.74-26.15,238.88-74.77-5.29,1.85-10.47,3.49-15.66,5.2C2040,1374.46,1968,1391.27,1897.1,1388.58Z"/><path class="cls-3" d="M2021,333.2c-.2-2.18-.82-18.05-2.09-18.16-8.21-.73-16.44-1.51-24.68-2.17-39.22-3.15-79-2.69-117.89,3.44-37.84,5.92-76.43,17.47-107.16,40.46s-48.69,56.78-47,94.69c1.65,37.18,21.06,72.56,44.85,100.9-8.94-29.45-17.89-60.48-15.33-91.52,2.31-28.11,16-51.58,40.41-67.15,26-16.59,57.83-23.89,88.16-28.52,31.06-4.72,62.56-6.29,94-6.57-4.1,17.29-19.46,29.48-33.46,39.57-16.82,12.1-34.91,22.47-52,34.27-32.36,22.41-62.54,51.31-69.44,90.94,24.65-44.51,72.81-62.77,117.53-83,22.43-10.15,45.29-21.63,62.08-39.73C2016.21,382.1,2023.31,357.89,2021,333.2Z"/><path class="cls-8" d="M1751.39,520c-11.91-19.6-21.77-43.27-22.91-68.83-1.52-34.59,14.7-67.23,44.55-89.58,26-19.49,60.17-32.33,104.31-39.26a458.39,458.39,0,0,1,70.57-5.27c14.73,0,30.13.63,45.77,1.9,5.77.46,11.53,1,17.31,1.5l2.76.25c.33,3.38.62,8.17.76,10.15.06,1.37.13,2.4.17,2.86,2.26,23.9-5,46.18-20.43,62.79-16.4,17.66-39.59,29-60,38.28q-5.82,2.63-11.74,5.24c-28.88,12.87-58.48,26.05-81.73,46.92,11.18-17,28.21-33.24,51.74-49.55,7.61-5.25,15.59-10.33,23.32-15.26,9.53-6.07,19.36-12.33,28.72-19.07,15-10.78,31.3-23.88,35.88-43.12l1.79-7.6-8,.09c-37.13.32-67.28,2.42-94.9,6.64-27.23,4.14-62.13,11.23-90.66,29.44-25.77,16.46-40.73,41.29-43.25,71.8C1743.74,480.31,1746.53,499.82,1751.39,520Z"/></svg>