<svg id="Capa_1" data-name="Capa 1" xmlns="http://www.w3.org/2000/svg" xmlns:xlink="http://www.w3.org/1999/xlink" viewBox="0 0 4138.58 2409.45"><defs><style>.cls-1{font-size:450.75px;fill:#1d1d1b;font-family:MyriadPro-Regular, Myriad Pro;letter-spacing:-0.01em;}.cls-2{letter-spacing:0em;}.cls-3{fill:#1397d5;}.cls-4{fill:#90bf21;}.cls-5{fill:url(#linear-gradient);}.cls-6{fill:url(#linear-gradient-2);}.cls-7{fill:url(#linear-gradient-3);}.cls-8{fill:url(#linear-gradient-4);}.cls-9{fill:url(#linear-gradient-5);}</style><linearGradient id="linear-gradient" x1="1853.52" y1="649.86" x2="2405.64" y2="1026.3" gradientUnits="userSpaceOnUse"><stop offset="0" stop-color="#fff" stop-opacity="0.4"/><stop offset="1" stop-color="#fff" stop-opacity="0"/></linearGradient><linearGradient id="linear-gradient-2" x1="1906.37" y1="685.89" x2="2404.96" y2="1025.84" xlink:href="#linear-gradient"/><linearGradient id="linear-gradient-3" x1="1816.93" y1="1042.29" x2="1595.25" y2="686.77" xlink:href="#linear-gradient"/><linearGradient id="linear-gradient-4" x1="1711.91" y1="1107.77" x2="1490.23" y2="752.25" xlink:href="#linear-gradient"/><linearGradient id="linear-gradient-5" x1="2012.38" y1="332.09" x2="1831.47" y2="405.29" xlink:href="#linear-gradient"/></defs><title>MAPA IMPOSUR</title><text class="cls-1" transform="translate(1539.64 2106.61)">C<tspan class="cls-2" x="258.73" y="0">ali </tspan></text><circle class="cls-3" cx="1914.23" cy="1615.83" r="143.3"/><path class="cls-4" d="M1792.14,587.44c203.65-10.42,292.8-178.83,404.7-210.13,120.53-33.73,220.83,78.63,255.14,181.1C2566.2,899.5,2310,1341.63,1930.17,1327.77c294.31-100.8,515.28-438.45,405-752.58-28.11-77.47-81.84-126.07-154.53-87.73C2057.47,553.19,1937.78,628.14,1792.14,587.44Z"/><path class="cls-5" d="M2000.75,1312.34c134.43-64.5,249.53-178.22,315.73-314.69C2383.92,858.59,2394.76,707.09,2347,571c-25.64-70.66-67.32-109.52-117.45-109.52-17.69,0-36.11,5-54.76,14.85-9.78,5.22-19.48,10.47-29.19,15.72-89.56,48.41-174.16,94.16-269.66,94.34,84.55-23.86,146.47-74.13,202.65-119.74,43.63-35.42,81.31-66,121.64-77.31a150,150,0,0,1,40.29-5.63c91.73,0,169.85,89.87,199.58,178.64,57.13,170.61,21.59,375.31-92.79,534.21C2258.79,1219.6,2134.68,1296.21,2000.75,1312.34Z"/><path class="cls-6" d="M2440.09,562.39c-29.73-88.77-107.85-178.64-199.58-178.64a150,150,0,0,0-40.29,5.63c-40.33,11.3-78,41.89-121.64,77.31-26.67,21.64-54.66,44.31-85.72,64.75,27.39-13.42,53.08-28.27,77.74-42.58,48.63-28.18,90.62-52.53,132.22-57.39a150.17,150.17,0,0,1,40.67.71c90.63,14.31,153.75,115.26,169.28,207.58,29.85,177.42-37.19,374.07-174.93,513.2-46.32,46.8-97.91,83.86-152.49,110.44a654.52,654.52,0,0,1-84.6,48.94c133.93-16.13,258-92.74,346.55-215.74C2461.68,937.7,2497.22,733,2440.09,562.39Z"/><path class="cls-3" d="M2043.11,596.84c-49,40.77-105.78,74.94-168.72,88.12-91.85,18.11-158.82-26.84-236-68-177.13-94.48-161.17,191.18-138.18,288.17,36.85,155.4,118.46,321.35,255.92,410.91,141.16,92,299.12,54.6,440.85-13.37-129.13,123.25-311.8,177.57-478.8,97-190.78-92.06-308-308.57-342.45-510.39-24.75-144.83-4.1-401.59,200.38-389,95.79,7.06,144.08,91.94,227.91,124.17C1882.25,654.52,1968.67,623.77,2043.11,596.84Z"/><path class="cls-7" d="M1883.26,1425.2a364.53,364.53,0,0,1-159.59-36.82c-200.79-96.89-305-322.43-335.54-501.21-18.22-106.59-8.67-247.25,53.72-321.22,30-35.56,70.37-53.58,120-53.58,4.41,0,8.94.13,13.48.41,52.43,3.86,90,33.12,129.74,64.09,28.61,22.29,58.2,45.34,94.44,59.28,22.83,8.78,48,13.24,74.82,13.24h0c30.93,0,62.35-5.93,92.4-14.13-31.84,18.33-63.61,30.85-95,37.42a202.63,202.63,0,0,1-38.87,3.86c-59.18,0-109.9-27.74-163.62-57.09q-12.36-6.76-25-13.56c-25.34-13.51-48.53-20.37-68.94-20.37-25.93,0-47.46,10.63-64,31.57C1458.23,684.3,1473.09,845,1488,908c44.25,186.62,139.48,339.18,261.27,418.54,57.84,37.69,122.78,56.79,193,56.79,54.93,0,113.58-11.35,177.65-34.51-73.45,49.66-155.23,76.35-236.69,76.36Z"/><path class="cls-8" d="M1896.28,1403.39h0c-55.22-2.15-108.38-16.63-158-43-196.85-104.65-292.15-334.09-315.7-513.91-13.93-106.35.77-245.08,64.66-317.09a148,148,0,0,0-45.3,36.59c-62.39,74-71.94,214.63-53.72,321.22,30.55,178.78,134.75,404.32,335.54,501.21a364.53,364.53,0,0,0,159.59,36.82h0c81.46,0,163.24-26.7,236.69-76.36-5.24,1.89-10.37,3.57-15.52,5.32C2037.81,1389,1966.55,1406.14,1896.28,1403.39Z"/><path class="cls-4" d="M2019,325.56c-.2-2.23-.81-18.44-2.08-18.55-8.13-.75-16.29-1.54-24.45-2.22-38.85-3.21-78.26-2.74-116.81,3.51-37.49,6.05-75.73,17.84-106.17,41.32s-48.24,58-46.57,96.71c1.63,38,20.87,74.11,44.43,103.05-8.85-30.08-17.72-61.78-15.19-93.47,2.29-28.71,15.88-52.67,40-68.58,25.74-16.94,57.31-24.4,87.35-29.12,30.78-4.82,62-6.43,93.1-6.71-4.05,17.65-19.27,30.1-33.15,40.41-16.66,12.35-34.59,22.94-51.48,35-32.07,22.89-62,52.41-68.8,92.88,24.42-45.46,72.14-64.1,116.44-84.76,22.24-10.37,44.89-22.1,61.52-40.58C2014.29,375.49,2021.32,350.77,2019,325.56Z"/><path class="cls-9" d="M1751.9,516.36c-11.8-20-21.57-44.2-22.7-70.3-1.51-35.32,14.56-68.65,44.14-91.48,25.8-19.91,59.62-33,103.36-40.1a441.25,441.25,0,0,1,69.92-5.38c14.59,0,29.85.65,45.35,1.94,5.72.47,11.42,1,17.15,1.53l2.73.26c.33,3.45.62,8.35.75,10.37.07,1.4.13,2.45.18,2.92,2.23,24.4-5,47.16-20.24,64.12-16.25,18-39.23,29.64-59.51,39.09-3.84,1.79-7.73,3.57-11.63,5.36-28.62,13.14-57.94,26.61-81,47.91,11.08-17.35,27.95-33.94,51.27-50.6,7.54-5.36,15.44-10.55,23.1-15.58,9.44-6.2,19.18-12.6,28.46-19.48,14.82-11,31-24.38,35.55-44l1.78-7.76-7.95.09c-36.78.32-66.66,2.48-94,6.79-27,4.23-61.56,11.47-89.84,30.06-25.53,16.82-40.34,42.17-42.84,73.33C1744.32,475.79,1747.08,495.72,1751.9,516.36Z"/></svg>