<svg id="Capa_1" data-name="Capa 1" xmlns="http://www.w3.org/2000/svg" xmlns:xlink="http://www.w3.org/1999/xlink" viewBox="0 0 4138.58 2409.45"><defs><style>.cls-1{fill:#1397d5;}.cls-2{font-size:442.86px;fill:#1d1d1b;font-family:MyriadPro-Regular, Myriad Pro;}.cls-3{letter-spacing:0.01em;}.cls-4{fill:#90bf21;}.cls-5{fill:url(#linear-gradient);}.cls-6{fill:url(#linear-gradient-2);}.cls-7{fill:url(#linear-gradient-3);}.cls-8{fill:url(#linear-gradient-4);}.cls-9{fill:url(#linear-gradient-5);}</style><linearGradient id="linear-gradient" x1="1850.82" y1="650.04" x2="2393.26" y2="1019.89" gradientUnits="userSpaceOnUse"><stop offset="0" stop-color="#fff" stop-opacity="0.4"/><stop offset="1" stop-color="#fff" stop-opacity="0"/></linearGradient><linearGradient id="linear-gradient-2" x1="1902.74" y1="685.44" x2="2392.6" y2="1019.44" xlink:href="#linear-gradient"/><linearGradient id="linear-gradient-3" x1="1814.87" y1="1035.6" x2="1597.07" y2="686.3" xlink:href="#linear-gradient"/><linearGradient id="linear-gradient-4" x1="1711.69" y1="1099.93" x2="1493.89" y2="750.64" xlink:href="#linear-gradient"/><linearGradient id="linear-gradient-5" x1="2006.9" y1="337.84" x2="1829.15" y2="409.76" xlink:href="#linear-gradient"/></defs><title>MAPA IMPOSUR</title><circle class="cls-1" cx="1930.6" cy="1641.03" r="140.79"/><text class="cls-2" transform="translate(1068.25 2164.84)"><tspan class="cls-3">M</tspan><tspan x="358.71" y="0">edellín </tspan></text><path class="cls-4" d="M1790.51,588.71c200.08-10.23,287.67-175.69,397.61-206.44,118.42-33.14,217,77.25,250.67,177.92,112.22,335.12-139.46,769.5-512.66,755.89,289.15-99,506.24-430.77,397.89-739.4-27.62-76.11-80.41-123.87-151.82-86.2C2051.19,555.06,1933.6,628.7,1790.51,588.71Z"/><path class="cls-5" d="M1995.47,1300.91c132.07-63.37,245.16-175.09,310.2-309.17,66.25-136.63,76.91-285.48,30-419.14C2310.46,503.18,2269.5,465,2220.25,465c-17.38,0-35.47,4.91-53.8,14.59q-14.4,7.7-28.68,15.44c-88,47.57-171.11,92.52-264.94,92.69,83.07-23.44,143.91-72.83,199.11-117.64,42.86-34.8,79.88-64.85,119.51-75.95A147.09,147.09,0,0,1,2231,388.6c90.12,0,166.87,88.29,196.09,175.51,56.12,167.61,21.21,368.72-91.18,524.85C2249,1209.8,2127.05,1285.07,1995.47,1300.91Z"/><path class="cls-6" d="M2427.12,564.11c-29.22-87.22-106-175.51-196.09-175.51a147.09,147.09,0,0,0-39.58,5.53c-39.63,11.1-76.65,41.15-119.51,75.95-26.21,21.26-53.71,43.53-84.22,63.61,26.91-13.18,52.15-27.77,76.38-41.83,47.77-27.69,89-51.61,129.9-56.38a147.29,147.29,0,0,1,39.95.7C2323,450.23,2385,549.41,2400.27,640.12c29.32,174.31-36.54,367.51-171.87,504.21-45.5,46-96.19,82.38-149.82,108.5a641,641,0,0,1-83.11,48.08c131.58-15.84,253.52-91.11,340.47-212C2448.33,932.83,2483.24,731.72,2427.12,564.11Z"/><path class="cls-1" d="M2037.09,598c-48.1,40-103.93,73.62-165.77,86.58-90.24,17.79-156-26.37-231.83-66.81-174-92.82-158.35,187.82-135.76,283.12,36.21,152.67,116.38,315.72,251.44,403.71,138.69,90.38,293.87,53.64,433.12-13.14-126.87,121.1-306.34,174.46-470.41,95.3-187.43-90.44-302.55-303.16-336.45-501.45-24.31-142.28-4-394.54,196.87-382.2,94.11,6.94,141.55,90.33,223.92,122C1879,654.62,1964,624.41,2037.09,598Z"/><path class="cls-7" d="M1880,1411.8a358.16,358.16,0,0,1-156.8-36.18c-197.27-95.19-299.64-316.78-329.66-492.43-17.89-104.72-8.51-242.91,52.78-315.59,29.48-34.93,69.14-52.64,117.93-52.64,4.33,0,8.78.13,13.25.4,51.51,3.8,88.4,32.55,127.46,63,28.11,21.9,57.18,44.55,92.79,58.24,22.42,8.63,47.16,13,73.5,13h0c30.39,0,61.26-5.82,90.78-13.88-31.28,18-62.49,30.31-93.28,36.76a200.44,200.44,0,0,1-38.19,3.8c-58.14,0-108-27.26-160.75-56.09q-12.15-6.66-24.56-13.33c-24.9-13.28-47.68-20-67.73-20-25.48,0-46.64,10.45-62.9,31-52.2,66-37.6,223.93-22.92,285.83,43.47,183.35,137,333.23,256.7,411.2,56.82,37,120.62,55.8,189.64,55.8,54,0,111.59-11.15,174.54-33.9-72.17,48.78-152.51,75-232.54,75Z"/><path class="cls-8" d="M1892.83,1390.37h0c-54.26-2.12-106.48-16.34-155.28-42.28-193.4-102.81-287-328.23-310.17-504.9-13.69-104.49.76-240.79,63.53-311.54a145.58,145.58,0,0,0-44.51,36c-61.29,72.68-70.67,210.87-52.78,315.59,30,175.65,132.39,397.24,329.66,492.43A358.16,358.16,0,0,0,1880,1411.8h0c80,0,160.37-26.24,232.54-75-5.15,1.85-10.19,3.5-15.24,5.22C2031.88,1376.2,1961.87,1393.06,1892.83,1390.37Z"/><path class="cls-4" d="M2013.42,331.42c-.19-2.19-.8-18.11-2-18.23-8-.72-16-1.51-24-2.17-38.18-3.16-76.9-2.7-114.77,3.45-36.83,5.94-74.4,17.53-104.31,40.6s-47.4,57-45.76,95c1.61,37.31,20.51,72.82,43.66,101.25-8.7-29.55-17.41-60.69-14.92-91.83,2.25-28.21,15.6-51.75,39.34-67.37,25.28-16.65,56.3-24,85.82-28.62,30.23-4.74,60.9-6.32,91.46-6.59-4,17.34-18.94,29.57-32.57,39.7-16.36,12.14-34,22.54-50.58,34.38-31.5,22.49-60.88,51.49-67.59,91.25,24-44.66,70.87-63,114.4-83.28,21.85-10.19,44.1-21.7,60.44-39.86C2008.77,380.48,2015.68,356.19,2013.42,331.42Z"/><path class="cls-9" d="M1751,518.88c-11.59-19.67-21.19-43.42-22.3-69.07-1.49-34.7,14.3-67.45,43.37-89.87,25.35-19.56,58.57-32.45,101.54-39.4a433.4,433.4,0,0,1,68.7-5.29c14.33,0,29.33.64,44.55,1.91,5.62.46,11.23,1,16.85,1.51l2.68.25c.33,3.39.61,8.2.74,10.18.07,1.38.13,2.41.18,2.87,2.19,24-4.88,46.34-19.89,63-16,17.72-38.54,29.12-58.46,38.41q-5.67,2.63-11.43,5.26c-28.12,12.92-56.93,26.14-79.56,47.08,10.88-17.05,27.46-33.36,50.37-49.72,7.41-5.27,15.17-10.37,22.7-15.31,9.27-6.09,18.84-12.38,28-19.14,14.57-10.81,30.48-23.95,34.93-43.27l1.75-7.62-7.81.09c-36.13.32-65.49,2.43-92.37,6.67C1849,361.57,1815,368.69,1787.21,387c-25.09,16.51-39.64,41.42-42.1,72C1743.53,479,1746.24,498.6,1751,518.88Z"/></svg>