<svg id="Capa_1" data-name="Capa 1" xmlns="http://www.w3.org/2000/svg" xmlns:xlink="http://www.w3.org/1999/xlink" viewBox="0 0 4138.58 2409.45"><defs><style>.cls-1{font-size:470.96px;fill:#1d1d1b;font-family:MyriadPro-Regular, Myriad Pro;}.cls-2{letter-spacing:-0.02em;}.cls-3{letter-spacing:-0.01em;}.cls-4{letter-spacing:0em;}.cls-5{fill:#1397d5;}.cls-6{fill:#90bf21;}.cls-7{fill:url(#linear-gradient);}.cls-8{fill:url(#linear-gradient-2);}.cls-9{fill:url(#linear-gradient-3);}.cls-10{fill:url(#linear-gradient-4);}.cls-11{fill:url(#linear-gradient-5);}</style><linearGradient id="linear-gradient" x1="1850.39" y1="624.44" x2="2427.25" y2="1017.75" gradientUnits="userSpaceOnUse"><stop offset="0" stop-color="#fff" stop-opacity="0.4"/><stop offset="1" stop-color="#fff" stop-opacity="0"/></linearGradient><linearGradient id="linear-gradient-2" x1="1905.61" y1="662.09" x2="2426.55" y2="1017.28" xlink:href="#linear-gradient"/><linearGradient id="linear-gradient-3" x1="1812.15" y1="1034.46" x2="1580.54" y2="663" xlink:href="#linear-gradient"/><linearGradient id="linear-gradient-4" x1="1702.43" y1="1102.88" x2="1470.81" y2="731.42" xlink:href="#linear-gradient"/><linearGradient id="linear-gradient-5" x1="2016.37" y1="292.43" x2="1827.35" y2="368.91" xlink:href="#linear-gradient"/></defs><title>MAPA IMPOSUR</title><text class="cls-1" transform="translate(1362.46 2147.59)"><tspan class="cls-2">P</tspan><tspan x="239.25" y="0">e</tspan><tspan class="cls-3" x="475.19" y="0">r</tspan><tspan x="624.48" y="0">ei</tspan><tspan class="cls-4" x="970.63" y="0">r</tspan><tspan x="1122.75" y="0">a</tspan></text><circle class="cls-5" cx="1998.84" cy="1628.19" r="149.72"/><path class="cls-6" d="M1786.25,559.22C1999,548.34,2092.18,372.38,2209.1,339.67c125.93-35.24,230.72,82.16,266.57,189.22,119.34,356.38-148.31,818.33-545.2,803.85,307.5-105.32,538.37-458.1,423.15-786.31-29.38-80.95-85.52-131.73-161.46-91.67C2063.47,523.44,1938.42,601.74,1786.25,559.22Z"/><path class="cls-7" d="M2004.22,1316.61c140.45-67.39,260.71-186.2,329.88-328.79,70.46-145.3,81.79-303.59,31.87-445.74-26.78-73.82-70.34-114.42-122.71-114.42-18.48,0-37.73,5.22-57.22,15.51q-15.32,8.19-30.49,16.43c-93.57,50.58-182,98.38-281.75,98.57,88.34-24.93,153-77.46,211.74-125.11,45.58-37,84.95-69,127.09-80.77a156.53,156.53,0,0,1,42.09-5.88c95.84,0,177.47,93.9,208.53,186.64,59.69,178.25,22.56,392.13-96.95,558.16C2273.82,1219.71,2144.15,1299.76,2004.22,1316.61Z"/><path class="cls-8" d="M2463.25,533.05c-31.06-92.74-112.69-186.64-208.53-186.64a156.53,156.53,0,0,0-42.09,5.88c-42.14,11.8-81.51,43.76-127.09,80.77-27.87,22.61-57.12,46.29-89.57,67.65,28.62-14,55.46-29.54,81.23-44.48,50.81-29.45,94.68-54.89,138.14-60a156.26,156.26,0,0,1,42.49.74c94.7,14.95,160.64,120.42,176.87,216.88,31.19,185.37-38.86,390.83-182.77,536.2-48.39,48.89-102.29,87.62-159.33,115.39a681.22,681.22,0,0,1-88.38,51.13c139.93-16.85,269.6-96.9,362.08-225.4C2485.81,925.18,2522.94,711.3,2463.25,533.05Z"/><path class="cls-5" d="M2048.48,569.05c-51.16,42.59-110.52,78.29-176.29,92.06-96,18.93-165.93-28-246.55-71-185.07-98.72-168.39,199.74-144.37,301.08,38.51,162.37,123.77,335.76,267.4,429.33,147.49,96.12,312.52,57,460.61-14C2074.36,1435.29,1883.5,1492,1709,1407.85c-199.32-96.18-321.75-322.39-357.79-533.26-25.86-151.32-4.29-419.58,209.35-406.46,100.09,7.38,150.54,96.06,238.13,129.75C1880.4,629.31,1970.7,597.18,2048.48,569.05Z"/><path class="cls-9" d="M1881.47,1434.54c-57.73,0-113.84-12.94-166.76-38.48-209.78-101.23-318.65-336.88-350.57-523.68-19-111.36-9.06-258.32,56.13-335.61,31.35-37.15,73.52-56,125.4-56,4.61,0,9.35.14,14.09.44,54.78,4,94,34.61,135.55,67,29.9,23.29,60.81,47.37,98.68,61.93,23.85,9.18,50.16,13.84,78.17,13.84h0c32.31,0,65.15-6.19,96.54-14.76-33.26,19.15-66.46,32.23-99.2,39.09a212.07,212.07,0,0,1-40.62,4c-61.83,0-114.82-29-170.94-59.65q-12.93-7.08-26.13-14.17c-26.47-14.12-50.7-21.29-72-21.29-27.1,0-49.6,11.12-66.9,33-55.5,70.21-40,238.13-24.37,304,46.24,195,145.74,354.38,273,437.3,60.42,39.38,128.28,59.34,201.68,59.34,57.39,0,118.67-11.86,185.61-36.06-76.75,51.88-162.19,79.77-247.3,79.79Z"/><path class="cls-10" d="M1895.06,1411.75h0c-57.7-2.25-113.24-17.38-165.13-45-205.67-109.35-305.24-349.07-329.86-536.95-14.55-111.11.81-256.06,67.57-331.3a154.47,154.47,0,0,0-47.33,38.23c-65.19,77.29-75.17,224.25-56.13,335.61,31.92,186.8,140.79,422.45,350.57,523.68,52.92,25.54,109,38.48,166.76,38.48h0c85.11,0,170.55-27.91,247.3-79.79-5.47,2-10.83,3.73-16.21,5.56C2042.94,1396.68,1968.48,1414.61,1895.06,1411.75Z"/><path class="cls-6" d="M2023.31,285.6c-.21-2.32-.85-19.26-2.17-19.38-8.5-.77-17-1.61-25.55-2.31-40.6-3.36-81.77-2.87-122,3.66-39.17,6.32-79.12,18.65-110.93,43.18s-50.4,60.59-48.66,101c1.71,39.68,21.81,77.44,46.43,107.68-9.25-31.43-18.51-64.55-15.87-97.66,2.39-30,16.59-55,41.83-71.65,26.89-17.71,59.88-25.5,91.27-30.44,32.15-5,64.77-6.71,97.27-7-4.24,18.44-20.14,31.44-34.64,42.22-17.4,12.91-36.14,24-53.78,36.56-33.51,23.91-64.75,54.75-71.89,97,25.51-47.5,75.37-67,121.66-88.56,23.23-10.84,46.9-23.08,64.28-42.39C2018.37,337.77,2025.71,312,2023.31,285.6Z"/><path class="cls-11" d="M1744.21,485c-12.32-20.92-22.53-46.18-23.71-73.45-1.58-36.91,15.21-71.73,46.12-95.58,27-20.8,62.28-34.51,108-41.9a461.05,461.05,0,0,1,73.06-5.62c15.24,0,31.19.67,47.38,2,6,.49,11.94,1.05,17.92,1.6l2.85.26c.35,3.61.65,8.72.79,10.84.07,1.46.13,2.56.18,3.05,2.34,25.5-5.18,49.27-21.15,67-17,18.84-41,31-62.17,40.84q-6,2.81-12.15,5.6c-29.9,13.73-60.54,27.8-84.61,50.06,11.57-18.13,29.21-35.47,53.57-52.87,7.87-5.61,16.13-11,24.13-16.28,9.87-6.48,20-13.17,29.74-20.36,15.49-11.49,32.4-25.47,37.14-46l1.86-8.11-8.3.1c-38.43.34-69.65,2.58-98.24,7.09-28.19,4.42-64.32,12-93.86,31.41-26.68,17.57-42.16,44.06-44.77,76.62C1736.29,442.57,1739.18,463.39,1744.21,485Z"/></svg>