<svg id="Capa_1" data-name="Capa 1" xmlns="http://www.w3.org/2000/svg" viewBox="0 0 4138.58 2409.45"><defs><style>.cls-1{fill:#91bf20;}</style></defs><title>MAPA IMPOSUR</title><path class="cls-1" d="M281,176.77V788.49H170.85V176.77Z"/><path class="cls-1" d="M572.77,176.77l127,314.9q29,71.48,44.56,137.05,8.84-36.57,16.4-58.85,7.57-22.71,30.69-80.3L917.1,176.77h156.39V788.49H968V422.72q0-65.16,6.31-150.09h-4.21a1197.76,1197.76,0,0,1-46.66,149.25L780.88,788.49H703.52l-146.3-375q-24.39-62.22-40.36-140.43h-3.79Q519,342.43,519,428.18V788.49H415.11V176.77Z"/><path class="cls-1" d="M1210.55,176.77h197.6q75.67,0,115.19,12.61,52.14,16.83,84.72,59.08t32.58,107q0,58.43-29.22,102t-79.67,62q-38.68,14.3-123.6,14.29h-87.87V788.49H1210.55Zm109.73,262.77h76.1q29.43,0,40.36-1.26,23.12-2.1,39.52-7.79a80.22,80.22,0,0,0,28.38-16.61,72.73,72.73,0,0,0,18.29-26.05,83.38,83.38,0,0,0,6.3-32.37q0-29-15.76-49.83T1466.17,276q-21.87-6.33-73.57-6.31h-72.32Z"/><path class="cls-1" d="M2352.43,488.3a316,316,0,0,1-31.55,138.75Q2281,711.55,2207.8,757.79T2031.21,804q-169.43,0-258.13-113.51-69.37-88.71-69.37-206.43,0-84.51,36.58-156,28.59-55.5,73.78-93.34t97.33-55.07q52.13-17.25,117.73-17.24,79.44,0,136.84,24.8T2264.14,255q40.76,42.89,64.53,100.49T2352.43,488.3Zm-113.53-1.68q0-64.31-27.33-116.25t-78.18-79.46q-50.88-27.53-107.22-27.53-55.49,0-105.1,27.75a193.11,193.11,0,0,0-76.73,77.36q-27.12,49.59-27.11,112.67,0,64.76,26.48,115t74,78.62q47.5,28.4,108.47,28.38,91.65,0,152.19-61.39T2238.9,486.62Z"/><path class="cls-1" d="M2831.69,226.81l-78.61,79.88a108.45,108.45,0,0,0-45-36.37q-27.34-12-59.71-12-50.43,0-77.77,23.55t-27.32,56.76q0,21.44,11.55,38t36.37,28.81q18.92,8.81,79.46,28.37t84.5,33.42q37.84,21.87,59.71,57.18t21.86,85.77q0,83.67-59.29,138.11t-167.75,54.44q-65.16,0-115-22.07t-82.62-59.07l81.58-79q22.28,31.53,54.23,47.51a150.19,150.19,0,0,0,68.1,16q49.2,0,78-25.22T2722.81,622q0-23.54-11.78-41t-32.37-27.53q-12.6-5.88-71.89-26.08t-78.19-29q-34.07-16.39-54.87-37.64a150.7,150.7,0,0,1-32.37-50q-11.57-28.78-11.56-62.44,0-71,47.92-121.49,61.8-65.59,176.16-65.59,58,0,101.11,17A240,240,0,0,1,2831.69,226.81Z"/><path class="cls-1" d="M3056.21,176.77V521.52q0,49.18,3.78,69.37a143.72,143.72,0,0,0,23.34,55.92q17.85,26.06,47.92,40.57a143,143,0,0,0,62.85,14.51,140.9,140.9,0,0,0,60.33-13.26,120.72,120.72,0,0,0,46.67-37.83A138.28,138.28,0,0,0,3325.69,598q5.05-21.84,5.06-73.15V176.77h107.62V502.6q0,63.06-3.78,90.81-5.9,49.62-25,87.87a216,216,0,0,1-122.14,107.84q-39.93,14.08-97.11,14.09-58.86,0-107-20.19t-79.88-58.86a231.32,231.32,0,0,1-44.78-85.34q-13-46.67-13-129.91V176.77Z"/><path class="cls-1" d="M3681.36,530.35V788.49H3571.63V176.77h198.45q63.9,0,101.32,7.15a186.36,186.36,0,0,1,70.22,29,146.6,146.6,0,0,1,50,57.6q17.66,35.75,17.66,82,0,47.08-18.28,83.87a145.1,145.1,0,0,1-53.62,59.08q-25.64,16.4-67.26,24l162.7,269.07H3901.67L3760.82,530.35Zm0-94.18h69.8q63.9,0,83.25-5,29.84-8.4,46-28.8t16.19-49.82q0-28.15-15.56-48.36T3837.76,276q-20.18-5.88-67.26-5.89h-89.14Z"/></svg>