<svg xmlns="http://www.w3.org/2000/svg" xmlns:xlink="http://www.w3.org/1999/xlink" viewBox="1167.39 176.83 2865.93 1205.8"><defs><style>.cls-1{isolation:isolate;}.cls-2{opacity:0.3;}.cls-2,.cls-6{mix-blend-mode:multiply;}.cls-3{fill:#1f1e21;mix-blend-mode:overlay;}.cls-4,.cls-6{fill:#202020;}.cls-5{fill:#f5f4f5;stroke:#069ff4;stroke-miterlimit:10;}.cls-6{opacity:0.2;}.cls-7{fill:#1397d5;}.cls-8{fill:#90bf21;}.cls-9{fill:url(#linear-gradient);}.cls-10{fill:url(#linear-gradient-2);}.cls-11{fill:url(#linear-gradient-3);}.cls-12{fill:url(#linear-gradient-4);}.cls-13{fill:url(#linear-gradient-5);}.cls-14{font-size:39.29px;fill:#1d1d1b;font-family:MyriadPro-Regular, Myriad Pro;}.cls-15{fill:url(#linear-gradient-6);}.cls-16{fill:url(#linear-gradient-7);}.cls-17{fill:url(#linear-gradient-8);}.cls-18{fill:url(#linear-gradient-9);}.cls-19{fill:url(#linear-gradient-10);}.cls-20{fill:url(#linear-gradient-11);}.cls-21{fill:url(#linear-gradient-12);}.cls-22{fill:url(#linear-gradient-13);}.cls-23{fill:url(#linear-gradient-14);}.cls-24{fill:url(#linear-gradient-15);}.cls-25{fill:url(#linear-gradient-16);}.cls-26{fill:url(#linear-gradient-17);}.cls-27{fill:url(#linear-gradient-18);}.cls-28{fill:url(#linear-gradient-19);}.cls-29{fill:url(#linear-gradient-20);}.cls-30{fill:url(#linear-gradient-21);}.cls-31{fill:url(#linear-gradient-22);}.cls-32{fill:url(#linear-gradient-23);}.cls-33{fill:url(#linear-gradient-24);}.cls-34{fill:url(#linear-gradient-25);}.cls-35{fill:url(#linear-gradient-26);}.cls-36{fill:url(#linear-gradient-27);}.cls-37{fill:url(#linear-gradient-28);}.cls-38{fill:url(#linear-gradient-29);}.cls-39{fill:url(#linear-gradient-30);}.cls-40{fill:url(#linear-gradient-31);}.cls-41{fill:url(#linear-gradient-32);}.cls-42{fill:url(#linear-gradient-33);}.cls-43{fill:url(#linear-gradient-34);}.cls-44{fill:url(#linear-gradient-35);}.cls-45{fill:url(#linear-gradient-36);}.cls-46{fill:url(#linear-gradient-37);}.cls-47{fill:url(#linear-gradient-38);}.cls-48{fill:url(#linear-gradient-39);}.cls-49{fill:url(#linear-gradient-40);}.cls-50{fill:url(#linear-gradient-41);}.cls-51{fill:url(#linear-gradient-42);}.cls-52{fill:url(#linear-gradient-43);}.cls-53{fill:url(#linear-gradient-44);}.cls-54{fill:url(#linear-gradient-45);}</style><linearGradient id="linear-gradient" x1="2474.77" y1="290.98" x2="2551.67" y2="343.4" gradientUnits="userSpaceOnUse"><stop offset="0" stop-color="#fff" stop-opacity="0.4"/><stop offset="1" stop-color="#fff" stop-opacity="0"/></linearGradient><linearGradient id="linear-gradient-2" x1="2482.13" y1="296" x2="2551.57" y2="343.34" xlink:href="#linear-gradient"/><linearGradient id="linear-gradient-3" x1="2469.68" y1="345.63" x2="2438.81" y2="296.12" xlink:href="#linear-gradient"/><linearGradient id="linear-gradient-4" x1="2455.05" y1="354.75" x2="2424.18" y2="305.24" xlink:href="#linear-gradient"/><linearGradient id="linear-gradient-5" x1="2496.9" y1="246.72" x2="2471.7" y2="256.92" xlink:href="#linear-gradient"/><linearGradient id="linear-gradient-6" x1="2537.07" y1="243.2" x2="2613.96" y2="295.62" xlink:href="#linear-gradient"/><linearGradient id="linear-gradient-7" x1="2544.43" y1="248.22" x2="2613.87" y2="295.56" xlink:href="#linear-gradient"/><linearGradient id="linear-gradient-8" x1="2531.97" y1="297.85" x2="2501.1" y2="248.34" xlink:href="#linear-gradient"/><linearGradient id="linear-gradient-9" x1="2517.35" y1="306.97" x2="2486.48" y2="257.46" xlink:href="#linear-gradient"/><linearGradient id="linear-gradient-10" x1="2559.19" y1="198.94" x2="2534" y2="209.14" xlink:href="#linear-gradient"/><linearGradient id="linear-gradient-11" x1="2654.63" y1="225.17" x2="2731.52" y2="277.59" xlink:href="#linear-gradient"/><linearGradient id="linear-gradient-12" x1="2661.99" y1="230.18" x2="2731.43" y2="277.53" xlink:href="#linear-gradient"/><linearGradient id="linear-gradient-13" x1="2649.54" y1="279.82" x2="2618.66" y2="230.31" xlink:href="#linear-gradient"/><linearGradient id="linear-gradient-14" x1="2634.91" y1="288.94" x2="2604.04" y2="239.43" xlink:href="#linear-gradient"/><linearGradient id="linear-gradient-15" x1="2676.76" y1="180.91" x2="2651.56" y2="191.11" xlink:href="#linear-gradient"/><linearGradient id="linear-gradient-16" x1="2625.06" y1="292.52" x2="2701.95" y2="344.94" xlink:href="#linear-gradient"/><linearGradient id="linear-gradient-17" x1="2632.42" y1="297.53" x2="2701.86" y2="344.88" xlink:href="#linear-gradient"/><linearGradient id="linear-gradient-18" x1="2619.96" y1="347.17" x2="2589.09" y2="297.66" xlink:href="#linear-gradient"/><linearGradient id="linear-gradient-19" x1="2605.34" y1="356.29" x2="2574.47" y2="306.78" xlink:href="#linear-gradient"/><linearGradient id="linear-gradient-20" x1="2647.18" y1="248.26" x2="2621.99" y2="258.46" xlink:href="#linear-gradient"/><linearGradient id="linear-gradient-21" x1="2001.56" y1="555.58" x2="2078.46" y2="608" xlink:href="#linear-gradient"/><linearGradient id="linear-gradient-22" x1="2008.92" y1="560.59" x2="2078.36" y2="607.94" xlink:href="#linear-gradient"/><linearGradient id="linear-gradient-23" x1="1996.47" y1="610.23" x2="1965.6" y2="560.71" xlink:href="#linear-gradient"/><linearGradient id="linear-gradient-24" x1="1981.84" y1="619.35" x2="1950.97" y2="569.83" xlink:href="#linear-gradient"/><linearGradient id="linear-gradient-25" x1="2023.69" y1="511.32" x2="1998.49" y2="521.52" xlink:href="#linear-gradient"/><linearGradient id="linear-gradient-26" x1="1779.62" y1="578.34" x2="1856.51" y2="630.77" xlink:href="#linear-gradient"/><linearGradient id="linear-gradient-27" x1="1786.98" y1="583.36" x2="1856.42" y2="630.7" xlink:href="#linear-gradient"/><linearGradient id="linear-gradient-28" x1="1774.52" y1="633" x2="1743.65" y2="583.48" xlink:href="#linear-gradient"/><linearGradient id="linear-gradient-29" x1="1759.9" y1="642.11" x2="1729.02" y2="592.6" xlink:href="#linear-gradient"/><linearGradient id="linear-gradient-30" x1="1801.74" y1="534.09" x2="1776.55" y2="544.28" xlink:href="#linear-gradient"/><linearGradient id="linear-gradient-31" x1="1894.65" y1="758.6" x2="1971.54" y2="811.03" xlink:href="#linear-gradient"/><linearGradient id="linear-gradient-32" x1="1902.01" y1="763.62" x2="1971.45" y2="810.97" xlink:href="#linear-gradient"/><linearGradient id="linear-gradient-33" x1="1889.55" y1="813.26" x2="1858.68" y2="763.74" xlink:href="#linear-gradient"/><linearGradient id="linear-gradient-34" x1="1874.93" y1="822.38" x2="1844.06" y2="772.86" xlink:href="#linear-gradient"/><linearGradient id="linear-gradient-35" x1="1916.77" y1="714.35" x2="1891.58" y2="724.54" xlink:href="#linear-gradient"/><linearGradient id="linear-gradient-36" x1="1810.59" y1="724.27" x2="1887.48" y2="776.69" xlink:href="#linear-gradient"/><linearGradient id="linear-gradient-37" x1="1817.95" y1="729.29" x2="1887.39" y2="776.63" xlink:href="#linear-gradient"/><linearGradient id="linear-gradient-38" x1="1805.49" y1="778.92" x2="1774.62" y2="729.41" xlink:href="#linear-gradient"/><linearGradient id="linear-gradient-39" x1="1790.87" y1="788.04" x2="1760" y2="738.53" xlink:href="#linear-gradient"/><linearGradient id="linear-gradient-40" x1="1832.71" y1="680.01" x2="1807.52" y2="690.21" xlink:href="#linear-gradient"/><linearGradient id="linear-gradient-41" x1="1578.87" y1="275.31" x2="1655.76" y2="327.74" xlink:href="#linear-gradient"/><linearGradient id="linear-gradient-42" x1="1586.23" y1="280.33" x2="1655.66" y2="327.67" xlink:href="#linear-gradient"/><linearGradient id="linear-gradient-43" x1="1573.77" y1="329.96" x2="1542.9" y2="280.45" xlink:href="#linear-gradient"/><linearGradient id="linear-gradient-44" x1="1559.14" y1="339.08" x2="1528.27" y2="289.57" xlink:href="#linear-gradient"/><linearGradient id="linear-gradient-45" x1="1600.99" y1="231.05" x2="1575.8" y2="241.25" xlink:href="#linear-gradient"/></defs><title>MAPA IMPOSUR</title><g class="cls-1"><g id="Capa_1" data-name="Capa 1"><g class="cls-2"><path class="cls-3" d="M4023.64,531.65c-19.69-8.74-33.94-7-33.94-7s17.13,14.44-8.24-1.2c-25.07-15.44-73.62-27.53-73.62-27.53s-27,.83-32.27-2.51-32.05-4.16-20.77,2.84,11,10.24.14,9.56-12.79-7.38-12.79-7.38,12.22-5.68-.34-7.35-9.29,5-9.29,5c-23.53-5.5-37.21-.66-37.21-.66s-17.73,7.53-22-4.51-25.13-10.11-25.13-10.11-40.66,3.47-41.28-1.65-23.79-7.07-23.79-7.07c7.58-7.84-3.38-7.84-3.38-7.84a122.61,122.61,0,0,1-22.55-2.28c-10.29-2.27-34.37-3.73-44-3s-11.14,2.31-8.7,8.42-1.38,6.88-11.19,6.63-15-6.14-19.79-1.6-7.84,3-7.84,3-18.9-12.15-17-2-2,9.63-3.36,10.5-27.91-8.41-24.25-13.7,4.31-6.73,1.51-13.67-7.92-2.55-29.63-9.44-21.71-1.68-21.71-1.68c1.63,6.75,4.48,11.48-17.18,10.15s-19-8.71-19-8.71c-17.08.61-37.27-1-37.27-1s-17.62-4.21-23.8.6-28.48,4.34-28.48,4.34,4.27-6.62,25.13-16c20.69-9.27,20.26-12.11,20.87-19.88s-25.16-13.07-25.16-13.07l-25.18-.7s1.11,6.05-7.95,4.19,4-8.59,4-8.59c-13.48-2.65-22,1.16-22,1.16-1.21-4.16,8.47-7.15,8.47-7.15s.08-6.88-17.84-4.94-16,10.59-14.19,15.33-4.28,3.26-4.28,3.26c-13.17.11-18.66,5.13-18.66,5.13s4.61,4.8-7.14,5.15-8-5.15-8-5.15c-19.83,1.05-17.65,5.85-17.65,5.85-17.07.94-59.51,14.29-49.2,20.72s2.73,5.5-1.82,8.63-24.76-.24-34.73,2.4-1.07,7.26-1.07,7.26l2.26,9.36s10.64-1.1,12.42,4.78-10,2.08-18.74-2.7-28.8-3.66-23.07-2.81,9.87,5.63,6.32,7.22-3.6,1.35,1.38,6.65-10.13.37-10.13.37-9,4.7-8.84-7.75-11.12-13.49-11.12-13.49c8.35,4.44,4.29,8.34,4.56,9.69s-14.6,4.66-7.3,9.82,5.91,17.89,5.91,17.89,1.75,9.45,11.9,7.77,20.25,3,20.25,3,16.32,15.23,8.34,14.89-16.65-13.88-16.65-13.88-23.2-1.35-14.73,5.06,4.62,6.78-4.72,16.33-25.85,6.87-26.1,5.49,16.39-7.88,19.64-15-5.09-12.85-5.09-12.85L3091,476.65s-12.37-.33-6.05-4.6,2.74-12.72,2.74-12.72c-17.92-6.47-27.9-1.29-27.9-1.29-.83,17-16.79,10.74-19.49,17.63s8.38,7.25,8.38,7.25c-1.53,10-6.69,2.65,8.59,15.64,15.45,13.13-7.45,6.05-23.53,0s-24.65-3-30.83-5-16.09-7.32-17.12-5.45,6.88,6.78,13.21,9.79,2.5,12.11-2,12.79-9.68-7.76-9.68-7.76,1.2,3.71-13.18,4-9.13,5.07-16.31,5.41-5.64-7.76-5.64-7.76c-16.78,2-46.51,11.49-49.42,14.89s-5.93,12-13.87,5.8,4.39-8.18,4.39-8.18a23,23,0,0,0-8-6.78c-5.57-3-17.17-1-17.17-1,2.79,1.69,7.22,6.43,10.8,15.63s-4,12.72-7.59,10,2.86-4.48-17.84.69,7.16,12.47-5.28,14.91-26.94-11.46-29.16-5.91,10.6,7.31,10.6,7.31c-8.23,14.05-30.71-9.4-30.71-9.4s12.19-5.88,3.51-6.57-19.39-12.36-19.39-12.36c30.4,8.92,50.68,13.74,67.15,5.14s-42.52-28.49-42.52-28.49-18.15,2.35-46.24-8c-27.87-10.29-63.83,2-63.83,2s-59.2,19.84-67.25,36.18c-4.08,8.27-23.44,26.68-34.75,29.84s-24.25,7.81-27.37,26.24c-3.16,18.71,6.77,20.89,15,20.76a30.77,30.77,0,0,0,18.95-6.14,18.8,18.8,0,0,1,12.25-3c-1.28,7.62,13.08,20.52,13.08,20.52s-5.89,9.56,5.2,9.69,7.19-2.35,12.57-5,15.65-2.76,15.65-2.76l1-18.93c5.37.28,14.74-2.72,14.33-9.49s-11.31-6.88-11.31-6.88c.29-11.77,5-17.89,5-17.89l27.81-12.53c-.34-18.51,15.36-18,15.36-18s15.87-1.3,13.56,8.83-30.41,17.85-30.41,17.85-.29,15.3.87,20,14.19,7,28.14,6.32,20.5-6.59,31.7-.94-26.88,4.73-25.86,4.73-22.77-1.27-22.22,4.88,7.7,5.8,7.7,5.8,7.14-.18,6.71,5.84-8,5.86-8,5.86.47-5.86-10.11-5.86-11.09,6.22-11.09,6.22l1,12c-10.94,2.41-9.09,7.06-10.8,7.81s-14.65-8.55-20.74-3-22.66,6.71-22.66,6.71-5.55-3.36-22.1-2.62-14.11-6.14-12-12.06,1.42-15.07,1.42-15.07c-8.21,2.56-27.44,9.35-18.25,15.07s5,13.93,5,13.93-3.27-1.59-18.52,3.46-19.15,14-19.15,14-7.22-2.84-19.66,7-27.51,8.39-27.51,8.39c1.22,4.61-12.42,4.22-12.42,4.22s-17.1-1-17.68,3.66,8.91,4.24,8.91,4.24c21.42-.19,23.74,12.23,23.43,20.44s-9.16,7.47-9.16,7.47-13.16.79-36.87-.19-18.9,7.31-18.9,7.31l-.66,16.36a8,8,0,0,0-7,8.86l7.55-.21-.49,7.95c21.25-1.56,24.66,7.91,24.68,8-1.22-.39-2-.69-2-.69-.86,5.83-13.64,11.07-13.64,11.07a24,24,0,0,0-21.62,14.9c-6.5,15.37,3.5,5-25.44,18.84a133.13,133.13,0,0,0-45.92,36.85s20.66,9.77,5.87,25.54c-14.94,16-8.1,21.64-8.1,21.64s66.33,51.91,89.09,47.05,43.28-2.43,47.88-2.43,6-6.21,35.89-7.93,33.67,10.36,33.67,10.36c18.36,5.9,42.06-12.08,31.6,10.08-10.61,22.49-.16,26.75-.16,26.75,39.82,26.51,34.6,39.22,34.6,39.22,11.35,15-1.07,22-1.07,22-19.07,19.35-8.21,54.22,7.59,61.9s11.27,31.91,11.27,31.91c16.07,7.88,36.36,35.78,36.36,35.78-.76,21.87,16.61,17.8,16.61,17.8s21.08-3.66,55.95-4.07,66.78-44.79,66.78-44.79-1.63-15.3,18.05-21.93-2.14-29.27-2.14-29.27,2-14,40.86-23.47c38.63-9.37-1-38.59-4.47-51.36s-7.24-29.49,57.7-60.51c63.6-30.38,39.63-53.1,39.63-53.1s-25.65,8.78-60.9,9.11c0,0-17.36-20.5-47.94-27.82,0,0,1.12-12.89-21.18-18.15,0,0,6.23-12.73-13.61-24.38,0,0-34.61-45.25-54.79-45-26.78.28-64.74-7.47-64.74-7.47s-22.5-5.89-20,7.16-41-1.87-41-1.87-5.54-7.77-25.14-7.77-21.77-3.72-21.77-3.72,1.65-3.39,6.14-13.23-19-6.41-19-6.41c-85.37,1.52-65.06,8.25-85.74,10.71a86,86,0,0,1-35.13-3.29c.06,0,18.12-7.42,29.91-5.79s20.87-9.93,19.23-14.17,6.07-10.23,12.87-10.83,16.21-6,16.21-6l.21-8.72c11.06-2.37,24.49.79,27,.79,13.22,0,27.75-10.63,29.15-6.9s13.11,14,32.74,20.41,18.73,11.83,14.11,14.46-28,3.83-28,3.83l26.34,8.94s-1.54-8.12,3.85-8.12,15.25-10.29,15.25-10.29-12.22-3.22-6.18-5.22,13.65,3,13.65,3c-.18-8.2-21.26-10.6-21.26-10.6l1.73-3.57s-3.18,1.78-8.53.79-18.23-12.46-21.79-17.77,18.35-3.91,18.35-3.91c2.61,11.58,37.23,20.89,37.23,20.89-.55,6.56,3.88,12.16,3.88,12.16,18.18,9.65,17.35,17.54,17.35,17.54,19.79,9.37,16.46-2.43,16.46-2.43,6.53,1.42,16.91.41,16.91.41-5,.61-31.81-16.32-18.85-13.91s6.93-5.61,6.93-5.61c16.1.8,19.17,5.41,19.17,5.41,7.85,21.42,25,24.48,31.42,23.87s11.13-6.67,11.13-6.67,3.36,7.69,18.06,6.26,19.14-4.48,19.14-4.48,14.44,9.38,4.31,13.9-4.79,13.41-14,17.36-30.39,2.35-30.39,2.35c12.7,4,27.79,21,27.79,21,4.57-4.8,10.76-1.53,10.76-1.53s25.48,15.29,21.4,19.57c0,0,16.63,4.29,17.07,18.1,0,0,19.21,6.53,29.62,21.86,10.53,15.51,12.23,24.57,13,25.19s23.17-2.09,51.7-10.13c28.37-8,24.11-12,58.32-14.18,0,0,31.86-17.52,30-29.66s-33-12.9-33-12.9l-2.84-9.8s.37,11.52-37.77,11.94a137.69,137.69,0,0,0-27.56-23c-15.73-9.66,13.55-9.24,13.55-9.24s16.34,19.4,34.06,19.82,18.48-4.66,18.48-4.66,10.71,8.06,21.89,8.92,69.59,1.7,69.59,1.7,21.59,9.42,21.46,12.86,16.07-1.29,16.07-1.29,3.33,6-11.43,6.46c0,0,21.3,14.77,29.86.87,0,0,4.88,21.78,11,30.14s46.7,44.84,46.7,44.84,12,2.73,23.76-17.2c11.59-19.67-24.35-18.78,20.82-35.57,44.64-16.58,30.43-20.05,30.43-20.05s23,6.07,34-3.89c0,0,9.2,13,28.32,17.81s7.83,15.83,7.83,15.83,10.13,6.75,24.7-3.09c4.2-2.84,9.8,3.64,14.21,11.62s5.59,26.93,9,31,19.39,14.38,19.39,14.38a62.93,62.93,0,0,0,10.93,12.44c26,20.27,40.73,13.25,34.81,10.8s-9.36-10.45-15.2-18.76-27.57-10.31-27.57-10.31c-1.81-6.5-14.45-10.93-14.45-10.93-2.79-10.17,4.17-19.93,4.17-19.93,35.17,6,10.57,11.45,32,12.8s16.36,13.16,16.36,13.16c33.71-11.33,33.1-18.9,33.1-18.9,3-16.09-12-20.75-12-20.75s-19.66-1.66-27.51-14.88,14.87-17.65,14.87-17.65c81.41-1.63,93-25.12,101.24-38.15s-2.6-22-2.6-22-7.85-.62-11.06-6.83-13.65-11.42-13.65-11.42c-1.89-10.41,22.79-3.07,20.47-9.8s-16.87-6.69-16.87-6.69c-7.49,3.34-10.93,2.73-10.93,2.73-21.18-7-14-4.85,3-16.63S3560,741.8,3560,741.8c.89-2.11,32.82-13.54,29.37-2.11s15.3,9.69,15.3,9.69c2.7,24.23,2.14,21.14,20.23,15.59s5.9-13.46-7.45-22-2.51-3.93,8.94-18,23.39-6,23.39-6c40.34-20.65,45.69-41.57,45.69-41.57l-6.37-19.75s4.21-10.19-7.34-16.94-7.18-1.12-19.5-.84-27.76-7.55-27.76-7.55l49.55-36.56s35.79,5.16,43,1.63,26.14-.81,26.14-.81-13.49,3,14.8,3.53,9.7-5.7,9.7-5.7c1.2-18.82,36-23.35,35.82-19.35s-5.18,10.71,3.83,10.44,26.46-17.89,27.11-11.24S3834.19,584.74,3820,598s-27.08,11.18-24.7,22.18,24.8,36.69,26.33,41.24,18.15,5.42,15.67-5.69,7.1-10.55,7.1-10.55c-5.8-9.53,11.33-12.7,11.33-12.7s-13.09-3-5.89-9.62,6.25-13.59,1.22-13.4-12.71-12.54-.25-17.78,19.92.54,19.92.54a17.48,17.48,0,0,1,11.84-6.29c7.52-.54,19,5.57,19,5.57.22-5,28.08-25.32,44-23.73s20.6,14.4,18,1.77-22-19.68-22-19.68c9.42-1.75,18.27-1.4,19.1-6.79s-13.87-11.22-4.8-10.36,11.2,8.63,14.19,8.63-.51-6.57,27.12,5.9c27.9,12.6,11.8.87,20.45-6.42S4043.47,540.44,4023.64,531.65Z"/><path class="cls-4" d="M2485.49,624c-2.9,6.39,1.58,9.73,1.58,9.73,17.12-1.67,13.22,4.9,13.22,4.9s5,3.78-.7,4.06-8.92,2.25-7.57,6.76-8.33.29-8,3.68,9.09,6,7.52,6-17.22,10-17.22,10c16-6,55.18-6.29,55.18-6.29,10.85-.3,6.34-2.28,6.34-2.28l-3.05-2.84c3.29-5.11,6.05-10.47,6.05-10.47h-12c.18-5.07-3.27-10.11-9.91-12.49s-8.37-10.15-8.37-10.15-10.91,2.22-7.08-2.77,11.24-11,6.64-11.29-22.79,5.22-14.82-.55,3.47-8.73,3.47-8.73c-18,1.63-16.19,7.09-19.65,14.5S2488.38,617.67,2485.49,624Z"/><path class="cls-4" d="M2450,648.06c-6.75,7.92-12.41,6.79-4.76,10.48s2.71-2.84,15.82-4.26,9.6-13.53,9.6-13.53c9.08-5.32,7.62-7,1.18-10.06s-16-2-15.19,2.51,5.87,5-4.51,5.45-13.06,1.82-9.83,6S2456.72,640.19,2450,648.06Z"/><path class="cls-4" d="M2401.41,552.88c8.46-5.49,7,.53,11-5.49s5.22-15.57-13.74-14.54-8.62.78-20.4,2.33-13.74,6.22-19.51,4.14,3-4.92-7.5-9.3c0,0-12.38-.26-2.22,7,0,0-10.64-2.85-14.67,2.07s17-.78,17,3.9-11.45,4.43-11.45,4.43,19.12,3.66,8.75,7.07-.8,2.89,5.72,2.89,10.7,3.42,19.69,3.95S2392.91,558.4,2401.41,552.88Z"/><path class="cls-4" d="M3244.26,906.18s-6.91,2.38-5.17,10.57,9.86,8.57,14.3,7.89,6-4.23,3.74-9.14S3244.26,906.18,3244.26,906.18Z"/><path class="cls-4" d="M3494.79,975s-27.41-7.5-31-15.61-66.48-30.63-81.59-31.32c0,0,41.07,18.68,47.84,27.84,9.26,12.52,43.78,35.55,56,35.19S3503.26,995.8,3494.79,975Z"/><path class="cls-4" d="M3580.7,1008.29c12.62-1.09,16.4-2.18,15.22-2.18a179.16,179.16,0,0,1-28.42-6c-13.31-4-17.67-2.89-27-2.53s-17.53-1.62-22.11-4.15-21.26-1.08-16.72,2.71c0,0,11.68,8,34.12,8.14S3568.06,1009.39,3580.7,1008.29Z"/><path class="cls-4" d="M3521.9,961.55a16.88,16.88,0,0,1,12,13.46c10.77-2,8.59-.53,24,1.07s10.52,4.64,23.85,5.17,9.19-13,9.19-13c11-1.95,7.9-13.93,7.9-13.93,13.69,2.81,15.56-3.68,8.59-3.33s-20.32-7.68-19.51-11.34,15.56-4.33,13-4.33a6.58,6.58,0,0,1-4.43-2.08c5.46-2.59,3.5-4.15,3.5-4.15-7.7-.69-12.4-4.47-16.46-5.51s-8.88-1.71-9.75,0-5.93,9.14-12.6,9-3.52.69-6.75,1.38,4.83,5.2-3.42,5.55-6.43,1.56-12.53,7-7.69.35-16.73,1.23S3511,958,3521.9,961.55Z"/><path class="cls-4" d="M3617.48,977.68c5.67.36,5,1,7.67,7.6s6,6.46,6,6.46c5.4-.09,3.57-2.87,3.57-2.87-2.63-6.46-6.1-13.24-.48-12.17s8.39,6.61,18,11.9,7.75-.9,7.15-3.05-3.57-2.69-3.57-2.69c-7.49-.09-1.76-5.89-6.93-6.07s-7.88-5.51-7.88-5.51-3.25-3.55,3.51-4.61,9.87-3.8,9.87-3.8c-9.16-2.55-15.85.8-20.71.62s-8.84,7.35-9.36-.62,12.34-4.67,22.9-4.75,12.82-1.5,17.88-4.39-2.19-7-3.71-4-6,3.6-14.42,4.3-4.47-.79-16.5-1.67-12.15,5.18-11.22,8.35-2.2.35-.87,3.88,2.26,5.4-1.36,8.51S3611.81,977.33,3617.48,977.68Z"/><path class="cls-4" d="M3621.15,1006.2c-9.61.82-13.48-2.9-21.69,2.64,0,0,1.83,2.46,9,2.19s12.29-2.1,18.9-2.19S3630.75,1005.39,3621.15,1006.2Z"/><path class="cls-4" d="M3635.69,1015.68c5.92,0,5.43,4.67,8.4,3.84s7.89-1.19.88-4.39-4.52-3.28-10.39-2.74-5.77-1.36-6.31,1C3628.27,1013.4,3629.78,1015.68,3635.69,1015.68Z"/><path class="cls-4" d="M3675.91,1019.07c2.93-.1,10-1.83,11.49-5.58s10.74-.55,15.11-4c0,0,2-2.55-7.78-2.37s-9.2,1.91-12.76,5.65-6.48-1.64-12,10.07C3670,1022.83,3673,1019.16,3675.91,1019.07Z"/><path class="cls-4" d="M3819.34,973.94c-2.9-2.36-14.86-1.18-26-3.87s-17.76,1.27-21.73,5.06-11.35,2.85-14.77-5.06-2.44-8.4-18.62-8.17-30.89,2.36-14.93,5.66,8.29,6.62,16.31,8.28,9.2,7.86,10.37,7.86,4-3.82,4-3.82c6.37,2.39,16.12,6.44,29.58,6.9s27.65,8.65,29.86,14.2-19-2.42-12,3.38,14.92,0,22.19.48,14.73,7.28,14.73,7.28,16.85,2.68,18.1-1.94,3.65-12.1,22.27-5.1,23.46,13.62,38.25,13.13,27,4.89-18.83-14.58C3852.83,984.41,3887.51,981.55,3819.34,973.94Z"/><path class="cls-4" d="M3652.73,1010.18c8.16-.85,14.6-2.15,27.25-3.08,0,0-8.5-2.38-26.71.65,0,0-4.6-1.49-14.87-1.54-6.3,0-.66,1.54-.66,1.54A30.83,30.83,0,0,0,3652.73,1010.18Z"/><path class="cls-4" d="M3687.74,977c-5.22-.71-.52.18-5.75,1.07,0,0,3.5,3.24,7.29,3.23S3693,977.68,3687.74,977Z"/><path class="cls-4" d="M3704.19,981.27c3.4-1.09,7.78-2.69,16.49-1.27s11.67,0,8.22-1.45-12.75-2.11-28.77-2.83C3700.13,975.72,3700.79,982.36,3704.19,981.27Z"/><path class="cls-4" d="M3682.43,952.59c-1.11,2.45,8.33,1.4,9.06,5.79s3.6,9.89,5.36,5.11,6.62-4.15.42-8.41-8.33-6.17-3.72-10.19C3693.55,944.89,3683.54,950.13,3682.43,952.59Z"/><path class="cls-4" d="M3760.1,997.6c-5.67.54,10.87,3.82,9.71-1.52s3.71-4.07-4.57-7.3C3765.24,988.78,3765.78,997.06,3760.1,997.6Z"/><path class="cls-4" d="M3741.26,999.09c1.46,3.12-2.28,3.76-2.28,3.76s-5.37,4.17,2.93,2.88S3739.8,996,3741.26,999.09Z"/><path class="cls-4" d="M3969.84,1102.66c-5.91-10.79-16.33-8.24-16.33-8.24s-11.43-16.71-25.35-18.23-26.35-12.5-35.57-24.53-17.1-3.74-19.56-9.7-19.06-23.26-23.93-20.69,4.12,26.28,4.32,37.14-32.52-1.87-47.74-8.62.86-10.06,0-16.73-20.29-4.8-35.31-4.8-30.76,1.47-32.44,11.79-12.7,6-12.7,6,4.78-5.22-11.32-6S3699,1047.55,3691,1052s-.45,12.41-6.15,6.38-12-1.87-11,2.64,1.11,14-10.69,14.76-35.9,4.57-51,14.52-7.33,8.86-1.92,20.09-1.06,8.19.43,12.89,29.18,27.69,35.34,36.5-2,11.68-2,11.68c2.92,11,11.21,13.4,29.42,13s7.06-11.78,22.54-10.16,32.43-1.62,32.43-1.62c9.26-12.49,32.36-6.86,40.21-10.88s24.4-4.42,34.48-4.42,37.6,12.88,38.07,17.33,14.07,12.2,10.67,7.31,13.08-15,13.08-15c8.09,1.61,5.73,14.58,5.73,14.58,5.56-4.88,8.82,6.52,8.82,6.52,6.11,1.23,9.79-3.67,16.73,9s34.62,15.69,40.56,17.9,11.07-6.77,11.07-6.77c14.79,8.29,25.44,6.63,25.44,6.63,5.45-12.41,34-7.46,34-7.46-4.92-7-8.23-29.09-3.65-40s9.58-12,.28-35.88C3994.75,1108.09,3969.84,1102.66,3969.84,1102.66Z"/><path class="cls-4" d="M3981.76,1235c-10.78,0-22.33-3.37-22.33-3.37,1.7,7.16,12.81,10.95,12.81,10.95,3.78,9,8.5,12.73,16.7,14.44s8.13-3.84,12.16-9.36-6.1-14.35-6.1-14.35S3992.54,1235,3981.76,1235Z"/><path class="cls-4" d="M3641,776.86a15,15,0,0,0,7.63,0c4.23-1.08-5.67,3.11-.94,7.78s7.55,5.62,11,3.27,11.83-4.87,4.53-11.22S3647,769.75,3641,776.86Z"/><path class="cls-4" d="M3706.12,752.88c-7,.61-9.79,1.22-13,5.35s-20.82,4.29-28.77,4.75-14.25,6.46-14.25,6.46c8.07,1.54,10,.92,10,.92,11.39-6.46,26.64-2.77,26.64-2.77.29,2.16-.44,3.08,1.32,4.14,11.85,7.09,11.86-7.22,11.86-7.22,6.39,1.08,5.52,2.31,12.33,3.08s10.1-6,10.1-6,2,5.07,9.92,2.45-4.95-18.31-4.95-18.31,9.5-3.79,5.62-9.37-8.69-8.85-14.58-8.85-5.22,3-5.22,3C3716.51,737.73,3713.16,752.27,3706.12,752.88Z"/><path class="cls-4" d="M3711.67,714.86c-6.87.29-7.93,5.64,7.85,7.73,0,0-12.23-3.87-1.56-3.87s12.27,6.55,20.25,3.87-4.82-6.55,15-6.25c0,0,3.62-5.33-8-7.69s-22.09-4.13-27.43-9.71c0,0-6.53.64-.3,12.09C3717.51,711,3718.53,714.56,3711.67,714.86Z"/><path class="cls-4" d="M3716.38,695.43s-2.5-4,3.78-4.66,12.18,4.66,12.18,4.66c1.36-4.37-17.66-9.61-17.51-17.71s18.53-1.44,18.53-1.44c-4.63-2.3-16.61-9.76-23-20.3s-10.67-22.23-12.34-19.43-2.54.84-2,8.41,1.68,6.77,5.5,13.86.1,7.7,3.36,15.74S3716.38,695.43,3716.38,695.43Z"/><path class="cls-4" d="M3780.91,698.94c3.05-.29,10.12-3.51,10.12-3.51C3781.84,692.51,3777.86,699.24,3780.91,698.94Z"/><path class="cls-4" d="M3762.06,705.7s11.42-.59,13.65-5.29S3760.72,701.29,3762.06,705.7Z"/><path class="cls-4" d="M3672.88,774.85c-.07-2.32,8.26-.47,10.43-.47s2.47-4.13-7.89-5.71c-2-.31-10.6,1.41-10.05,5,0,0,5.42,5,6.08,6.71S3672.94,777.17,3672.88,774.85Z"/><path class="cls-4" d="M3591.33,821.44c-4.07-3.51-11.83,1.29-14.86,7.07,0,0,4.17,10.65,10.29,10.65s-1.77-3.56,1.25-7.76S3595.4,825,3591.33,821.44Z"/><path class="cls-4" d="M3505.56,850.23c.26-4.57-1.93,1-10.62,0,0,0-10.08,2-10.54,5.89s7.34,5.58,13.77,4.6S3505.31,854.81,3505.56,850.23Z"/><path class="cls-4" d="M3928.79,989.48c12.84-8.07,7.79-6.26,3.59-10.49s-23.81-5-23.81-5c28,9.28,14,6.78,10.84,12.84s-24.6,0-24.6,0C3912.07,998.28,3915.89,997.6,3928.79,989.48Z"/><path class="cls-4" d="M2971.46,1035.28c-2.12,7.42-9.54,15.63-28.57,16.75s-16.94,4.13-13.63,12.79,7.12,11,.12,19.38-5.1,3.45-1.6,14.21,13.85,16.3,13.85,16.3c27.18,2.73,28.85-20.15,34.17-37,5.27-16.66,10.69-26.42,8.7-38S2973.57,1027.89,2971.46,1035.28Z"/><path class="cls-4" d="M2935.06,473c7-.66,14.33,5.59,13.21,6.91s5.81,4.63,12.92,4.29,14.29,0,14.29,0-21.17-7.59-18-22c3.16-14.23,39.95-40.95,50.42-42.83s38.43-8.14,41.32-13.12.44-8.05-14-8.36-11.82,8.05-11.82,8.05-17.8,5.29-22.95,3.42-11.05.62-13.77,3.43-12,0-13.43,3.13-7.4,5.65-10.21,8.17-10.48,2.21-5.24,7.91c0,0-6.34,4.76-7.14,8.27s-17.62,1.92-12.73,5.13,6.11,4.5.28,8.05-7.31,7.12-2.8,7.12-3.16,5.54-8.36,5.21S2928,473.69,2935.06,473Z"/><path class="cls-4" d="M3657.27,908.79c-6.08,0-6.41,4.77-15.05,3.86s-18.34-1.37-15.63,8.67-.6-1.78,5.41-3.18,13.73-2.09,13.5.43c0,0-3.18,6.18,9.49,8.48s-2.39-3.67.6-7.56,4.65-.26,8.89,3.07S3663.36,908.79,3657.27,908.79Z"/><path class="cls-4" d="M3595.75,877.93c11,4.17-2.38,3,7.63,6.68s8.24-4,3.62-4.34-2.81-8.15.17-9.31,5.46-.5,3.92-4.14-4.43-3.3-4.43-3.3c-2.7-6.42-16-5.6-16-5.6-2.81,2.47,6.06,11.21,5,13.76S3584.75,873.78,3595.75,877.93Z"/><path class="cls-4" d="M3634.58,898.56c-5.81,3.72-2.69-1.18-11.62-2.36s-8.57-.68-4.07,5.23,4.94,3.34,2.53,7.36,4.72.45,10.42-1.08,3.89-4.24,14.07-5.26,5.21-9-.08-10.46-13.13-2-13.72-4.53-12.17-4.19-14.9-3c0,0,9.46,2.85,12.34,7s3.08,2.7,7,1.85S3640.38,894.85,3634.58,898.56Z"/><path class="cls-4" d="M3606.49,887.29a16.76,16.76,0,0,0-10.35-.67s12.14,3.86,12.44,6.88S3612.26,889.47,3606.49,887.29Z"/><path class="cls-4" d="M3580.27,913.44s10.29-4,12.35-6.92,3.89-6.51,1.26-9.23-2.12,6.31-6.53,8.05-14.29,5.94-10.31,8.1A3.05,3.05,0,0,0,3580.27,913.44Z"/><polygon class="cls-4" points="1737.78 852.05 1737.78 852.06 1737.79 852.06 1737.78 852.05"/><path class="cls-3" d="M2166.05,988.24c-12.45-2.87-11.12-11.45-35.7-14.65s-27.94-.36-44.49-8.86-37.14-.36-31.49-14.77-39.7-23.6-58.21-22.91c0,0-29.63-16.45-44.78-22.56s-18.06,1.69-30.19,0-26.72-7.11-36.72-12.5-31.68,10.46-46.8,7.42-4.7,6.88-23.22,14.15c0,0-13.46-14.49-32.86-5s-21.44-7.24-21-11.29,13.59-20.56,5.83-22.33-44.29,2.22-42-2.66,13.74-12.82,13.38-20.22c-1,.64-2,1.27-3,1.91,5.08-3.17,10-6.61,11.29-8.42,2.61-3.68-12.39-5.63-32.43-2.17,0,0-9.46,15.69-18.29,15.26s-33.9,4.16-39.25-13.31c-5.27-17.25,8.88-30.7,8.88-30.7s4.59-11.42,16.46-11.84,1.65-7.14,12.61-7.14,24.79,2.51,36.23,3.35,5.19-9.48,12.91-8.51,26.77,5.57,43.73,2.64,6.29,13.45,6.29,13.45-3.23,11,10.28,15.29,3.67-7.66,5-17.4,3.72-20.51,17.28-24.66,36.63-9.08,43.3-23,12.13-13,14.75-17.41,8.7-11.23,22.36-11.63,18.24-4.38,20-11.12,26.06-10.65,29-11a3.14,3.14,0,0,0,2.55-4.18c0,.1.12.2.15.3l.39,0c21.8-5.47,13.31-5.47,8.52,2.74s-3,6.69,16.24,3.15,36.86-9.8,33.58-14.08-4.23-3.11-12.59,2.72-16.9-3.11-25.27-3.5,1.23-8.14,1.23-8.14-23.91-2.71-7.41-4.25,18.62-7.68,4-8.06-46.76,16.18-46.76,16.18,26.59-16.57,42-22.68,46.83,5.73,56.9-1.9a22.56,22.56,0,0,1,20.31-3.8L2024,685.34s12.81-.77,32.31,0,24.31-12.7,15.38-13.47-30,6.14-16.58-4.2,10.39-26.45,2.26-27.2-3.85-7.83-3.85-7.83c-23.25-.74-33.3-14-33.3-14,5.27-5.14-14.12-27.3-14.12-27.3s-11.84-4.31-11.8,4-21.1,11.25-22.57,6.16-8.39-1.82-8.39-1.82l1-17.64c-3.28-.36-12.64-.71-20.51-6.77s-9.65-4.27-16.47-3.91-7.4-2.48-20.8-2.62-5.76,8.66-8.64,19-13.13,13-13.13,13c17.71,12.39,11.07,24.17,11.07,24.17-32.44,7.78-27.07,15.61-27.07,15.61,6.6,6,8.6,11.26-1.32,16.93s-24.5-11.31-24.5-11.31l6.06-16.05s-25.78,1.11-26.84-2.22-8.61-3.33-19.13-9.23-31-3.67-31-3.67c1.23-8,14.8-16.4-6.42-13.87s-7.47-20.52,1.31-20.52,16.52-13.5,23.24-13.5,8.4-3.18,11.86-7.75,25.51-4.56,30.78-10.85-6.49-4.87-10.48-4.87-7.47-7.95,5.17-3.81,17.15-5.61,32.68-7.67,25.85-7,29.36-10.53-7.88-12-7.88-12,6.9,0,9.76-4.81-9.89-9.8-17.57-10.3-12.43,2.25-9.91,8.54-9.14,1-11.34,9.87-26.48,15.33-17.61,4.32-4.92-20.48-2.49-15.7-11.89,8.08-11.89,8.08,8.85-9.34-3.27-11.35-4.92-6-6.16-11.25-3.45-16.32-6.6-17.06-11.64,2.95-17.53,13.83-2,7,6.13,12,6.68,9.56-5,15.13-6.53-4.06-7.31-8.6-11-10-20.24-3-1.78,8.07-1.78,8.07,13.36,7.1-16.31,10.16-40-12.18-43-12.18,2.71,6.07-19.31,9.63-53.68,1-53.68,1,21.09-11.16-1.52-11.16-39.66-11-51.82-10-24.8,14.61-26.83,5.52-13.85-11-20.15-10c-17.44,2.76-17.14-1-31.92,5.82s-33.43,17.35-43.75,7.72-17.06-7.54-17.06-7.54c-11-2.92-23.06-6.33-37.22-5.34s-13.34-4.65-27.66-3.32-17.64-5-27.38-5-8.42-7.58-19.77-6.92-29.16,12.22-45.6,12.55-15.59,14.37-31.66,15-36.43,8.09-21.51,8.09,17.74,13.27,27.76,14.29,7.11,8.93-7.37,10-5.36-7.23-11.4-5.85-31.88,3.78-33,11.72,17.74,12.54,34.23,8,24.63,10.15,8.08,9.8-18.64,6-27.75,6.69-25.52,8.5-20.69,13.19-2.34,4.23,6.26,12c5.24,4.74,11.29,1.52,14.76-1.41-1.76,3-2.64,7.3,2.58,9.49,7.78,3.27,1.36,2.54,19.25,2.18s10.14,4-4.72,12.76-62.84,21.06-62.84,21.06c75.82-11.86,72-20.32,92-25.81s14.79-6.2,16.35-10.55c1-2.85,16.9-8.61,27.72-12.25-9.78,4.77-10.26,11.7-8.06,13.7,2.79,2.54,22.88-9,33.85-10.67s-5-17,11.07-7.34,48.7,7,48.7,7c44.72,17.93,46.76,33.88,64,43.89s-7.46,28.75,17.11,29.9,27.13,12.61,27.13,12.61,9.67,5.38-7.32,5.77-11.39.38-9.2,8.51-4.52,19.15-11.94,26.65-11.14,22.75-5.29,25.16,3.25,12.15,15.4,21.13,22.55,8.62,24.59,14.4c.77,2.17,2.26,2.77,4.38,2.65h-.71s-.25,12.53,6.5,16.71,10.22,9.47-4.14,10.53c0,0,10.1,4.23,18.59,7s-1.07,8.52,3.57,10.87,11.82,10.74,17,8.8,1.75-3.66-4.16-8.59,3.65-5.73-8.78-18.48S1522.11,790.42,1526,786c0,0,7.64,0,8.92,5.63s18,19.57,23.39,22.75-6.08,4.47,1.52,6.81,29,17.82,22.33,26.93c0,0-5.31,4.35,5.6,7.19s53.93,19.37,66.85,17.82,23.35-1.33,27.63,4c1.62,2,3,2.46,4.26,2.19l-.47.07s7,6.19,21.06,4.85,1.19,5.81,18.65,3.13c0,0,5.64,11.22,13.7,12.12,0,0-4,5.87,4.31,5.87s5.39,10,18.61,9.08,10.46,8.68,18.38,5,23-13.81,22.67.83c0,0,7.9,8.79-5.52,19.88s-40.07,24.88-36.46,30.55,6.45,4.62-4.26,12.11,4,13.3,7.37,18,24.35,38.13,23.63,43,45.41,13.84,44.13,25.92-11,43-28,73.3c-17.31,30.88-2.06,29.66-32,55.77,0,0-8.85,31.15-15.29,38.71s-13.76,18.22-6.4,16.94,11.74-20.31,20-17.78c0,0-16.89,40.07-26.25,48.72s-22.86,34.63-17.59,46.64-7.62,26.08,8.14,33.8,12,15.09,38.13,16.47,30.29-1.84,42-3.67-31.57-.92-33.5-27.76c-1.9-26.41-.6-26.41,11.46-27.74s2.73-5.76,10-11.5,23.43-8.35,25-17.54-19.6-4.35-15.34-16.49,24.75-9.47,24.75-9.47l1.24-13.25s17.87,0,20.09-6.8-11.7-1.7-12.94-7.19,1.2-13,13.46-5.9,18.45-11.32,18.45-11.32.74-8.75,24.51-7.92,36.15-9.94,39.75-21.06-11.35,3.29-9.25-9.41,9.39,2.86,26.28-3.25,36.18-19,38.28-23.44,25.38-16.29,33-24-.69-16,11.75-23.75,42.72-14.32,53-13.94,30.63-20.68,33.82-29.4,9-26.63,19.21-34.78,36.22-16.19,36.26-32.92C2184.35,983.22,2178.52,991.11,2166.05,988.24Zm-209.19-288a4.58,4.58,0,0,1,.58.72A5.23,5.23,0,0,0,1956.86,700.24Zm-.46-.45a8.85,8.85,0,0,0-1.13-.73A8.85,8.85,0,0,1,1956.4,699.79Zm-1.75-1.08a15.68,15.68,0,0,0-2.55-.94A15.68,15.68,0,0,1,1954.65,698.71Zm-435.34,79.08a35.46,35.46,0,0,1,4.29-.46A35.68,35.68,0,0,0,1519.31,777.79Zm-8.14,1.76,1.53-.35Zm4.08-.95c.85-.2,1.74-.37,2.66-.55C1517,778.23,1516.09,778.41,1515.25,778.6Zm172.6,100.12c.14-.1.27-.21.4-.32C1688.12,878.51,1688,878.62,1687.85,878.72Zm1.59-1.45-.4.42C1689.18,877.55,1689.32,877.41,1689.44,877.27Zm.75-.86a13.35,13.35,0,0,1,.91-1A13.35,13.35,0,0,0,1690.19,876.41Zm32.15-15.58c.37-.13,1-.4,1.68-.74C1723.32,860.43,1722.71,860.7,1722.34,860.83Zm2.08-.94c.73-.36,1.57-.8,2.5-1.31C1726,859.09,1725.15,859.53,1724.42,859.89Zm3-1.6c1-.53,2-1.11,3.07-1.75C1729.44,857.18,1728.42,857.76,1727.45,858.29Zm6.65-3.9c-1.16.71-2.31,1.41-3.42,2.06C1731.79,855.8,1733,855.1,1734.1,854.39Z"/><path class="cls-3" d="M2355.24,493.22c-1.78-1.67,10.16-3.67,6-13.93s3.64-15.73,3.06-16.71-7-11.65,1.3-12.3,7.89-2.89,8.37-7.71,10.71-3.51,10.27-6.38-7.7-6.67-4.16-10.46,11.44-6.93,3.57-10.69-2.85-3.13-14.36-7.8,15.74-8.36,19.6-8.36,8.05,2.16,8.61-4-8.14,0-11-9.36-13.68-.45-12.31-7.75,2.43-11.77,8.18-13.58,8.35-8.07,10.19-15.19c0,0,11.84-2.67,14.08-7.09H2061.08c.11,4.72-3.26,8.57-6.9,10.94s-6,7.15-6,7.15c-20.84-.6-52.66,5.39-55.43,15.95s39,16.16,23.85,16.47-17.06.61-19.18,4,15.85,6.8,15.85,6.8c-2.43,7.14,19.85,11.52,19.85,11.52,3.07-7.49,27.45-1.25,45.62-.63s39.57,38.44,31.08,47.51-8.27,9.79-3,14.38,10.89-14.38,14.4-6.16,21.64,18.73,10.11,17.73-29.52-8.27-25.28-3.65,18.44,8.64,26.14,9.31,1.2,14.08-10.15,15.09-12.18,5.08-15.84,18,23.69,48.14,26.66,53.85,24.55-1.43,22.31,3.57,14.26,7.41,14.26,7.41,12.68,1.21,16.61-14.19c3.88-15.23,4-11.78,13.32-15.62s-4.39-9.9,8.56-15.76,29-6.88,40.52-13.08,28.2-12.67,26.35-18.45,24.08,2,40.69-4.73S2357,494.88,2355.24,493.22Z"/></g><path class="cls-5" d="M4023.64,489.62c-19.69-8.74-33.94-7-33.94-7s17.13,14.44-8.24-1.19c-25.07-15.45-73.62-27.54-73.62-27.54s-27,.84-32.27-2.5-32.05-4.17-20.77,2.83,11,10.24.14,9.57-12.79-7.39-12.79-7.39,12.22-5.68-.34-7.35-9.29,5-9.29,5c-23.53-5.51-37.21-.67-37.21-.67s-17.73,7.54-22-4.5-25.13-10.11-25.13-10.11-40.66,3.47-41.28-1.65-23.79-7.07-23.79-7.07c7.58-7.85-3.38-7.85-3.38-7.85a123.14,123.14,0,0,1-22.55-2.27c-10.29-2.28-34.37-3.74-44-3s-11.14,2.31-8.7,8.42-1.38,6.88-11.19,6.63-15-6.14-19.79-1.6-7.84,3-7.84,3-18.9-12.14-17-2-2,9.64-3.36,10.5-27.91-8.41-24.25-13.7,4.31-6.73,1.51-13.67-7.92-2.55-29.63-9.43-21.71-1.69-21.71-1.69c1.63,6.76,4.48,11.48-17.18,10.15s-19-8.7-19-8.7c-17.08.6-37.27-1-37.27-1s-17.62-4.2-23.8.61-28.48,4.34-28.48,4.34,4.27-6.63,25.13-16c20.69-9.27,20.26-12.11,20.87-19.88s-25.16-13.07-25.16-13.07l-25.18-.69s1.11,6-7.95,4.18,4-8.58,4-8.58c-13.48-2.66-22,1.15-22,1.15-1.21-4.16,8.47-7.15,8.47-7.15s.08-6.88-17.84-4.93-16,10.58-14.19,15.33-4.28,3.25-4.28,3.25c-13.17.12-18.66,5.13-18.66,5.13s4.61,4.8-7.14,5.15-8-5.15-8-5.15c-19.83,1.05-17.65,5.85-17.65,5.85-17.07.94-59.51,14.29-49.2,20.72s2.73,5.51-1.82,8.63-24.76-.24-34.73,2.41-1.07,7.25-1.07,7.25l2.26,9.37s10.64-1.1,12.42,4.77-10,2.08-18.74-2.7-28.8-3.66-23.07-2.81,9.87,5.63,6.32,7.23-3.6,1.35,1.38,6.64-10.13.37-10.13.37-9,4.7-8.84-7.75-11.12-13.48-11.12-13.48c8.35,4.44,4.29,8.34,4.56,9.68s-14.6,4.66-7.3,9.83,5.91,17.88,5.91,17.88,1.75,9.46,11.9,7.78,20.25,3,20.25,3,16.32,15.23,8.34,14.89-16.65-13.88-16.65-13.88-23.2-1.34-14.73,5.06,4.62,6.78-4.72,16.33-25.85,6.87-26.1,5.5,16.39-7.89,19.64-15.05-5.09-12.85-5.09-12.85L3091,434.63s-12.37-.33-6.05-4.6,2.74-12.72,2.74-12.72c-17.92-6.48-27.9-1.3-27.9-1.3-.83,17-16.79,10.74-19.49,17.63s8.38,7.25,8.38,7.25c-1.53,10-6.69,2.65,8.59,15.65,15.45,13.13-7.45,6-23.53,0s-24.65-3-30.83-5-16.09-7.32-17.12-5.45,6.88,6.79,13.21,9.8,2.5,12.1-2,12.78-9.68-7.75-9.68-7.75,1.2,3.7-13.18,4-9.13,5.06-16.31,5.4-5.64-7.76-5.64-7.76c-16.78,2-46.51,11.49-49.42,14.89s-5.93,12-13.87,5.8,4.39-8.18,4.39-8.18a23,23,0,0,0-8-6.78c-5.57-3-17.17-1-17.17-1,2.79,1.69,7.22,6.43,10.8,15.63s-4,12.72-7.59,10,2.86-4.47-17.84.69,7.16,12.48-5.28,14.92-26.94-11.47-29.16-5.92,10.6,7.31,10.6,7.31c-8.23,14.05-30.71-9.39-30.71-9.39s12.19-5.88,3.51-6.57-19.39-12.36-19.39-12.36c30.4,8.91,50.68,13.74,67.15,5.13s-42.52-28.49-42.52-28.49-18.15,2.35-46.24-8c-27.87-10.29-63.83,2-63.83,2s-59.2,19.85-67.25,36.18c-4.08,8.27-23.44,26.69-34.75,29.85s-24.25,7.8-27.37,26.24c-3.16,18.7,6.77,20.89,15,20.75a30.77,30.77,0,0,0,18.95-6.14,18.8,18.8,0,0,1,12.25-3c-1.28,7.63,13.08,20.53,13.08,20.53s-5.89,9.55,5.2,9.69,7.19-2.36,12.57-5,15.65-2.77,15.65-2.77l1-18.92c5.37.27,14.74-2.72,14.33-9.5s-11.31-6.87-11.31-6.87c.29-11.78,5-17.89,5-17.89l27.81-12.54c-.34-18.51,15.36-18,15.36-18s15.87-1.29,13.56,8.83-30.41,17.86-30.41,17.86-.29,15.29.87,20,14.19,7,28.14,6.33,20.5-6.6,31.7-1-26.88,4.73-25.86,4.73-22.77-1.26-22.22,4.88,7.7,5.81,7.7,5.81,7.14-.19,6.71,5.83-8,5.86-8,5.86.47-5.86-10.11-5.86-11.09,6.23-11.09,6.23l1,12c-10.94,2.41-9.09,7.06-10.8,7.81s-14.65-8.55-20.74-3-22.66,6.71-22.66,6.71-5.55-3.36-22.1-2.61-14.11-6.14-12-12.07,1.42-15.07,1.42-15.07c-8.21,2.56-27.44,9.35-18.25,15.07s5,13.93,5,13.93-3.27-1.58-18.52,3.46-19.15,14-19.15,14-7.22-2.84-19.66,7-27.51,8.4-27.51,8.4c1.22,4.6-12.42,4.22-12.42,4.22s-17.1-1-17.68,3.65,8.91,4.24,8.91,4.24c21.42-.19,23.74,12.23,23.43,20.44s-9.16,7.48-9.16,7.48-13.16.79-36.87-.2-18.9,7.32-18.9,7.32l-.66,16.35a8,8,0,0,0-7,8.86l7.55-.2-.49,7.95c21.25-1.57,24.66,7.91,24.68,8-1.22-.39-2-.69-2-.69-.86,5.83-13.64,11.07-13.64,11.07a24,24,0,0,0-21.62,14.9c-6.5,15.37,3.5,5-25.44,18.85a133,133,0,0,0-45.92,36.84s20.66,9.77,5.87,25.55c-14.94,16-8.1,21.64-8.1,21.64s66.33,51.9,89.09,47,43.28-2.42,47.88-2.42,6-6.22,35.89-7.94,33.67,10.36,33.67,10.36c18.36,5.9,42.06-12.08,31.6,10.08-10.61,22.49-.16,26.75-.16,26.75,39.82,26.52,34.6,39.22,34.6,39.22,11.35,15-1.07,22-1.07,22-19.07,19.36-8.21,54.22,7.59,61.9s11.27,31.91,11.27,31.91c16.07,7.88,36.36,35.78,36.36,35.78-.76,21.87,16.61,17.8,16.61,17.8s21.08-3.66,55.95-4.06,66.78-44.8,66.78-44.8-1.63-15.3,18.05-21.92-2.14-29.28-2.14-29.28,2-14,40.86-23.47c38.63-9.37-1-38.59-4.47-51.36s-7.24-29.49,57.7-60.51c63.6-30.38,39.63-53.09,39.63-53.09s-25.65,8.77-60.9,9.11c0,0-17.36-20.5-47.94-27.83,0,0,1.12-12.89-21.18-18.15,0,0,6.23-12.73-13.61-24.38,0,0-34.61-45.25-54.79-45-26.78.28-64.74-7.47-64.74-7.47s-22.5-5.89-20,7.16-41-1.87-41-1.87-5.54-7.77-25.14-7.77-21.77-3.72-21.77-3.72,1.65-3.39,6.14-13.22-19-6.42-19-6.42c-85.37,1.53-65.06,8.26-85.74,10.71a86,86,0,0,1-35.13-3.29c.06,0,18.12-7.41,29.91-5.79s20.87-9.93,19.23-14.17,6.07-10.23,12.87-10.83,16.21-6,16.21-6l.21-8.73c11.06-2.37,24.49.79,27,.79,13.22,0,27.75-10.63,29.15-6.9s13.11,14,32.74,20.42,18.73,11.83,14.11,14.45-28,3.84-28,3.84l26.34,8.93s-1.54-8.12,3.85-8.12,15.25-10.29,15.25-10.29-12.22-3.21-6.18-5.22,13.65,3,13.65,3c-.18-8.2-21.26-10.59-21.26-10.59l1.73-3.58s-3.18,1.79-8.53.79-18.23-12.46-21.79-17.76,18.35-3.92,18.35-3.92c2.61,11.59,37.23,20.89,37.23,20.89-.55,6.57,3.88,12.17,3.88,12.17,18.18,9.65,17.35,17.54,17.35,17.54,19.79,9.36,16.46-2.43,16.46-2.43,6.53,1.41,16.91.4,16.91.4-5,.61-31.81-16.32-18.85-13.91s6.93-5.61,6.93-5.61c16.1.8,19.17,5.41,19.17,5.41,7.85,21.42,25,24.48,31.42,23.87s11.13-6.66,11.13-6.66,3.36,7.68,18.06,6.25,19.14-4.48,19.14-4.48,14.44,9.39,4.31,13.9-4.79,13.41-14,17.36-30.39,2.35-30.39,2.35c12.7,4,27.79,21,27.79,21,4.57-4.8,10.76-1.54,10.76-1.54s25.48,15.29,21.4,19.57c0,0,16.63,4.29,17.07,18.11,0,0,19.21,6.52,29.62,21.86,10.53,15.5,12.23,24.57,13,25.18s23.17-2.09,51.7-10.13c28.37-8,24.11-12,58.32-14.17,0,0,31.86-17.53,30-29.67s-33-12.89-33-12.89l-2.84-9.81s.37,11.52-37.77,12a137.92,137.92,0,0,0-27.56-23c-15.73-9.66,13.55-9.24,13.55-9.24s16.34,19.4,34.06,19.82,18.48-4.66,18.48-4.66,10.71,8.07,21.89,8.92,69.59,1.7,69.59,1.7,21.59,9.42,21.46,12.86,16.07-1.29,16.07-1.29,3.33,6-11.43,6.46c0,0,21.3,14.77,29.86.87,0,0,4.88,21.78,11,30.14s46.7,44.84,46.7,44.84,12,2.74,23.76-17.2c11.59-19.67-24.35-18.78,20.82-35.56,44.64-16.59,30.43-20.06,30.43-20.06s23,6.08,34-3.89c0,0,9.2,13,28.32,17.81s7.83,15.83,7.83,15.83,10.13,6.75,24.7-3.09c4.2-2.84,9.8,3.64,14.21,11.62s5.59,26.93,9,31,19.39,14.38,19.39,14.38a63.31,63.31,0,0,0,10.93,12.44c26,20.26,40.73,13.24,34.81,10.79s-9.36-10.45-15.2-18.75-27.57-10.32-27.57-10.32c-1.81-6.5-14.45-10.93-14.45-10.93-2.79-10.16,4.17-19.93,4.17-19.93,35.17,6,10.57,11.45,32,12.81s16.36,13.16,16.36,13.16c33.71-11.33,33.1-18.91,33.1-18.91,3-16.09-12-20.75-12-20.75s-19.66-1.66-27.51-14.88,14.87-17.65,14.87-17.65c81.41-1.62,93-25.12,101.24-38.14s-2.6-22-2.6-22-7.85-.62-11.06-6.83S3550.86,722,3550.86,722c-1.89-10.4,22.79-3.06,20.47-9.79s-16.87-6.7-16.87-6.7c-7.49,3.35-10.93,2.74-10.93,2.74-21.18-7-14-4.86,3-16.63s13.51,8.13,13.51,8.13c.89-2.11,32.82-13.53,29.37-2.11s15.3,9.69,15.3,9.69c2.7,24.23,2.14,21.14,20.23,15.6s5.9-13.47-7.45-22-2.51-3.93,8.94-18,23.39-6,23.39-6c40.34-20.66,45.69-41.58,45.69-41.58l-6.37-19.75s4.21-10.19-7.34-16.94-7.18-1.12-19.5-.84-27.76-7.55-27.76-7.55l49.55-36.55s35.79,5.16,43,1.62,26.14-.81,26.14-.81-13.49,3,14.8,3.53,9.7-5.7,9.7-5.7c1.2-18.82,36-23.35,35.82-19.35s-5.18,10.71,3.83,10.45,26.46-17.9,27.11-11.25S3834.19,542.71,3820,556s-27.08,11.18-24.7,22.18,24.8,36.68,26.33,41.23,18.15,5.42,15.67-5.69,7.1-10.55,7.1-10.55c-5.8-9.53,11.33-12.69,11.33-12.69s-13.09-3-5.89-9.63,6.25-13.58,1.22-13.4-12.71-12.54-.25-17.77,19.92.54,19.92.54a17.47,17.47,0,0,1,11.84-6.3c7.52-.53,19,5.58,19,5.58.22-5,28.08-25.33,44-23.74s20.6,14.4,18,1.77-22-19.68-22-19.68c9.42-1.74,18.27-1.39,19.1-6.78s-13.87-11.23-4.8-10.37,11.2,8.63,14.19,8.63-.51-6.56,27.12,5.91c27.9,12.59,11.8.87,20.45-6.43S4043.47,498.42,4023.64,489.62Z"/><path class="cls-5" d="M2485.49,582c-2.9,6.38,1.58,9.73,1.58,9.73,17.12-1.68,13.22,4.9,13.22,4.9s5,3.78-.7,4.06-8.92,2.25-7.57,6.76-8.33.28-8,3.67,9.09,6,7.52,6-17.22,10-17.22,10c16-6,55.18-6.29,55.18-6.29,10.85-.3,6.34-2.28,6.34-2.28l-3.05-2.84c3.29-5.1,6.05-10.47,6.05-10.47h-12c.18-5.06-3.27-10.11-9.91-12.49s-8.37-10.15-8.37-10.15-10.91,2.22-7.08-2.77,11.24-11,6.64-11.28-22.79,5.21-14.82-.55,3.47-8.74,3.47-8.74c-18,1.63-16.19,7.09-19.65,14.5S2488.38,575.64,2485.49,582Z"/><path class="cls-5" d="M2450,606c-6.75,7.92-12.41,6.78-4.76,10.47s2.71-2.84,15.82-4.26,9.6-13.53,9.6-13.53c9.08-5.32,7.62-7,1.18-10.06s-16-1.95-15.19,2.51,5.87,5-4.51,5.46-13.06,1.81-9.83,6S2456.72,598.16,2450,606Z"/><path class="cls-5" d="M2401.41,510.85c8.46-5.49,7,.53,11-5.49s5.22-15.57-13.74-14.54-8.62.78-20.4,2.33-13.74,6.22-19.51,4.14,3-4.92-7.5-9.3c0,0-12.38-.26-2.22,7,0,0-10.64-2.85-14.67,2.07s17-.77,17,3.9-11.45,4.43-11.45,4.43,19.12,3.66,8.75,7.07-.8,2.89,5.72,2.89,10.7,3.42,19.69,3.95S2392.91,516.37,2401.41,510.85Z"/><path class="cls-5" d="M3244.26,864.15s-6.91,2.38-5.17,10.57,9.86,8.58,14.3,7.89,6-4.23,3.74-9.14S3244.26,864.15,3244.26,864.15Z"/><path class="cls-5" d="M3494.79,933s-27.41-7.5-31-15.6-66.48-30.64-81.59-31.33c0,0,41.07,18.68,47.84,27.84,9.26,12.53,43.78,35.55,56,35.19S3503.26,953.77,3494.79,933Z"/><path class="cls-5" d="M3580.7,966.27c12.62-1.09,16.4-2.18,15.22-2.18a179.73,179.73,0,0,1-28.42-6c-13.31-4-17.67-2.89-27-2.53s-17.53-1.62-22.11-4.15-21.26-1.08-16.72,2.71c0,0,11.68,8,34.12,8.14S3568.06,967.36,3580.7,966.27Z"/><path class="cls-5" d="M3521.9,919.52a16.88,16.88,0,0,1,12,13.46c10.77-2,8.59-.53,24,1.07s10.52,4.64,23.85,5.18,9.19-13,9.19-13c11-2,7.9-13.93,7.9-13.93,13.69,2.81,15.56-3.68,8.59-3.33s-20.32-7.68-19.51-11.33,15.56-4.34,13-4.34a6.58,6.58,0,0,1-4.43-2.08c5.46-2.59,3.5-4.14,3.5-4.14-7.7-.69-12.4-4.48-16.46-5.51s-8.88-1.72-9.75,0-5.93,9.13-12.6,9-3.52.69-6.75,1.38,4.83,5.21-3.42,5.55-6.43,1.57-12.53,7-7.69.35-16.73,1.22S3511,916,3521.9,919.52Z"/><path class="cls-5" d="M3617.48,935.66c5.67.35,5,1,7.67,7.59s6,6.46,6,6.46c5.4-.09,3.57-2.87,3.57-2.87-2.63-6.45-6.1-13.23-.48-12.16s8.39,6.6,18,11.89,7.75-.9,7.15-3.05-3.57-2.69-3.57-2.69c-7.49-.09-1.76-5.89-6.93-6.06s-7.88-5.52-7.88-5.52-3.25-3.54,3.51-4.6,9.87-3.8,9.87-3.8c-9.16-2.56-15.85.79-20.71.61s-8.84,7.35-9.36-.61,12.34-4.67,22.9-4.76,12.82-1.49,17.88-4.39-2.19-7-3.71-3.94-6,3.59-14.42,4.29-4.47-.79-16.5-1.67-12.15,5.18-11.22,8.35-2.2.35-.87,3.88,2.26,5.4-1.36,8.51S3611.81,935.3,3617.48,935.66Z"/><path class="cls-5" d="M3621.15,964.18c-9.61.81-13.48-2.91-21.69,2.63,0,0,1.83,2.46,9,2.19s12.29-2.1,18.9-2.19S3630.75,963.36,3621.15,964.18Z"/><path class="cls-5" d="M3635.69,973.65c5.92,0,5.43,4.67,8.4,3.85s7.89-1.19.88-4.39-4.52-3.29-10.39-2.74-5.77-1.37-6.31,1C3628.27,971.37,3629.78,973.65,3635.69,973.65Z"/><path class="cls-5" d="M3675.91,977c2.93-.09,10-1.83,11.49-5.58s10.74-.55,15.11-4c0,0,2-2.55-7.78-2.36s-9.2,1.91-12.76,5.64-6.48-1.64-12,10.07C3670,980.8,3673,977.13,3675.91,977Z"/><path class="cls-5" d="M3819.34,931.92c-2.9-2.37-14.86-1.19-26-3.88s-17.76,1.27-21.73,5.06-11.35,2.85-14.77-5.06-2.44-8.4-18.62-8.16-30.89,2.35-14.93,5.65,8.29,6.63,16.31,8.29,9.2,7.85,10.37,7.85,4-3.81,4-3.81c6.37,2.38,16.12,6.44,29.58,6.89s27.65,8.66,29.86,14.2-19-2.41-12,3.38,14.92,0,22.19.49,14.73,7.27,14.73,7.27,16.85,2.68,18.1-1.94,3.65-12.1,22.27-5.09,23.46,13.61,38.25,13.12,27,4.89-18.83-14.57C3852.83,942.38,3887.51,939.52,3819.34,931.92Z"/><path class="cls-5" d="M3652.73,968.15c8.16-.85,14.6-2.14,27.25-3.07,0,0-8.5-2.39-26.71.64,0,0-4.6-1.49-14.87-1.53-6.3,0-.66,1.53-.66,1.53A30.83,30.83,0,0,0,3652.73,968.15Z"/><path class="cls-5" d="M3687.74,934.94c-5.22-.71-.52.18-5.75,1.07,0,0,3.5,3.25,7.29,3.23S3693,935.66,3687.74,934.94Z"/><path class="cls-5" d="M3704.19,939.24c3.4-1.09,7.78-2.69,16.49-1.27s11.67,0,8.22-1.44-12.75-2.12-28.77-2.83C3700.13,933.7,3700.79,940.33,3704.19,939.24Z"/><path class="cls-5" d="M3682.43,910.56c-1.11,2.45,8.33,1.4,9.06,5.79s3.6,9.89,5.36,5.11,6.62-4.15.42-8.41-8.33-6.17-3.72-10.18C3693.55,902.87,3683.54,908.11,3682.43,910.56Z"/><path class="cls-5" d="M3760.1,955.57c-5.67.54,10.87,3.82,9.71-1.52s3.71-4.07-4.57-7.3C3765.24,946.75,3765.78,955,3760.1,955.57Z"/><path class="cls-5" d="M3741.26,957.06c1.46,3.12-2.28,3.76-2.28,3.76s-5.37,4.17,2.93,2.88S3739.8,954,3741.26,957.06Z"/><path class="cls-5" d="M3969.84,1060.64c-5.91-10.8-16.33-8.24-16.33-8.24s-11.43-16.71-25.35-18.24-26.35-12.5-35.57-24.53-17.1-3.74-19.56-9.7-19.06-23.26-23.93-20.69,4.12,26.28,4.32,37.15-32.52-1.88-47.74-8.63.86-10.06,0-16.73-20.29-4.8-35.31-4.8S3739.65,987.7,3738,998s-12.7,6-12.7,6,4.78-5.22-11.32-6S3699,1005.52,3691,1010s-.45,12.41-6.15,6.38-12-1.88-11,2.63,1.11,14-10.69,14.76-35.9,4.57-51,14.52-7.33,8.86-1.92,20.1-1.06,8.18.43,12.88,29.18,27.7,35.34,36.5-2,11.68-2,11.68c2.92,11,11.21,13.4,29.42,13s7.06-11.78,22.54-10.16,32.43-1.62,32.43-1.62c9.26-12.49,32.36-6.86,40.21-10.88s24.4-4.42,34.48-4.42,37.6,12.88,38.07,17.33,14.07,12.2,10.67,7.31,13.08-15,13.08-15c8.09,1.61,5.73,14.58,5.73,14.58,5.56-4.87,8.82,6.53,8.82,6.53,6.11,1.22,9.79-3.68,16.73,9s34.62,15.69,40.56,17.9,11.07-6.77,11.07-6.77c14.79,8.3,25.44,6.63,25.44,6.63,5.45-12.41,34-7.46,34-7.46-4.92-7-8.23-29.09-3.65-40s9.58-12.05.28-35.88C3994.75,1066.06,3969.84,1060.64,3969.84,1060.64Z"/><path class="cls-5" d="M3981.76,1193c-10.78,0-22.33-3.36-22.33-3.36,1.7,7.15,12.81,11,12.81,11,3.78,9,8.5,12.72,16.7,14.43s8.13-3.83,12.16-9.35-6.1-14.35-6.1-14.35S3992.54,1193,3981.76,1193Z"/><path class="cls-5" d="M3641,734.83a15,15,0,0,0,7.63,0c4.23-1.08-5.67,3.11-.94,7.78s7.55,5.62,11,3.28,11.83-4.88,4.53-11.23S3647,727.72,3641,734.83Z"/><path class="cls-5" d="M3706.12,710.85c-7,.61-9.79,1.22-13,5.35s-20.82,4.29-28.77,4.75-14.25,6.46-14.25,6.46c8.07,1.54,10,.93,10,.93,11.39-6.47,26.64-2.78,26.64-2.78.29,2.16-.44,3.09,1.32,4.14,11.85,7.1,11.86-7.21,11.86-7.21,6.39,1.07,5.52,2.3,12.33,3.07s10.1-6,10.1-6,2,5.07,9.92,2.45-4.95-18.31-4.95-18.31,9.5-3.78,5.62-9.37-8.69-8.85-14.58-8.85-5.22,3-5.22,3C3716.51,695.7,3713.16,710.25,3706.12,710.85Z"/><path class="cls-5" d="M3711.67,672.83c-6.87.3-7.93,5.65,7.85,7.73,0,0-12.23-3.87-1.56-3.87s12.27,6.56,20.25,3.87-4.82-6.54,15-6.25c0,0,3.62-5.33-8-7.69s-22.09-4.13-27.43-9.7c0,0-6.53.63-.3,12.09C3717.51,669,3718.53,672.53,3711.67,672.83Z"/><path class="cls-5" d="M3716.38,653.41s-2.5-4,3.78-4.67,12.18,4.67,12.18,4.67c1.36-4.38-17.66-9.61-17.51-17.71s18.53-1.44,18.53-1.44c-4.63-2.31-16.61-9.76-23-20.3s-10.67-22.23-12.34-19.44-2.54.84-2,8.42,1.68,6.77,5.5,13.86.1,7.7,3.36,15.73S3716.38,653.41,3716.38,653.41Z"/><path class="cls-5" d="M3780.91,656.92c3.05-.3,10.12-3.51,10.12-3.51C3781.84,650.49,3777.86,657.21,3780.91,656.92Z"/><path class="cls-5" d="M3762.06,663.67s11.42-.59,13.65-5.29S3760.72,659.26,3762.06,663.67Z"/><path class="cls-5" d="M3672.88,732.82c-.07-2.32,8.26-.46,10.43-.46s2.47-4.14-7.89-5.72c-2-.31-10.6,1.41-10.05,5,0,0,5.42,5,6.08,6.72S3672.94,735.14,3672.88,732.82Z"/><path class="cls-5" d="M3591.33,779.42c-4.07-3.52-11.83,1.28-14.86,7.06,0,0,4.17,10.65,10.29,10.65s-1.77-3.56,1.25-7.75S3595.4,782.94,3591.33,779.42Z"/><path class="cls-5" d="M3505.56,808.2c.26-4.57-1.93,1-10.62,0,0,0-10.08,2-10.54,5.89s7.34,5.59,13.77,4.6S3505.31,812.78,3505.56,808.2Z"/><path class="cls-5" d="M3928.79,947.46c12.84-8.08,7.79-6.27,3.59-10.5s-23.81-5-23.81-5c28,9.27,14,6.77,10.84,12.83s-24.6,0-24.6,0C3912.07,956.25,3915.89,955.57,3928.79,947.46Z"/><path class="cls-5" d="M2971.46,993.25c-2.12,7.42-9.54,15.64-28.57,16.76s-16.94,4.12-13.63,12.78,7.12,11,.12,19.38-5.1,3.45-1.6,14.22,13.85,16.29,13.85,16.29c27.18,2.73,28.85-20.15,34.17-37,5.27-16.67,10.69-26.43,8.7-38S2973.57,985.86,2971.46,993.25Z"/><path class="cls-5" d="M2935.06,431c7-.66,14.33,5.59,13.21,6.91s5.81,4.63,12.92,4.3,14.29,0,14.29,0-21.17-7.59-18-22c3.16-14.23,39.95-40.94,50.42-42.83s38.43-8.14,41.32-13.12.44-8-14-8.36-11.82,8.05-11.82,8.05-17.8,5.29-22.95,3.42-11.05.63-13.77,3.43-12,0-13.43,3.13-7.4,5.65-10.21,8.17-10.48,2.21-5.24,7.91c0,0-6.34,4.76-7.14,8.27s-17.62,1.93-12.73,5.13,6.11,4.5.28,8.05-7.31,7.13-2.8,7.13-3.16,5.53-8.36,5.2S2928,431.67,2935.06,431Z"/><path class="cls-5" d="M3657.27,866.76c-6.08,0-6.41,4.77-15.05,3.86s-18.34-1.36-15.63,8.67-.6-1.78,5.41-3.18,13.73-2.09,13.5.44c0,0-3.18,6.17,9.49,8.47s-2.39-3.67.6-7.56,4.65-.26,8.89,3.07S3663.36,866.76,3657.27,866.76Z"/><path class="cls-5" d="M3595.75,835.9c11,4.17-2.38,3,7.63,6.68s8.24-4,3.62-4.34-2.81-8.15.17-9.31,5.46-.5,3.92-4.14-4.43-3.3-4.43-3.3c-2.7-6.41-16-5.59-16-5.59-2.81,2.46,6.06,11.21,5,13.75S3584.75,831.75,3595.75,835.9Z"/><path class="cls-5" d="M3634.58,856.53c-5.81,3.72-2.69-1.18-11.62-2.36s-8.57-.67-4.07,5.24,4.94,3.33,2.53,7.35,4.72.45,10.42-1.08,3.89-4.24,14.07-5.26,5.21-8.94-.08-10.46-13.13-2-13.72-4.53-12.17-4.19-14.9-3c0,0,9.46,2.85,12.34,7.05s3.08,2.69,7,1.85S3640.38,852.82,3634.58,856.53Z"/><path class="cls-5" d="M3606.49,845.26a16.76,16.76,0,0,0-10.35-.67s12.14,3.86,12.44,6.89S3612.26,847.44,3606.49,845.26Z"/><path class="cls-5" d="M3580.27,871.42s10.29-4,12.35-6.93,3.89-6.5,1.26-9.23-2.12,6.32-6.53,8.06-14.29,5.93-10.31,8.1A3.08,3.08,0,0,0,3580.27,871.42Z"/><polygon class="cls-5" points="1737.78 810.02 1737.78 810.03 1737.79 810.03 1737.78 810.02"/><path class="cls-5" d="M2166.05,946.21c-12.45-2.87-11.12-11.44-35.7-14.65s-27.94-.35-44.49-8.86-37.14-.35-31.49-14.77c5.59-14.27-39.7-23.6-58.21-22.91,0,0-29.63-16.44-44.78-22.56s-18.06,1.69-30.19,0-26.72-7.11-36.72-12.5-31.68,10.46-46.8,7.42-4.7,6.89-23.22,14.15c0,0-13.46-14.49-32.86-5s-21.44-7.23-21-11.29,13.59-20.56,5.83-22.33-44.29,2.22-42-2.66,13.74-12.82,13.38-20.22c-1,.64-2,1.28-3,1.91,5.08-3.17,10-6.61,11.29-8.42,2.61-3.68-12.39-5.63-32.43-2.17,0,0-9.46,15.7-18.29,15.26s-33.9,4.17-39.25-13.3c-5.27-17.26,8.88-30.71,8.88-30.71s4.59-11.42,16.46-11.84,1.65-7.14,12.61-7.14,24.79,2.52,36.23,3.36,5.19-9.48,12.91-8.52,26.77,5.58,43.73,2.65,6.29,13.45,6.29,13.45-3.23,11,10.28,15.28,3.67-7.66,5-17.39,3.72-20.52,17.28-24.67,36.63-9.08,43.3-23c6.61-13.78,12.13-13,14.75-17.41s8.7-11.22,22.36-11.62,18.24-4.38,20-11.13,26.06-10.64,29-11a3.13,3.13,0,0,0,2.55-4.17c0,.1.12.2.15.3l.39-.05c21.8-5.46,13.31-5.46,8.52,2.75s-3,6.68,16.24,3.14,36.86-9.79,33.58-14.08-4.23-3.11-12.59,2.73-16.9-3.12-25.27-3.51,1.23-8.14,1.23-8.14-23.91-2.7-7.41-4.24,18.62-7.69,4-8.07-46.76,16.18-46.76,16.18,26.59-16.56,42-22.68,46.83,5.73,56.9-1.9A22.56,22.56,0,0,1,2049,618L2024,643.31s12.81-.77,32.31,0,24.31-12.7,15.38-13.46-30,6.14-16.58-4.21,10.39-26.45,2.26-27.2-3.85-7.83-3.85-7.83c-23.25-.74-33.3-14.05-33.3-14.05,5.27-5.14-14.12-27.29-14.12-27.29s-11.84-4.32-11.8,4-21.1,11.25-22.57,6.16-8.39-1.81-8.39-1.81l1-17.65c-3.28-.35-12.64-.71-20.51-6.77s-9.65-4.26-16.47-3.91-7.4-2.48-20.8-2.62-5.76,8.66-8.64,19-13.13,13-13.13,13c17.71,12.4,11.07,24.17,11.07,24.17-32.44,7.78-27.07,15.61-27.07,15.61,6.6,6,8.6,11.27-1.32,16.94s-24.5-11.32-24.5-11.32l6.06-16s-25.78,1.12-26.84-2.22-8.61-3.33-19.13-9.23-31-3.67-31-3.67c1.23-8,14.8-16.4-6.42-13.86s-7.47-20.52,1.31-20.52S1783.49,525,1790.21,525s8.4-3.17,11.86-7.75,25.51-4.56,30.78-10.84-6.49-4.87-10.48-4.87-7.47-8,5.17-3.81,17.15-5.62,32.68-7.68,25.85-6.95,29.36-10.53-7.88-12-7.88-12,6.9,0,9.76-4.8-9.89-9.81-17.57-10.31-12.43,2.26-9.91,8.54-9.14,1-11.34,9.87-26.48,15.34-17.61,4.33-4.92-20.48-2.49-15.71-11.89,8.08-11.89,8.08,8.85-9.34-3.27-11.35-4.92-6-6.16-11.25-3.45-16.32-6.6-17.05-11.64,3-17.53,13.82-2,7,6.13,12,6.68,9.56-5,15.13-6.53-4.05-7.31-8.59-11-10-20.24-3-1.78,8.06-1.78,8.06,13.36,7.11-16.31,10.16-40-12.18-43-12.18,2.71,6.08-19.31,9.63-53.68,1-53.68,1,21.09-11.15-1.52-11.15-39.66-11.06-51.82-10.06-24.8,14.61-26.83,5.52-13.85-11-20.15-10c-17.44,2.76-17.14-1-31.92,5.83s-33.43,17.34-43.75,7.72-17.06-7.55-17.06-7.55c-11-2.92-23.06-6.33-37.22-5.33s-13.34-4.66-27.66-3.33-17.64-5-27.38-5-8.42-7.58-19.77-6.92-29.16,12.22-45.6,12.56-15.59,14.36-31.66,15-36.43,8.1-21.51,8.1,17.74,13.26,27.76,14.29,7.11,8.93-7.37,10-5.36-7.22-11.4-5.85-31.88,3.78-33,11.73,17.74,12.53,34.23,8,24.63,10.15,8.08,9.8-18.64,6-27.75,6.69-25.52,8.51-20.69,13.19-2.34,4.24,6.26,12c5.24,4.73,11.29,1.52,14.76-1.42-1.76,3-2.64,7.3,2.58,9.49,7.78,3.27,1.36,2.54,19.25,2.18s10.14,4-4.72,12.77-62.84,21.06-62.84,21.06c75.82-11.87,72-20.33,92-25.82s14.79-6.19,16.35-10.55c1-2.85,16.9-8.61,27.72-12.24-9.78,4.76-10.26,11.69-8.06,13.69,2.79,2.54,22.88-9,33.85-10.67s-5-17,11.07-7.34,48.7,7,48.7,7c44.72,17.92,46.76,33.88,64,43.88s-7.46,28.76,17.11,29.9,27.13,12.61,27.13,12.61,9.67,5.39-7.32,5.77-11.39.39-9.2,8.51-4.52,19.15-11.94,26.65-11.14,22.75-5.29,25.16,3.25,12.15,15.4,21.13,22.55,8.62,24.59,14.4c.77,2.17,2.26,2.78,4.38,2.66h-.71s-.25,12.53,6.5,16.72,10.22,9.46-4.14,10.52c0,0,10.1,4.23,18.59,7s-1.07,8.52,3.57,10.87,11.82,10.74,17,8.8,1.75-3.66-4.16-8.59,3.65-5.73-8.78-18.48S1522.11,748.39,1526,744c0,0,7.64,0,8.92,5.63s18,19.57,23.39,22.75-6.08,4.47,1.52,6.81,29,17.83,22.33,26.93c0,0-5.31,4.36,5.6,7.2s53.93,19.36,66.85,17.81,23.35-1.33,27.63,4c1.62,2,3,2.47,4.26,2.19l-.47.07s7,6.2,21.06,4.86,1.19,5.81,18.65,3.12c0,0,5.64,11.22,13.7,12.12,0,0-4,5.87,4.31,5.87s5.39,10,18.61,9.08,10.46,8.68,18.38,5,23-13.8,22.67.83c0,0,7.9,8.8-5.52,19.88s-40.07,24.88-36.46,30.55,6.45,4.62-4.26,12.11,4,13.3,7.37,18,24.35,38.13,23.63,43,45.41,13.85,44.13,25.92-11,43-28,73.3c-17.31,30.88-2.06,29.66-32,55.77,0,0-8.85,31.15-15.29,38.71s-13.76,18.22-6.4,16.94,11.74-20.3,20-17.78c0,0-16.89,40.07-26.25,48.72s-22.86,34.64-17.59,46.64-7.62,26.08,8.14,33.8,12,15.09,38.13,16.47,30.29-1.83,42-3.67-31.57-.92-33.5-27.75c-1.9-26.42-.6-26.42,11.46-27.75s2.73-5.76,10-11.5,23.43-8.35,25-17.54-19.6-4.35-15.34-16.49,24.75-9.47,24.75-9.47l1.24-13.25s17.87,0,20.09-6.8-11.7-1.69-12.94-7.19,1.2-13,13.46-5.9,18.45-11.32,18.45-11.32.74-8.75,24.51-7.92,36.15-9.94,39.75-21-11.35,3.28-9.25-9.41,9.39,2.86,26.28-3.26,36.18-19,38.28-23.43,25.38-16.3,33-24-.69-16,11.75-23.74,42.72-14.33,53-14,30.63-20.68,33.82-29.4,9-26.63,19.21-34.78,36.22-16.18,36.26-32.92C2184.35,941.19,2178.52,949.08,2166.05,946.21Zm-209.19-288a4.22,4.22,0,0,1,.58.73A4.76,4.76,0,0,0,1956.86,658.21Zm-.46-.45a7.87,7.87,0,0,0-1.13-.72A7.87,7.87,0,0,1,1956.4,657.76Zm-1.75-1.08a14.83,14.83,0,0,0-2.55-.93A14.83,14.83,0,0,1,1954.65,656.68Zm-435.34,79.08a35.46,35.46,0,0,1,4.29-.46A35.68,35.68,0,0,0,1519.31,735.76Zm-8.14,1.76c.49-.1,1-.22,1.53-.35Zm4.08-.94c.85-.2,1.74-.38,2.66-.56C1517,736.2,1516.09,736.38,1515.25,736.58Zm172.6,100.11c.14-.1.27-.21.4-.32C1688.12,836.48,1688,836.59,1687.85,836.69Zm1.59-1.45c-.13.15-.26.28-.4.42C1689.18,835.52,1689.32,835.38,1689.44,835.24Zm.75-.86c.33-.4.65-.77.91-1A13.35,13.35,0,0,0,1690.19,834.38Zm32.15-15.58a16,16,0,0,0,1.68-.74A16,16,0,0,1,1722.34,818.8Zm2.08-.93c.73-.36,1.57-.8,2.5-1.31C1726,817.07,1725.15,817.51,1724.42,817.87Zm3-1.61c1-.53,2-1.11,3.07-1.74C1729.44,815.15,1728.42,815.73,1727.45,816.26Zm6.65-3.9c-1.16.72-2.31,1.41-3.42,2.07C1731.79,813.77,1733,813.07,1734.1,812.36Z"/><path class="cls-5" d="M2355.24,451.19c-1.78-1.67,10.16-3.66,6-13.93s3.64-15.73,3.06-16.7-7-11.66,1.3-12.31,7.89-2.89,8.37-7.7,10.71-3.52,10.27-6.39-7.7-6.67-4.16-10.46,11.44-6.93,3.57-10.69-2.85-3.12-14.36-7.8,15.74-8.36,19.6-8.36,8.05,2.16,8.61-4-8.14,0-11-9.35-13.68-.46-12.31-7.76,2.43-11.77,8.18-13.57,8.35-8.07,10.19-15.2c0,0,11.84-2.66,14.08-7.09H2061.08c.11,4.72-3.26,8.57-6.9,10.94s-6,7.15-6,7.15c-20.84-.59-52.66,5.4-55.43,16s39,16.16,23.85,16.47-17.06.62-19.18,4,15.85,6.8,15.85,6.8c-2.43,7.15,19.85,11.52,19.85,11.52,3.07-7.49,27.45-1.25,45.62-.63s39.57,38.44,31.08,47.51-8.27,9.79-3,14.39,10.89-14.39,14.4-6.16,21.64,18.72,10.11,17.72-29.52-8.27-25.28-3.64,18.44,8.63,26.14,9.3,1.2,14.08-10.15,15.1-12.18,5.07-15.84,18,23.69,48.15,26.66,53.85,24.55-1.43,22.31,3.57,14.26,7.42,14.26,7.42,12.68,1.21,16.61-14.2c3.88-15.23,4-11.77,13.32-15.61s-4.39-9.91,8.56-15.77,29-6.87,40.52-13.08,28.2-12.67,26.35-18.44,24.08,2,40.69-4.74S2357,452.86,2355.24,451.19Z"/><path class="cls-6" d="M2510.8,696.77c0,2.86-11.77,5.17-26.29,5.17s-26.3-2.31-26.3-5.17,11.78-5.17,26.3-5.17S2510.8,693.92,2510.8,696.77Z"/><path class="cls-7" d="M2490.38,650.72a6.15,6.15,0,0,1-3.59-5.7V400.71l-4.57-.26V645a6.18,6.18,0,0,1-3.62,5.71,14.8,14.8,0,0,0-8.78,15.81,14.85,14.85,0,0,0,29.54-2.23A14.77,14.77,0,0,0,2490.38,650.72Z"/><path class="cls-8" d="M2466.23,282.29c28.36-1.45,40.77-24.91,56.36-29.27,16.78-4.7,30.75,11,35.53,25.22,15.91,47.51-19.77,109.08-72.67,107.15,41-14,71.76-61.06,56.4-104.81-3.92-10.79-11.4-17.56-21.52-12.22C2503.18,277.52,2486.51,288,2466.23,282.29Z"/><path class="cls-9" d="M2495.28,383.24a95.62,95.62,0,0,0,44-43.83c9.39-19.36,10.9-40.46,4.25-59.41-3.57-9.84-9.38-15.25-16.36-15.25a16.29,16.29,0,0,0-7.63,2.07c-1.36.72-2.71,1.46-4.06,2.19-12.47,6.74-24.26,13.11-37.56,13.14,11.78-3.33,20.4-10.33,28.23-16.68,6.07-4.93,11.32-9.19,16.94-10.77a20.86,20.86,0,0,1,5.61-.78c12.77,0,23.65,12.51,27.79,24.88,8,23.76,3,52.26-12.92,74.4C2531.21,370.32,2513.93,381,2495.28,383.24Z"/><path class="cls-10" d="M2556.46,278.8c-4.14-12.37-15-24.88-27.79-24.88a20.86,20.86,0,0,0-5.61.78c-5.62,1.58-10.87,5.84-16.94,10.77-3.72,3-7.62,6.17-11.94,9,3.81-1.87,7.39-3.94,10.83-5.93,6.77-3.93,12.62-7.32,18.41-8a21,21,0,0,1,5.66.1c12.63,2,21.42,16,23.58,28.91,4.16,24.71-5.18,52.1-24.36,71.47a78.25,78.25,0,0,1-21.24,15.39,91.12,91.12,0,0,1-11.78,6.81c18.65-2.25,35.93-12.92,48.26-30C2559.47,331.06,2564.42,302.56,2556.46,278.8Z"/><path class="cls-7" d="M2501.18,283.6c-6.82,5.67-14.73,10.43-23.5,12.27-12.79,2.52-22.12-3.74-32.86-9.47-24.67-13.16-22.45,26.62-19.25,40.13,5.14,21.64,16.5,44.75,35.65,57.23,19.65,12.81,41.65,7.6,61.39-1.87-18,17.17-43.42,24.73-66.68,13.51-26.57-12.82-42.89-43-47.69-71.08-3.45-20.17-.57-55.93,27.9-54.18,13.34,1,20.07,12.81,31.74,17.3C2478.77,291.63,2490.81,287.35,2501.18,283.6Z"/><path class="cls-11" d="M2478.92,399a50.8,50.8,0,0,1-22.23-5.13c-28-13.49-42.47-44.9-46.73-69.8-2.54-14.85-1.21-34.44,7.48-44.74,4.18-5,9.8-7.46,16.72-7.46.61,0,1.24,0,1.88.06,7.3.54,12.53,4.61,18.06,8.92,4,3.11,8.11,6.32,13.16,8.26a29,29,0,0,0,10.42,1.84h0a49.48,49.48,0,0,0,12.86-2,45.26,45.26,0,0,1-13.22,5.21,28.5,28.5,0,0,1-5.41.53c-8.24,0-15.31-3.86-22.79-7.95-1.15-.62-2.3-1.26-3.48-1.89A20.9,20.9,0,0,0,2436,282a10.92,10.92,0,0,0-8.92,4.4c-7.4,9.35-5.33,31.74-3.25,40.51,6.17,26,19.43,47.24,36.39,58.29a48.43,48.43,0,0,0,26.88,7.91,72.64,72.64,0,0,0,24.74-4.81c-10.23,6.92-21.61,10.64-33,10.64Z"/><path class="cls-12" d="M2480.73,395.92h0a50.86,50.86,0,0,1-22-6c-27.41-14.58-40.68-46.53-44-71.57-1.94-14.81.1-34.13,9-44.16a20.51,20.51,0,0,0-6.31,5.09c-8.69,10.3-10,29.89-7.48,44.74,4.26,24.9,18.77,56.31,46.73,69.8a50.8,50.8,0,0,0,22.23,5.13h0c11.35,0,22.73-3.72,33-10.64-.73.27-1.44.5-2.16.74A57.77,57.77,0,0,1,2480.73,395.92Z"/><path class="cls-8" d="M2497.82,245.81a11.7,11.7,0,0,0-.29-2.58l-3.4-.31a67.12,67.12,0,0,0-16.27.49c-5.22.84-10.55,2.49-14.79,5.76a16,16,0,0,0-6.48,13.46c.23,5.29,2.9,10.32,6.19,14.36-1.24-4.19-2.47-8.61-2.12-13a12.19,12.19,0,0,1,5.58-9.55c3.58-2.36,8-3.4,12.16-4.06a89.4,89.4,0,0,1,13-.93c-.57,2.46-2.69,4.19-4.62,5.62-2.32,1.73-4.82,3.2-7.17,4.88-4.46,3.19-8.63,7.3-9.58,12.93,3.4-6.33,10.05-8.92,16.22-11.8,3.09-1.45,6.25-3.08,8.56-5.65A12.44,12.44,0,0,0,2497.82,245.81Z"/><path class="cls-13" d="M2460.62,272.39a21.47,21.47,0,0,1-3.16-9.79,15.2,15.2,0,0,1,6.15-12.74c3.59-2.78,8.3-4.6,14.39-5.59a62,62,0,0,1,9.74-.75c2,0,4.16.09,6.32.27l2.38.22.38,0c0,.48.09,1.16.11,1.45s0,.34,0,.4a11.56,11.56,0,0,1-2.82,8.93c-2.26,2.51-5.46,4.13-8.28,5.45l-1.62.74c-4,1.83-8.07,3.71-11.28,6.68a26.42,26.42,0,0,1,7.14-7.05c1-.75,2.15-1.47,3.22-2.17,1.31-.86,2.67-1.76,4-2.72,2.06-1.53,4.32-3.39,4.95-6.13l.25-1.08h-1.11a88.9,88.9,0,0,0-13.09.95c-3.76.59-8.58,1.6-12.51,4.19a13,13,0,0,0-6,10.21A27.67,27.67,0,0,0,2460.62,272.39Z"/><text class="cls-14" transform="translate(2426.7 691.6)">Espaa</text><path class="cls-6" d="M2573.1,649c0,2.86-11.77,5.17-26.29,5.17s-26.3-2.31-26.3-5.17,11.77-5.17,26.3-5.17S2573.1,646.13,2573.1,649Z"/><path class="cls-7" d="M2552.68,602.94a6.15,6.15,0,0,1-3.59-5.7V352.93l-4.57-.26V597.24a6.17,6.17,0,0,1-3.63,5.71,14.78,14.78,0,0,0-8.77,15.81,14.85,14.85,0,0,0,29.54-2.23A14.79,14.79,0,0,0,2552.68,602.94Z"/><path class="cls-8" d="M2528.52,234.5c28.36-1.45,40.78-24.9,56.36-29.26,16.79-4.7,30.76,10.95,35.54,25.22,15.9,47.5-19.77,109.08-72.67,107.15,41-14,71.76-61.06,56.4-104.81-3.92-10.79-11.4-17.56-21.52-12.22C2565.47,229.74,2548.81,240.17,2528.52,234.5Z"/><path class="cls-15" d="M2557.58,335.46a95.62,95.62,0,0,0,44-43.83c9.39-19.36,10.9-40.46,4.24-59.41-3.57-9.84-9.37-15.25-16.35-15.25a16.26,16.26,0,0,0-7.63,2.07q-2,1.08-4.06,2.19c-12.48,6.74-24.26,13.11-37.56,13.13,11.78-3.32,20.4-10.32,28.22-16.67,6.08-4.93,11.33-9.19,17-10.77a20.75,20.75,0,0,1,5.61-.78c12.77,0,23.65,12.51,27.79,24.88,8,23.76,3,52.26-12.92,74.39C2593.51,322.54,2576.23,333.21,2557.58,335.46Z"/><path class="cls-16" d="M2618.76,231c-4.14-12.37-15-24.88-27.79-24.88a20.75,20.75,0,0,0-5.61.78c-5.62,1.58-10.87,5.84-17,10.77-3.71,3-7.61,6.17-11.93,9,3.81-1.87,7.39-3.94,10.82-5.93,6.78-3.93,12.62-7.32,18.42-8a21,21,0,0,1,5.66.1c12.62,2,21.41,16.05,23.58,28.91,4.15,24.71-5.18,52.1-24.37,71.47a78,78,0,0,1-21.23,15.38,91.87,91.87,0,0,1-11.78,6.82c18.65-2.25,35.93-12.92,48.26-30C2621.77,283.28,2626.72,254.78,2618.76,231Z"/><path class="cls-7" d="M2563.47,235.81c-6.81,5.68-14.73,10.44-23.49,12.28-12.79,2.52-22.12-3.74-32.87-9.47-24.66-13.16-22.44,26.62-19.24,40.13,5.13,21.64,16.5,44.75,35.64,57.23,19.66,12.81,41.66,7.6,61.4-1.87-18,17.17-43.43,24.73-66.68,13.51-26.57-12.82-42.89-43-47.7-71.08-3.44-20.17-.57-55.93,27.91-54.18,13.34,1,20.07,12.81,31.74,17.3C2541.07,243.85,2553.11,239.56,2563.47,235.81Z"/><path class="cls-17" d="M2541.21,351.18a50.79,50.79,0,0,1-22.22-5.13c-28-13.49-42.48-44.9-46.73-69.8-2.54-14.85-1.21-34.44,7.48-44.74,4.18-4.95,9.8-7.46,16.71-7.46.62,0,1.25,0,1.88.06,7.3.54,12.53,4.61,18.07,8.92,4,3.11,8.11,6.32,13.15,8.26a29,29,0,0,0,10.42,1.84h0a49.49,49.49,0,0,0,12.87-2,45.37,45.37,0,0,1-13.22,5.21,28.52,28.52,0,0,1-5.42.53c-8.24,0-15.3-3.86-22.78-7.95l-3.48-1.89a20.9,20.9,0,0,0-9.6-2.83,10.93,10.93,0,0,0-8.92,4.39c-7.4,9.36-5.33,31.75-3.25,40.52,6.16,26,19.43,47.24,36.39,58.29a48.4,48.4,0,0,0,26.88,7.91,72.64,72.64,0,0,0,24.74-4.81c-10.23,6.92-21.62,10.64-33,10.64Z"/><path class="cls-18" d="M2543,348.14h0a50.86,50.86,0,0,1-22-6c-27.42-14.58-40.69-46.53-44-71.57-1.94-14.81.11-34.13,9-44.16a20.51,20.51,0,0,0-6.31,5.09c-8.69,10.3-10,29.89-7.48,44.74,4.25,24.9,18.76,56.31,46.73,69.8a50.79,50.79,0,0,0,22.22,5.13h0c11.34,0,22.73-3.72,33-10.64-.73.27-1.44.5-2.16.74A57.8,57.8,0,0,1,2543,348.14Z"/><path class="cls-8" d="M2560.12,198a12.34,12.34,0,0,0-.29-2.58l-3.4-.31a67.11,67.11,0,0,0-16.27.49c-5.22.84-10.55,2.49-14.79,5.76a16,16,0,0,0-6.49,13.46c.23,5.29,2.91,10.32,6.19,14.35-1.23-4.18-2.46-8.6-2.11-13a12.21,12.21,0,0,1,5.57-9.55c3.59-2.36,8-3.4,12.17-4.06a89.27,89.27,0,0,1,13-.93c-.56,2.45-2.68,4.19-4.61,5.62-2.32,1.72-4.82,3.2-7.17,4.88-4.47,3.19-8.63,7.3-9.58,12.93,3.4-6.33,10-8.93,16.21-11.8,3.1-1.45,6.25-3.08,8.57-5.65A12.44,12.44,0,0,0,2560.12,198Z"/><path class="cls-19" d="M2522.92,224.61a21.35,21.35,0,0,1-3.16-9.79,15.2,15.2,0,0,1,6.14-12.74c3.6-2.78,8.31-4.6,14.4-5.59a62,62,0,0,1,9.74-.75c2,0,4.15.09,6.31.27l2.39.22.38,0c.05.48.09,1.16.11,1.44a3.13,3.13,0,0,0,0,.41,11.56,11.56,0,0,1-2.82,8.93c-2.26,2.51-5.46,4.13-8.29,5.45l-1.62.74c-4,1.83-8.07,3.71-11.27,6.67a26.54,26.54,0,0,1,7.14-7c1.05-.75,2.15-1.47,3.21-2.17,1.32-.87,2.68-1.76,4-2.72,2.06-1.53,4.32-3.39,4.95-6.13l.25-1.08h-1.11a88.9,88.9,0,0,0-13.09.95c-3.76.59-8.58,1.6-12.52,4.19a13,13,0,0,0-6,10.21A27.36,27.36,0,0,0,2522.92,224.61Z"/><path class="cls-6" d="M2690.66,631c0,2.86-11.77,5.17-26.29,5.17s-26.3-2.31-26.3-5.17,11.77-5.17,26.3-5.17S2690.66,628.1,2690.66,631Z"/><path class="cls-7" d="M2670.24,584.91a6.15,6.15,0,0,1-3.59-5.7V334.89l-4.57-.25V579.21a6.17,6.17,0,0,1-3.63,5.71,14.79,14.79,0,0,0-8.77,15.81,14.85,14.85,0,0,0,29.54-2.23A14.77,14.77,0,0,0,2670.24,584.91Z"/><path class="cls-8" d="M2646.08,216.47c28.37-1.45,40.78-24.9,56.37-29.26,16.78-4.7,30.75,10.95,35.53,25.22,15.9,47.5-19.77,109.08-72.67,107.15,41-14,71.76-61.06,56.4-104.81-3.92-10.79-11.4-17.56-21.52-12.22C2683,211.7,2666.37,222.14,2646.08,216.47Z"/><path class="cls-20" d="M2675.14,317.43a95.62,95.62,0,0,0,44-43.83c9.39-19.36,10.9-40.46,4.25-59.41-3.57-9.84-9.38-15.25-16.36-15.25a16.39,16.39,0,0,0-7.63,2.06l-4.06,2.19c-12.47,6.75-24.26,13.12-37.56,13.14,11.78-3.32,20.4-10.32,28.23-16.67,6.07-4.94,11.32-9.2,16.94-10.77a20.86,20.86,0,0,1,5.61-.78c12.77,0,23.65,12.51,27.79,24.88,8,23.75,3,52.26-12.92,74.39C2711.07,304.51,2693.79,315.18,2675.14,317.43Z"/><path class="cls-21" d="M2736.32,213c-4.14-12.37-15-24.88-27.79-24.88a20.86,20.86,0,0,0-5.61.78c-5.62,1.57-10.87,5.83-16.94,10.77-3.72,3-7.62,6.17-11.94,9,3.81-1.86,7.39-3.93,10.82-5.93,6.78-3.92,12.62-7.31,18.42-8a21,21,0,0,1,5.66.1c12.62,2,21.41,16.05,23.58,28.91,4.15,24.71-5.18,52.09-24.36,71.47a78.15,78.15,0,0,1-21.24,15.38,91.87,91.87,0,0,1-11.78,6.82c18.65-2.25,35.93-12.92,48.26-30.05C2739.33,265.25,2744.28,236.74,2736.32,213Z"/><path class="cls-7" d="M2681,217.78c-6.82,5.68-14.74,10.44-23.5,12.27-12.79,2.53-22.12-3.73-32.86-9.47-24.67-13.15-22.45,26.63-19.25,40.14,5.13,21.64,16.5,44.75,35.64,57.22,19.66,12.82,41.66,7.61,61.4-1.86-18,17.17-43.42,24.73-66.68,13.51-26.57-12.82-42.89-43-47.69-71.08-3.45-20.17-.57-55.93,27.9-54.18,13.34,1,20.07,12.81,31.74,17.3C2658.63,225.82,2670.67,221.53,2681,217.78Z"/><path class="cls-22" d="M2658.77,333.15a50.79,50.79,0,0,1-22.22-5.13c-28-13.5-42.48-44.91-46.73-69.8-2.54-14.85-1.21-34.44,7.48-44.74,4.18-4.95,9.8-7.46,16.72-7.46.61,0,1.24,0,1.87.06,7.31.53,12.54,4.61,18.07,8.92,4,3.11,8.11,6.32,13.15,8.26a29,29,0,0,0,10.42,1.84h0a49.08,49.08,0,0,0,12.87-2,44.82,44.82,0,0,1-13.22,5.21,27.72,27.72,0,0,1-5.41.54c-8.25,0-15.31-3.86-22.79-7.95L2625.5,219a20.9,20.9,0,0,0-9.6-2.83,10.94,10.94,0,0,0-8.92,4.39c-7.4,9.36-5.33,31.75-3.25,40.52,6.17,26,19.43,47.24,36.39,58.29a48.4,48.4,0,0,0,26.88,7.91,72.64,72.64,0,0,0,24.74-4.81c-10.23,6.92-21.62,10.63-33,10.64Z"/><path class="cls-23" d="M2660.59,330.11h0a50.86,50.86,0,0,1-22-6c-27.41-14.58-40.69-46.53-44-71.58-1.94-14.81.11-34.13,9-44.16a20.69,20.69,0,0,0-6.31,5.1c-8.69,10.3-10,29.89-7.48,44.74,4.25,24.89,18.77,56.3,46.73,69.8a50.79,50.79,0,0,0,22.22,5.13h0c11.34,0,22.73-3.72,33-10.64l-2.16.74A57.8,57.8,0,0,1,2660.59,330.11Z"/><path class="cls-8" d="M2677.68,180a12.26,12.26,0,0,0-.29-2.58c-1.13-.1-2.27-.22-3.4-.31a67.12,67.12,0,0,0-16.27.49c-5.22.84-10.55,2.48-14.79,5.75a16,16,0,0,0-6.48,13.47c.22,5.29,2.9,10.32,6.19,14.35-1.24-4.19-2.47-8.6-2.12-13a12.19,12.19,0,0,1,5.58-9.55c3.58-2.36,8-3.4,12.16-4.06a89.31,89.31,0,0,1,13-.94c-.57,2.46-2.69,4.2-4.62,5.63-2.32,1.72-4.82,3.2-7.17,4.88-4.47,3.18-8.63,7.29-9.58,12.93,3.4-6.33,10-8.93,16.21-11.8,3.1-1.45,6.26-3.08,8.57-5.65A12.45,12.45,0,0,0,2677.68,180Z"/><path class="cls-24" d="M2640.48,206.57a21.39,21.39,0,0,1-3.16-9.79,15.21,15.21,0,0,1,6.15-12.74c3.59-2.77,8.3-4.6,14.39-5.58a60.79,60.79,0,0,1,9.74-.75c2,0,4.16.09,6.31.27l2.39.21.38,0c.05.48.09,1.16.11,1.44s0,.34,0,.41A11.56,11.56,0,0,1,2674,189c-2.26,2.51-5.46,4.13-8.28,5.44l-1.62.75c-4,1.83-8.07,3.71-11.28,6.67a26.54,26.54,0,0,1,7.14-7c1.05-.75,2.15-1.47,3.22-2.17,1.31-.87,2.67-1.76,4-2.72,2.06-1.53,4.32-3.39,4.95-6.13l.25-1.08h-1.11a88.9,88.9,0,0,0-13.09.95c-3.76.59-8.58,1.59-12.51,4.18a13.08,13.08,0,0,0-6,10.22A27.27,27.27,0,0,0,2640.48,206.57Z"/><path class="cls-6" d="M2661.09,698.31c0,2.86-11.77,5.17-26.3,5.17s-26.29-2.31-26.29-5.17,11.77-5.17,26.29-5.17S2661.09,695.45,2661.09,698.31Z"/><path class="cls-7" d="M2640.67,652.26a6.15,6.15,0,0,1-3.59-5.7V402.24l-4.57-.25V646.56a6.17,6.17,0,0,1-3.63,5.71,14.78,14.78,0,0,0-8.77,15.81,14.85,14.85,0,0,0,29.54-2.23A14.79,14.79,0,0,0,2640.67,652.26Z"/><path class="cls-8" d="M2616.51,283.82c28.36-1.45,40.78-24.9,56.36-29.26,16.79-4.7,30.76,10.95,35.54,25.22,15.9,47.5-19.77,109.08-72.67,107.15,41-14,71.76-61.06,56.4-104.81-3.92-10.79-11.4-17.56-21.52-12.22C2653.46,279.05,2636.79,289.49,2616.51,283.82Z"/><path class="cls-25" d="M2645.56,384.78a95.59,95.59,0,0,0,44-43.83c9.39-19.36,10.9-40.46,4.24-59.41-3.57-9.84-9.37-15.25-16.35-15.25a16.36,16.36,0,0,0-7.63,2.06l-4.06,2.19c-12.48,6.75-24.26,13.12-37.56,13.14,11.78-3.32,20.4-10.32,28.22-16.67,6.08-4.94,11.33-9.2,16.94-10.77a20.87,20.87,0,0,1,5.62-.78c12.77,0,23.65,12.51,27.79,24.88,8,23.75,3,52.26-12.92,74.39C2681.5,371.86,2664.22,382.53,2645.56,384.78Z"/><path class="cls-26" d="M2706.75,280.34c-4.14-12.37-15-24.88-27.79-24.88a20.87,20.87,0,0,0-5.62.78c-5.61,1.57-10.86,5.83-16.94,10.77a148.07,148.07,0,0,1-11.93,9c3.81-1.86,7.39-3.93,10.82-5.93,6.77-3.92,12.62-7.31,18.42-8a21,21,0,0,1,5.66.1c12.62,2,21.41,16.05,23.57,28.91,4.16,24.71-5.17,52.09-24.36,71.47A78,78,0,0,1,2657.35,378a91.3,91.3,0,0,1-11.79,6.82c18.66-2.25,35.94-12.92,48.27-30C2709.76,332.6,2714.71,304.09,2706.75,280.34Z"/><path class="cls-7" d="M2651.46,285.13c-6.81,5.68-14.73,10.44-23.49,12.27-12.79,2.53-22.12-3.73-32.87-9.47-24.66-13.15-22.44,26.63-19.24,40.14,5.13,21.64,16.5,44.75,35.64,57.22,19.66,12.82,41.66,7.61,61.4-1.86-18,17.17-43.43,24.73-66.68,13.51-26.57-12.82-42.89-43-47.7-71.08-3.44-20.17-.57-55.93,27.91-54.18,13.34,1,20.07,12.81,31.74,17.3C2629.06,293.17,2641.1,288.88,2651.46,285.13Z"/><path class="cls-27" d="M2629.2,400.5a50.79,50.79,0,0,1-22.22-5.13c-28-13.5-42.48-44.91-46.73-69.8-2.54-14.85-1.21-34.44,7.48-44.74,4.18-4.95,9.8-7.46,16.71-7.46.62,0,1.25,0,1.88.06,7.3.53,12.53,4.61,18.07,8.92,4,3.11,8.11,6.32,13.15,8.26a29,29,0,0,0,10.42,1.84h0a49.08,49.08,0,0,0,12.87-2,44.82,44.82,0,0,1-13.22,5.21,27.75,27.75,0,0,1-5.42.54c-8.24,0-15.3-3.86-22.78-8l-3.48-1.89a20.9,20.9,0,0,0-9.6-2.83,10.93,10.93,0,0,0-8.92,4.39c-7.4,9.36-5.33,31.75-3.25,40.52,6.16,26,19.43,47.24,36.39,58.29a48.4,48.4,0,0,0,26.88,7.91,72.64,72.64,0,0,0,24.74-4.81c-10.23,6.92-21.62,10.63-33,10.64Z"/><path class="cls-28" d="M2631,397.46h0a50.86,50.86,0,0,1-22-6c-27.42-14.58-40.69-46.53-44-71.58-1.94-14.81.11-34.13,9-44.16a20.69,20.69,0,0,0-6.31,5.1c-8.69,10.3-10,29.89-7.48,44.74,4.25,24.89,18.76,56.3,46.73,69.8a50.79,50.79,0,0,0,22.22,5.13h0c11.34,0,22.73-3.72,33-10.64l-2.16.74A57.81,57.81,0,0,1,2631,397.46Z"/><path class="cls-8" d="M2648.11,247.35a12.26,12.26,0,0,0-.29-2.58c-1.13-.1-2.27-.22-3.41-.31a67,67,0,0,0-16.26.49c-5.23.84-10.55,2.48-14.79,5.75a16,16,0,0,0-6.49,13.47c.23,5.29,2.91,10.32,6.19,14.35-1.23-4.19-2.46-8.6-2.11-13a12.21,12.21,0,0,1,5.57-9.55c3.59-2.36,8-3.4,12.17-4.06a89.18,89.18,0,0,1,13-.94c-.56,2.46-2.68,4.2-4.61,5.63-2.32,1.72-4.82,3.2-7.17,4.88-4.47,3.18-8.63,7.29-9.58,12.93,3.4-6.33,10-8.93,16.21-11.8,3.1-1.45,6.25-3.08,8.57-5.65A12.45,12.45,0,0,0,2648.11,247.35Z"/><path class="cls-29" d="M2610.91,273.92a21.27,21.27,0,0,1-3.16-9.79,15.2,15.2,0,0,1,6.14-12.74c3.6-2.77,8.31-4.6,14.4-5.58a60.79,60.79,0,0,1,9.74-.75c2,0,4.15.09,6.31.27l2.39.21.38,0c0,.48.09,1.16.11,1.44a3.25,3.25,0,0,0,0,.41,11.56,11.56,0,0,1-2.82,8.93c-2.26,2.51-5.46,4.13-8.29,5.44l-1.62.75c-4,1.83-8.07,3.71-11.27,6.67a26.54,26.54,0,0,1,7.14-7c1-.75,2.15-1.47,3.21-2.17,1.32-.87,2.67-1.76,4-2.72,2.06-1.53,4.32-3.39,5-6.13l.25-1.08h-1.11a89,89,0,0,0-13.1.95c-3.75.59-8.57,1.59-12.51,4.18a13.07,13.07,0,0,0-6,10.22A27.27,27.27,0,0,0,2610.91,273.92Z"/><path class="cls-6" d="M2037.59,961.37c0,2.85-11.77,5.17-26.29,5.17s-26.3-2.32-26.3-5.17,11.78-5.17,26.3-5.17S2037.59,958.51,2037.59,961.37Z"/><path class="cls-7" d="M2017.17,915.31a6.15,6.15,0,0,1-3.59-5.7V665.3c-1.52-.09-3-.16-4.57-.26V909.62a6.19,6.19,0,0,1-3.62,5.71,14.78,14.78,0,0,0-8.78,15.81,14.85,14.85,0,0,0,29.54-2.24A14.78,14.78,0,0,0,2017.17,915.31Z"/><path class="cls-8" d="M1993,546.88c28.36-1.45,40.77-24.9,56.36-29.26,16.78-4.7,30.75,11,35.53,25.22,15.91,47.5-19.77,109.08-72.67,107.15,41-14,71.76-61.07,56.4-104.81-3.91-10.79-11.4-17.56-21.52-12.22C2030,542.11,2013.3,552.55,1993,546.88Z"/><path class="cls-30" d="M2022.07,647.84A95.67,95.67,0,0,0,2066,604c9.39-19.37,10.9-40.47,4.25-59.41-3.57-9.84-9.38-15.25-16.36-15.25a16.39,16.39,0,0,0-7.63,2.06l-4.06,2.19c-12.47,6.75-24.26,13.12-37.56,13.14,11.78-3.32,20.4-10.32,28.23-16.67,6.07-4.94,11.32-9.2,16.94-10.77a20.86,20.86,0,0,1,5.61-.78c12.77,0,23.65,12.51,27.79,24.87,8,23.76,3,52.27-12.92,74.4C2058,634.92,2040.72,645.59,2022.07,647.84Z"/><path class="cls-31" d="M2083.25,543.39c-4.14-12.36-15-24.87-27.79-24.87a20.86,20.86,0,0,0-5.61.78c-5.62,1.57-10.87,5.83-16.94,10.77a148.27,148.27,0,0,1-11.94,9c3.81-1.87,7.39-3.93,10.83-5.93,6.77-3.92,12.62-7.31,18.41-8a21,21,0,0,1,5.66.1c12.63,2,21.42,16,23.58,28.91,4.16,24.71-5.18,52.09-24.36,71.47A78,78,0,0,1,2033.85,641a91.19,91.19,0,0,1-11.78,6.82c18.65-2.25,35.93-12.92,48.26-30.05C2086.26,595.66,2091.21,567.15,2083.25,543.39Z"/><path class="cls-7" d="M2028,548.19c-6.82,5.68-14.73,10.44-23.5,12.27-12.79,2.53-22.12-3.73-32.86-9.47-24.67-13.15-22.45,26.63-19.25,40.14,5.14,21.64,16.5,44.75,35.65,57.22,19.65,12.81,41.65,7.61,61.39-1.86-18,17.17-43.42,24.73-66.68,13.51-26.57-12.82-42.89-43-47.69-71.08-3.45-20.17-.57-55.93,27.9-54.18,13.35,1,20.07,12.8,31.74,17.29C2005.57,556.22,2017.6,551.94,2028,548.19Z"/><path class="cls-32" d="M2005.71,663.55a50.79,50.79,0,0,1-22.23-5.12c-28-13.5-42.47-44.91-46.73-69.81-2.54-14.84-1.21-34.43,7.48-44.73,4.18-4.95,9.8-7.46,16.72-7.46.61,0,1.24,0,1.88.05,7.3.54,12.53,4.62,18.06,8.93,4,3.1,8.11,6.31,13.16,8.26a29,29,0,0,0,10.42,1.84h0a49.49,49.49,0,0,0,12.86-2,44.71,44.71,0,0,1-13.22,5.21,27.72,27.72,0,0,1-5.41.54c-8.24,0-15.31-3.86-22.79-7.95-1.15-.63-2.3-1.26-3.48-1.89a20.93,20.93,0,0,0-9.6-2.84,11,11,0,0,0-8.92,4.4c-7.4,9.36-5.33,31.74-3.25,40.52,6.17,26,19.43,47.23,36.39,58.29a48.43,48.43,0,0,0,26.88,7.91,72.73,72.73,0,0,0,24.75-4.81c-10.23,6.92-21.62,10.63-33,10.63Z"/><path class="cls-33" d="M2007.52,660.52h0a50.74,50.74,0,0,1-22-6c-27.41-14.57-40.68-46.52-44-71.57-1.94-14.81.1-34.13,9-44.16a20.69,20.69,0,0,0-6.31,5.1c-8.69,10.3-10,29.89-7.48,44.73,4.26,24.9,18.77,56.31,46.73,69.81a50.79,50.79,0,0,0,22.23,5.12h0c11.35,0,22.74-3.71,33-10.63-.73.26-1.45.5-2.17.74A57.77,57.77,0,0,1,2007.52,660.52Z"/><path class="cls-8" d="M2024.61,510.41a11.63,11.63,0,0,0-.29-2.58c-1.13-.11-2.26-.22-3.4-.31a67.12,67.12,0,0,0-16.27.49c-5.22.84-10.55,2.48-14.79,5.75a16,16,0,0,0-6.48,13.47c.23,5.29,2.9,10.32,6.19,14.35-1.24-4.19-2.47-8.6-2.12-13A12.23,12.23,0,0,1,1993,519c3.58-2.36,8-3.4,12.16-4a89.42,89.42,0,0,1,13-.94c-.57,2.46-2.69,4.19-4.62,5.63-2.32,1.72-4.82,3.2-7.17,4.87-4.46,3.19-8.63,7.3-9.58,12.94,3.4-6.33,10-8.93,16.22-11.81,3.09-1.44,6.25-3.07,8.56-5.65A12.42,12.42,0,0,0,2024.61,510.41Z"/><path class="cls-34" d="M1987.41,537a21.43,21.43,0,0,1-3.16-9.79,15.2,15.2,0,0,1,6.15-12.74c3.59-2.77,8.3-4.6,14.39-5.58a60.88,60.88,0,0,1,9.74-.75c2,0,4.16.09,6.32.27l2.38.21.38,0c.05.48.09,1.16.11,1.44s0,.34,0,.41a11.56,11.56,0,0,1-2.82,8.93c-2.26,2.51-5.46,4.13-8.28,5.44l-1.62.75c-4,1.83-8.07,3.7-11.28,6.67a26.4,26.4,0,0,1,7.14-7c1-.75,2.15-1.48,3.22-2.18,1.31-.86,2.67-1.75,4-2.71,2.07-1.53,4.32-3.39,5-6.13l.25-1.08h-1.11a88.9,88.9,0,0,0-13.09,1c-3.76.58-8.57,1.59-12.51,4.18a13.06,13.06,0,0,0-6,10.21A27.64,27.64,0,0,0,1987.41,537Z"/><path class="cls-6" d="M1815.65,984.14c0,2.85-11.78,5.17-26.3,5.17s-26.29-2.32-26.29-5.17,11.77-5.18,26.29-5.18S1815.65,981.28,1815.65,984.14Z"/><path class="cls-7" d="M1795.22,938.08a6.16,6.16,0,0,1-3.58-5.7V688.07l-4.57-.26V932.38a6.19,6.19,0,0,1-3.63,5.72,14.8,14.8,0,0,0-8.78,15.81,14.86,14.86,0,0,0,29.54-2.24A14.78,14.78,0,0,0,1795.22,938.08Z"/><path class="cls-8" d="M1771.07,569.65c28.36-1.45,40.78-24.9,56.36-29.26,16.79-4.7,30.75,11,35.53,25.22,15.91,47.5-19.77,109.07-72.67,107.14,41-14,71.76-61.06,56.4-104.81-3.91-10.79-11.39-17.55-21.52-12.21C1808,564.88,1791.35,575.32,1771.07,569.65Z"/><path class="cls-35" d="M1800.12,670.6a95.65,95.65,0,0,0,44-43.82c9.39-19.37,10.9-40.47,4.25-59.41-3.57-9.85-9.37-15.26-16.36-15.26a16.38,16.38,0,0,0-7.62,2.07l-4.07,2.19c-12.47,6.74-24.25,13.11-37.55,13.14,11.77-3.32,20.4-10.33,28.22-16.68,6.08-4.93,11.33-9.19,16.94-10.76a20.87,20.87,0,0,1,5.61-.79c12.78,0,23.66,12.52,27.8,24.88,8,23.76,3,52.27-12.93,74.4C1836.06,657.69,1818.77,668.36,1800.12,670.6Z"/><path class="cls-36" d="M1861.31,566.16c-4.14-12.36-15-24.88-27.8-24.88a20.87,20.87,0,0,0-5.61.79c-5.61,1.57-10.86,5.83-16.94,10.76a146.58,146.58,0,0,1-11.94,9c3.82-1.87,7.4-3.94,10.83-5.93,6.77-3.92,12.62-7.32,18.41-8a21.06,21.06,0,0,1,5.67.1c12.62,2,21.41,16.05,23.57,28.91,4.16,24.7-5.18,52.09-24.36,71.47a77.85,77.85,0,0,1-21.24,15.38,89.32,89.32,0,0,1-11.78,6.81c18.65-2.24,35.94-12.91,48.26-30C1864.31,618.43,1869.26,589.92,1861.31,566.16Z"/><path class="cls-7" d="M1806,571c-6.82,5.68-14.73,10.44-23.5,12.27-12.79,2.52-22.11-3.74-32.86-9.47-24.67-13.16-22.44,26.63-19.24,40.13,5.13,21.65,16.49,44.76,35.64,57.23,19.66,12.81,41.66,7.6,61.4-1.86-18,17.16-43.43,24.73-66.69,13.51-26.57-12.82-42.88-43-47.69-71.08-3.45-20.17-.57-55.93,27.91-54.18,13.34,1,20.06,12.8,31.74,17.29C1783.62,579,1795.65,574.71,1806,571Z"/><path class="cls-37" d="M1783.76,686.32a50.73,50.73,0,0,1-22.23-5.13c-28-13.49-42.47-44.9-46.73-69.8-2.53-14.84-1.2-34.43,7.49-44.73,4.17-5,9.8-7.47,16.71-7.47.62,0,1.25,0,1.88.06,7.3.54,12.53,4.62,18.07,8.93,4,3.1,8.1,6.31,13.15,8.25a28.79,28.79,0,0,0,10.42,1.85h0a49.56,49.56,0,0,0,12.87-2,45.2,45.2,0,0,1-13.22,5.21,27.83,27.83,0,0,1-5.42.54c-8.24,0-15.3-3.86-22.78-7.95l-3.49-1.89a20.93,20.93,0,0,0-9.6-2.84,10.89,10.89,0,0,0-8.91,4.4c-7.4,9.36-5.33,31.74-3.25,40.52,6.16,26,19.42,47.23,36.38,58.28a48.44,48.44,0,0,0,26.89,7.91,72.85,72.85,0,0,0,24.74-4.8c-10.23,6.91-21.62,10.63-33,10.63Z"/><path class="cls-38" d="M1785.57,683.29h0a50.84,50.84,0,0,1-22-6c-27.42-14.57-40.69-46.53-44-71.57-1.94-14.81.11-34.13,9-44.16a20.66,20.66,0,0,0-6.3,5.1c-8.69,10.3-10,29.89-7.49,44.73,4.26,24.9,18.77,56.31,46.73,69.8a50.73,50.73,0,0,0,22.23,5.13h0c11.35,0,22.74-3.72,33-10.63l-2.16.74A57.83,57.83,0,0,1,1785.57,683.29Z"/><path class="cls-8" d="M1802.67,533.18a13.16,13.16,0,0,0-.29-2.59c-1.14-.1-2.27-.21-3.41-.3a66.62,66.62,0,0,0-16.27.49c-5.22.84-10.54,2.48-14.78,5.75a16,16,0,0,0-6.49,13.47c.23,5.29,2.91,10.32,6.19,14.35-1.23-4.19-2.47-8.6-2.11-13a12.2,12.2,0,0,1,5.57-9.55c3.58-2.36,8-3.4,12.17-4a87.79,87.79,0,0,1,13-.94c-.56,2.46-2.68,4.19-4.62,5.63-2.32,1.72-4.81,3.19-7.16,4.87-4.47,3.19-8.63,7.3-9.59,12.94,3.4-6.33,10.05-8.93,16.22-11.81,3.1-1.44,6.25-3.07,8.57-5.65A12.42,12.42,0,0,0,1802.67,533.18Z"/><path class="cls-39" d="M1765.47,559.75a21.32,21.32,0,0,1-3.17-9.79,15.2,15.2,0,0,1,6.15-12.74c3.59-2.77,8.3-4.6,14.4-5.58a60.75,60.75,0,0,1,9.73-.75c2,0,4.16.09,6.32.27.8.06,1.59.14,2.39.21l.38,0c0,.48.08,1.16.1,1.44s0,.34,0,.41a11.58,11.58,0,0,1-2.82,8.93c-2.27,2.51-5.47,4.12-8.29,5.44l-1.62.75c-4,1.83-8.07,3.7-11.28,6.67a26.71,26.71,0,0,1,7.14-7c1-.74,2.15-1.47,3.22-2.17,1.32-.86,2.67-1.75,4-2.71,2.07-1.53,4.32-3.4,5-6.13l.25-1.08h-1.1a87.7,87.7,0,0,0-13.1.94c-3.76.59-8.57,1.6-12.51,4.19a13,13,0,0,0-6,10.21A27.34,27.34,0,0,0,1765.47,559.75Z"/><path class="cls-6" d="M1930.68,1164.4c0,2.85-11.77,5.17-26.29,5.17s-26.3-2.32-26.3-5.17,11.77-5.17,26.3-5.17S1930.68,1161.54,1930.68,1164.4Z"/><path class="cls-7" d="M1910.26,1118.34a6.14,6.14,0,0,1-3.59-5.7V868.33c-1.52-.09-3-.16-4.57-.26v244.58a6.18,6.18,0,0,1-3.63,5.71,14.78,14.78,0,0,0-8.77,15.81,14.85,14.85,0,0,0,29.54-2.24A14.8,14.8,0,0,0,1910.26,1118.34Z"/><path class="cls-8" d="M1886.1,749.91c28.36-1.45,40.78-24.9,56.36-29.26,16.79-4.7,30.76,11,35.54,25.22,15.9,47.5-19.77,109.08-72.67,107.14,41-14,71.76-61.06,56.4-104.8-3.92-10.79-11.4-17.56-21.52-12.22C1923.05,745.14,1906.39,755.58,1886.1,749.91Z"/><path class="cls-40" d="M1915.16,850.87a95.67,95.67,0,0,0,44-43.83c9.39-19.37,10.9-40.47,4.24-59.41-3.57-9.84-9.37-15.26-16.35-15.26a16.38,16.38,0,0,0-7.63,2.07l-4.06,2.19c-12.48,6.74-24.26,13.12-37.56,13.14,11.78-3.32,20.4-10.32,28.22-16.68,6.08-4.93,11.33-9.19,17-10.76a20.82,20.82,0,0,1,5.61-.79c12.77,0,23.65,12.52,27.79,24.88,8,23.76,3,52.27-12.92,74.4C1951.09,838,1933.81,848.62,1915.16,850.87Z"/><path class="cls-41" d="M1976.34,746.42c-4.14-12.36-15-24.88-27.79-24.88a20.82,20.82,0,0,0-5.61.79c-5.62,1.57-10.87,5.83-17,10.76a145.82,145.82,0,0,1-11.93,9c3.81-1.87,7.39-3.94,10.82-5.93,6.78-3.92,12.62-7.31,18.42-8a21,21,0,0,1,5.66.1c12.62,2,21.41,16.05,23.58,28.91,4.15,24.71-5.18,52.09-24.37,71.47a78,78,0,0,1-21.23,15.38,91.87,91.87,0,0,1-11.78,6.82c18.65-2.25,35.93-12.92,48.26-30C1979.35,798.69,1984.3,770.18,1976.34,746.42Z"/><path class="cls-7" d="M1921.05,751.22c-6.81,5.68-14.73,10.44-23.49,12.27-12.79,2.52-22.12-3.74-32.87-9.47-24.66-13.16-22.44,26.63-19.24,40.13,5.13,21.65,16.5,44.76,35.64,57.23,19.66,12.81,41.66,7.6,61.4-1.86-18,17.16-43.43,24.73-66.68,13.51-26.57-12.82-42.89-43-47.69-71.08-3.45-20.17-.58-55.93,27.9-54.18,13.34,1,20.07,12.8,31.74,17.29C1898.65,759.25,1910.69,755,1921.05,751.22Z"/><path class="cls-42" d="M1898.79,866.58a50.78,50.78,0,0,1-22.22-5.12c-28-13.5-42.48-44.91-46.73-69.81-2.54-14.84-1.21-34.43,7.48-44.73,4.18-4.95,9.8-7.46,16.72-7.46.61,0,1.24,0,1.87,0,7.3.54,12.53,4.62,18.07,8.93,4,3.1,8.11,6.31,13.15,8.25a28.79,28.79,0,0,0,10.42,1.85h0a49.5,49.5,0,0,0,12.87-2,45.09,45.09,0,0,1-13.22,5.21,27.75,27.75,0,0,1-5.42.54c-8.24,0-15.3-3.86-22.78-8l-3.48-1.89a20.93,20.93,0,0,0-9.6-2.84A10.91,10.91,0,0,0,1847,754c-7.4,9.36-5.33,31.74-3.25,40.52,6.16,26,19.43,47.23,36.39,58.29a48.4,48.4,0,0,0,26.88,7.91c7.65,0,15.82-1.59,24.74-4.81-10.23,6.91-21.62,10.63-33,10.63Z"/><path class="cls-43" d="M1900.61,863.55h0a50.74,50.74,0,0,1-22-6c-27.42-14.57-40.69-46.52-44-71.57-1.94-14.81.11-34.13,9-44.16a20.69,20.69,0,0,0-6.31,5.1c-8.69,10.3-10,29.89-7.48,44.73,4.25,24.9,18.76,56.31,46.73,69.81a50.78,50.78,0,0,0,22.22,5.12h0c11.34,0,22.73-3.72,33-10.63l-2.16.74A57.8,57.8,0,0,1,1900.61,863.55Z"/><path class="cls-8" d="M1917.7,713.44a12.26,12.26,0,0,0-.29-2.58c-1.13-.11-2.27-.22-3.4-.31a67.11,67.11,0,0,0-16.27.49c-5.22.84-10.55,2.48-14.79,5.75a16,16,0,0,0-6.48,13.47c.22,5.29,2.9,10.32,6.18,14.35-1.23-4.19-2.46-8.6-2.11-13a12.24,12.24,0,0,1,5.57-9.55c3.59-2.36,8-3.4,12.17-4a89.28,89.28,0,0,1,13-.94c-.56,2.46-2.68,4.19-4.61,5.63-2.32,1.72-4.82,3.2-7.17,4.87-4.47,3.19-8.63,7.3-9.58,12.94,3.4-6.33,10-8.93,16.21-11.81,3.1-1.44,6.25-3.07,8.57-5.65A12.42,12.42,0,0,0,1917.7,713.44Z"/><path class="cls-44" d="M1880.5,740a21.31,21.31,0,0,1-3.16-9.79,15.2,15.2,0,0,1,6.15-12.74c3.59-2.77,8.3-4.6,14.39-5.58a60.79,60.79,0,0,1,9.74-.75c2,0,4.15.09,6.31.27.8.06,1.59.14,2.39.21l.38,0c0,.48.09,1.16.11,1.44s0,.34,0,.41a11.56,11.56,0,0,1-2.82,8.93c-2.26,2.51-5.46,4.13-8.29,5.44l-1.62.75c-4,1.83-8.07,3.7-11.27,6.67a26.42,26.42,0,0,1,7.14-7c1-.74,2.15-1.47,3.21-2.17,1.32-.86,2.68-1.75,4-2.71,2.06-1.53,4.32-3.4,4.95-6.13l.25-1.08h-1.11a87.66,87.66,0,0,0-13.09.94c-3.76.59-8.58,1.6-12.52,4.19a13,13,0,0,0-6,10.21A27.33,27.33,0,0,0,1880.5,740Z"/><path class="cls-6" d="M1846.62,1130.06c0,2.86-11.77,5.17-26.29,5.17s-26.3-2.31-26.3-5.17,11.77-5.17,26.3-5.17S1846.62,1127.21,1846.62,1130.06Z"/><path class="cls-7" d="M1826.2,1084a6.15,6.15,0,0,1-3.59-5.7V834l-4.57-.26v244.57a6.17,6.17,0,0,1-3.63,5.71,14.78,14.78,0,0,0-8.77,15.81,14.85,14.85,0,0,0,29.54-2.23A14.79,14.79,0,0,0,1826.2,1084Z"/><path class="cls-8" d="M1802,715.57c28.36-1.44,40.78-24.9,56.36-29.26,16.79-4.7,30.76,11,35.54,25.22,15.9,47.51-19.77,109.08-72.67,107.15,41-14,71.76-61.06,56.4-104.81-3.92-10.79-11.4-17.56-21.52-12.22C1839,710.81,1822.32,721.24,1802,715.57Z"/><path class="cls-45" d="M1831.1,816.53a95.62,95.62,0,0,0,44-43.83c9.39-19.36,10.9-40.46,4.24-59.41-3.57-9.84-9.37-15.25-16.35-15.25a16.26,16.26,0,0,0-7.63,2.07c-1.36.72-2.71,1.46-4.06,2.19-12.48,6.74-24.26,13.11-37.56,13.14,11.78-3.33,20.4-10.33,28.22-16.68,6.08-4.93,11.33-9.19,17-10.77a20.75,20.75,0,0,1,5.61-.78c12.77,0,23.65,12.51,27.79,24.88,8,23.76,3,52.26-12.92,74.4C1867,803.61,1849.75,814.28,1831.1,816.53Z"/><path class="cls-46" d="M1892.28,712.09c-4.14-12.37-15-24.88-27.79-24.88a20.75,20.75,0,0,0-5.61.78c-5.62,1.58-10.87,5.84-17,10.77-3.71,3-7.61,6.17-11.93,9,3.81-1.87,7.39-3.94,10.82-5.93,6.78-3.93,12.62-7.32,18.42-8a21,21,0,0,1,5.66.1c12.62,2,21.41,16,23.58,28.91,4.15,24.71-5.18,52.1-24.37,71.47a78,78,0,0,1-21.23,15.38,90.7,90.7,0,0,1-11.78,6.82c18.65-2.25,35.93-12.92,48.26-30C1895.29,764.35,1900.24,735.85,1892.28,712.09Z"/><path class="cls-7" d="M1837,716.89c-6.81,5.67-14.73,10.43-23.49,12.27-12.79,2.52-22.12-3.74-32.87-9.47-24.66-13.16-22.44,26.62-19.24,40.13,5.13,21.64,16.5,44.75,35.64,57.23,19.66,12.81,41.66,7.6,61.4-1.87-18,17.17-43.43,24.73-66.68,13.51-26.57-12.82-42.89-43-47.7-71.08-3.44-20.17-.57-55.93,27.91-54.18,13.34,1,20.07,12.81,31.74,17.3C1814.59,724.92,1826.63,720.64,1837,716.89Z"/><path class="cls-47" d="M1814.73,832.25a50.79,50.79,0,0,1-22.22-5.13c-28-13.49-42.48-44.9-46.73-69.8-2.54-14.85-1.21-34.44,7.48-44.74,4.18-5,9.8-7.46,16.71-7.46.62,0,1.25,0,1.88.06,7.3.54,12.53,4.61,18.07,8.92,4,3.11,8.11,6.32,13.15,8.26a29,29,0,0,0,10.42,1.84h0a49.49,49.49,0,0,0,12.87-2,45.37,45.37,0,0,1-13.22,5.21,28.52,28.52,0,0,1-5.42.53c-8.24,0-15.3-3.86-22.78-8l-3.48-1.89a20.9,20.9,0,0,0-9.6-2.83,10.91,10.91,0,0,0-8.92,4.4c-7.4,9.35-5.33,31.74-3.25,40.51,6.16,26,19.43,47.24,36.39,58.29a48.4,48.4,0,0,0,26.88,7.91,72.64,72.64,0,0,0,24.74-4.81c-10.23,6.92-21.62,10.64-33,10.64Z"/><path class="cls-48" d="M1816.55,829.21h0a50.86,50.86,0,0,1-22-6c-27.42-14.58-40.69-46.53-44-71.57-1.94-14.81.11-34.13,9-44.16a20.51,20.51,0,0,0-6.31,5.09c-8.69,10.3-10,29.89-7.48,44.74,4.25,24.9,18.76,56.31,46.73,69.8a50.79,50.79,0,0,0,22.22,5.13h0c11.34,0,22.73-3.72,33-10.64-.73.27-1.44.5-2.16.74A57.8,57.8,0,0,1,1816.55,829.21Z"/><path class="cls-8" d="M1833.64,679.1a12.34,12.34,0,0,0-.29-2.58l-3.4-.31a67.11,67.11,0,0,0-16.27.49c-5.22.84-10.55,2.49-14.79,5.76a16,16,0,0,0-6.49,13.46c.23,5.29,2.91,10.32,6.19,14.36-1.23-4.19-2.46-8.61-2.11-13a12.21,12.21,0,0,1,5.57-9.55c3.59-2.36,8-3.4,12.17-4.06a89.27,89.27,0,0,1,13-.93c-.56,2.46-2.68,4.19-4.61,5.62-2.32,1.73-4.82,3.2-7.17,4.88-4.47,3.19-8.63,7.3-9.58,12.93,3.4-6.33,10-8.92,16.21-11.8,3.1-1.45,6.25-3.08,8.57-5.65A12.44,12.44,0,0,0,1833.64,679.1Z"/><path class="cls-49" d="M1796.44,705.68a21.35,21.35,0,0,1-3.16-9.79,15.21,15.21,0,0,1,6.14-12.74c3.6-2.78,8.31-4.6,14.4-5.59a62,62,0,0,1,9.74-.75c2,0,4.15.09,6.31.27l2.39.22.38,0c0,.48.09,1.16.11,1.45a3.06,3.06,0,0,0,0,.4,11.56,11.56,0,0,1-2.82,8.93c-2.26,2.51-5.46,4.13-8.29,5.45l-1.62.74c-4,1.83-8.07,3.71-11.27,6.68a26.42,26.42,0,0,1,7.14-7.05c1-.75,2.15-1.47,3.21-2.17,1.32-.87,2.68-1.76,4-2.72,2.06-1.53,4.32-3.39,5-6.13l.25-1.08h-1.11a88.9,88.9,0,0,0-13.09.95c-3.76.59-8.58,1.6-12.52,4.19a13,13,0,0,0-6,10.21A27.36,27.36,0,0,0,1796.44,705.68Z"/><path class="cls-6" d="M1614.9,681.1c0,2.86-11.78,5.17-26.3,5.17s-26.29-2.31-26.29-5.17,11.77-5.17,26.29-5.17S1614.9,678.25,1614.9,681.1Z"/><path class="cls-7" d="M1594.47,635.05a6.16,6.16,0,0,1-3.58-5.7V385l-4.57-.26V629.35a6.21,6.21,0,0,1-3.63,5.72,14.79,14.79,0,0,0-8.78,15.8,14.85,14.85,0,0,0,29.54-2.23A14.77,14.77,0,0,0,1594.47,635.05Z"/><path class="cls-8" d="M1570.32,266.62c28.36-1.45,40.78-24.91,56.36-29.27,16.79-4.7,30.75,11,35.53,25.22,15.91,47.51-19.77,109.08-72.67,107.15,41-14,71.76-61.06,56.4-104.81-3.91-10.79-11.4-17.56-21.52-12.22C1607.27,261.85,1590.6,272.28,1570.32,266.62Z"/><path class="cls-50" d="M1599.37,367.57a95.62,95.62,0,0,0,44-43.83c9.39-19.36,10.9-40.46,4.25-59.41-3.57-9.84-9.38-15.25-16.36-15.25a16.34,16.34,0,0,0-7.62,2.07c-1.36.72-2.72,1.46-4.07,2.19-12.47,6.74-24.25,13.11-37.55,13.14,11.77-3.33,20.4-10.33,28.22-16.68,6.08-4.93,11.32-9.19,16.94-10.77a20.86,20.86,0,0,1,5.61-.78c12.78,0,23.66,12.52,27.8,24.88,8,23.76,3,52.27-12.93,74.4C1635.31,354.65,1618,365.32,1599.37,367.57Z"/><path class="cls-51" d="M1660.56,263.13c-4.14-12.36-15-24.88-27.8-24.88a20.86,20.86,0,0,0-5.61.78c-5.62,1.58-10.86,5.84-16.94,10.77a148.9,148.9,0,0,1-11.94,9c3.82-1.87,7.39-3.94,10.83-5.93,6.77-3.93,12.62-7.32,18.41-8a20.66,20.66,0,0,1,5.67.09c12.62,2,21.41,16.06,23.57,28.91,4.16,24.71-5.18,52.1-24.36,71.47a78.25,78.25,0,0,1-21.24,15.39,91.12,91.12,0,0,1-11.78,6.81c18.65-2.25,35.94-12.92,48.26-30C1663.56,315.4,1668.51,286.89,1660.56,263.13Z"/><path class="cls-7" d="M1605.27,267.93c-6.82,5.67-14.73,10.43-23.5,12.27-12.79,2.52-22.11-3.74-32.86-9.47-24.67-13.16-22.45,26.62-19.24,40.13,5.13,21.64,16.49,44.75,35.64,57.23,19.66,12.81,41.65,7.6,61.39-1.87-18,17.17-43.42,24.73-66.68,13.51-26.57-12.82-42.88-43-47.69-71.08-3.45-20.17-.57-55.93,27.91-54.18,13.34,1,20.06,12.81,31.74,17.3C1582.87,276,1594.9,271.68,1605.27,267.93Z"/><path class="cls-52" d="M1583,383.29a50.84,50.84,0,0,1-22.23-5.13c-28-13.49-42.47-44.9-46.73-69.8-2.53-14.85-1.2-34.44,7.48-44.74,4.18-4.95,9.81-7.46,16.72-7.46.61,0,1.25,0,1.88.06,7.3.54,12.53,4.61,18.07,8.92,4,3.11,8.1,6.32,13.15,8.26a29,29,0,0,0,10.42,1.84h0a49.55,49.55,0,0,0,12.87-2,45.42,45.42,0,0,1-13.23,5.21,29.36,29.36,0,0,1-5.41.54c-8.24,0-15.31-3.87-22.79-8-1.14-.62-2.3-1.26-3.48-1.88a20.81,20.81,0,0,0-9.6-2.84,10.89,10.89,0,0,0-8.91,4.4c-7.4,9.36-5.33,31.74-3.25,40.51,6.16,26,19.42,47.24,36.38,58.29a48.44,48.44,0,0,0,26.89,7.91,72.68,72.68,0,0,0,24.74-4.81c-10.23,6.92-21.62,10.64-33,10.64Z"/><path class="cls-53" d="M1584.82,380.25h0a50.9,50.9,0,0,1-22-6c-27.41-14.58-40.68-46.53-44-71.57-1.94-14.81.11-34.13,9-44.16a20.51,20.51,0,0,0-6.31,5.09c-8.68,10.3-10,29.89-7.48,44.74,4.26,24.9,18.77,56.31,46.73,69.8a50.84,50.84,0,0,0,22.23,5.13h0c11.35,0,22.74-3.72,33-10.64-.73.27-1.45.5-2.16.74A57.83,57.83,0,0,1,1584.82,380.25Z"/><path class="cls-8" d="M1601.92,230.14a13.05,13.05,0,0,0-.29-2.58l-3.41-.31a67.12,67.12,0,0,0-16.27.49c-5.22.84-10.54,2.49-14.78,5.76a16,16,0,0,0-6.49,13.46c.23,5.29,2.91,10.32,6.19,14.36-1.23-4.19-2.47-8.61-2.12-13a12.19,12.19,0,0,1,5.58-9.55c3.58-2.36,8-3.4,12.16-4.06a89.4,89.4,0,0,1,13-.93c-.56,2.46-2.68,4.19-4.62,5.62-2.32,1.73-4.81,3.2-7.17,4.88-4.46,3.19-8.63,7.3-9.58,12.93,3.4-6.33,10.05-8.92,16.22-11.8,3.1-1.45,6.25-3.08,8.57-5.65A12.44,12.44,0,0,0,1601.92,230.14Z"/><path class="cls-54" d="M1564.71,256.72a21.47,21.47,0,0,1-3.16-9.79,15.2,15.2,0,0,1,6.15-12.74c3.59-2.78,8.3-4.6,14.39-5.59a62.06,62.06,0,0,1,9.74-.75c2,0,4.16.09,6.32.27l2.39.22.38,0c0,.48.08,1.16.1,1.45s0,.34,0,.4a11.6,11.6,0,0,1-2.82,8.93c-2.27,2.51-5.47,4.13-8.29,5.45l-1.62.74c-4,1.83-8.07,3.71-11.28,6.68a26.57,26.57,0,0,1,7.14-7.05c1-.75,2.15-1.47,3.22-2.17,1.31-.86,2.67-1.76,4-2.71,2.07-1.54,4.32-3.4,5-6.14l.25-1.08h-1.11a88.9,88.9,0,0,0-13.09,1c-3.76.59-8.57,1.6-12.51,4.19a13,13,0,0,0-6,10.21A27.67,27.67,0,0,0,1564.71,256.72Z"/><text class="cls-14" transform="translate(1548.03 675.93)">EEUU</text><text class="cls-14" transform="translate(2592.12 693.14)">Italia</text><text class="cls-14" transform="translate(2615.13 623.75)">Polonia</text><text class="cls-14" transform="translate(2489.14 644.31)">Francia</text></g></g></svg>